<mxfile host="app.diagrams.net" agent="Mozilla/5.0 (Windows NT 10.0; Win64; x64) AppleWebKit/537.36 (KHTML, like Gecko) Chrome/133.0.0.0 Safari/537.36" version="26.0.14">
  <diagram name="Page-1" id="Ml_re4Ulm0rVTIbOcSL5">
    <mxGraphModel dx="1050" dy="557" grid="1" gridSize="10" guides="1" tooltips="1" connect="1" arrows="1" fold="1" page="1" pageScale="1" pageWidth="850" pageHeight="1100" math="0" shadow="0">
      <root>
        <mxCell id="0" />
        <mxCell id="1" parent="0" />
        <mxCell id="jSzEfoAAytOfIy6DPPDP-4" style="edgeStyle=orthogonalEdgeStyle;rounded=0;orthogonalLoop=1;jettySize=auto;html=1;exitX=1;exitY=0.5;exitDx=0;exitDy=0;" edge="1" parent="1" source="jSzEfoAAytOfIy6DPPDP-1" target="jSzEfoAAytOfIy6DPPDP-2">
          <mxGeometry relative="1" as="geometry" />
        </mxCell>
        <mxCell id="jSzEfoAAytOfIy6DPPDP-1" value="" style="shape=image;imageAspect=0;aspect=fixed;verticalLabelPosition=bottom;verticalAlign=top;image=data:image/webp,UklGRvRLAQBXRUJQVlA4TOdLAQAv58P5EM1AbNtGkAQns5nbk7//giczu/cVRPR/AvRiPHxDGq9kpgCEaox3kGQL6Z0ABV4h3sK/MbaN7UeZkkBabPMGgOgFYVsaXSSthJYJEUg1Rgcg+Iu9I0A6ERM4iI5YIiAbMMZk5g1il7FmZyszE0m7NjO1z9QKJ/d9tO3UxJ2Zv4mAJxDd51PmF2MMAYGf5N1pDEkCJJ9ldn0DJ3rFHWEdp72TZEHYrl2ublYrCFdVdRGRmRmf0Q1lxqiac3ZXO8ZGUuZ1RUQ0GuucpZOr7zTnnFVVB5LtE82qqvmtrrSerfWtjWr5txvJsbYte3KQlf3z4ZF//vlWOKzctQAmFVAqK9axAu4CkCfu+lsCFCBXlm3VVsYT4NS1WiHh+nbc3fU8P0XkGm18Y6c2roEERZIc28n/v0yzDM2eQHyz6P5HSnkvtdzSLMPQ/wmAkZFCISKcuFaUViyQAFA+leaJILJYTG4LwToAAPEk2qzzTm+pWdYkl21huAlt11LLfbRZJ4HarEkWapab9jAEKVRsQOFJhDXJmmXNEgaEIZxkGJYMQwjDQArhuhwHKQSoEBBDCHetUAq1GBWjOAalA8JiGEqlpUrTLFy11WTUYkRFBQBBEAyiwAeWZd9v47etEF0oW01GTUahEIYgld7UvUUHwZBVG/dhdVldLtsuGTA0KJQKpNJu74fi9bEjhpSxLGt31moWYMSKoc7Z8nqxdNu5OSj8Vrz5vQMKABCgdueyBAAw5rq9ANwDQMXYdGlzthw958Tgi0Hhm9e2i87vDgas2mv3DgCwbjfuPvzULkAhSL0ubX5v97PlmGhn95BCIU5Ue10PoJcRAECJ8ln9Pl+OvBzxOYiKivrx6dV8OebL2Zv0s21nnisUCtsjTrkGnNc+9bodwO/dJ7R/s+V+thytrva5SUQ1UU1W6+pOuhf98IIz6wqFwg+9Mw9t9ADK9960A1QkPVuO3vLZ290vqsWiUIhN2K3ubord104c8sumH24pfNF71dUHlNrrdoB10LMv79uf54tBLIYfBh9f8utj37y2W93970R1oioUCtveptj5cA1os7SGVRkWgfu7XSN+ueu7wWe9QhQOvXvEZpwRUX1aUcbmAgCQblZfrfvkhhZaKJUOebHum94GETC4URQAxMIPdxQKkfdSqVDaJ52I2azOIBgCiADBk16pUCi9tHeBMBQiIkr3JzMigNGDUCqVSn+aPykUhsUixgZBFIwZ74V9Uqlwf58TR2xPKcUoGD9i32rPKcW+F4PYO2PHjBfBCdRmdIDtBbub9nXPOHXG21fsLK+Ik4iIF43ZWJ0TvrjrRBUf9ra9zWMvvV0REXCSEbUZEZ22GqvBhe7qmJ3fRNR61HoQJwIQERERxIuI2owIgjip/7NxIDaSHLbZf+rI06n/ikk5QiqIiAng5z7yeXcPSaM/nj30/pG1DyRpftljC6kh9ZcgadmJpfnl5gQn/InuBCHwUKI/t8S7jgDzvYcksF7vJTCu9SKhM/uS3SSuQ7f+Pmo45BMASXc5SfVaa7WOS7IUwGN0JcF1GJpzTtndANfdXXbivAxJGjW6NlwVZx8bfajbZVhOEieJ420dxugK5IjtEI+TJFQ4nZiqOSdAau3VLQVFTgwwDVxJzW2t3guHEyTgmj+2pA0sSexjrl8BDMv2LMA389eLd6OZJBcfPg5TK5WKx/3LdbrL+xhJ6rm2eeT8XFXO7hoPH3DfXSXb933z05wnrud4PxfAxV+vI9dx+3hjb/7p5Teybd22rWyrffP/JyJhAhoWoGIAlmAABx2JwAX8wAMkVHxA+n3O6hFrjV5rba2POWef68QTuzVJkWzLtpJ1Pj0WCEY9KGCGia8SE3jADu8sSbFtu7Yy5v3EFkIwgQl6eMkYwAYK6OEh+cj53iW5tm3bNvpc/uqUlASjCUCCAhGHVJ7PvYMWbNt12wayKBAvbhAXhwBEy27S/Pi6bdu12mzb+hhzrrgjG4Qk5+xSrv9/eP+CnKOzJSEsBMiEHdeavViRMRbpcG2KbSMJkiQqq3f23n9vf6crfUuSZEmSZFtELGoeHnmp///Fvt87M9xNlQMWACBVI1xDBRx1YqXGnvfjads21Y1la7ueiDFklJ2khGIm12JmdRcUl/qrtX6HfsrqazF21Vtc7O5iVmE650zbiniew7ITnpAzJQ93Qpi2bVveRtJ5v5/kJAXNqWluFTRqmHk0DDlm6X328yfqV/S69rUfBg0z1lEaaFIzuDhJTRn03p5t21ZtN9q22ufaBySHwCCZZZEdjA/zdvJhtHMP5PkSTtzEcwFMScpqP8z8BJMUplJCDjRKZ6/ZPWDbbVqStG3XGHPtHRE7dnCHnZlRmVFpRtpG2W13ofuxbRtt2yzbrrQZaTsDO/aaY7iCJKuJ1kR44DtFJDxMpz++bNt222bbtjnXBoOSr5xjEZ7Dp85PJZ4y5JyzkxJJkAD2nq05ai7KV9Mh6EmSZNm2JUlCkn3u+19rnYXq0HU6Oo6qV6vezX4k21Zt27YtT7X3MWFt1LbEzDv+2g7KkrbETKPXLLe2bWWr5jn3448pgI7ICL0qlw7IKUEzIo2eu/v77j2wIEmKKvWLBWFGdtThUsT7x5MkybJtS5LE9z2tq9nrMHQsOhHV1q8LfQfgbGaStc/Vxvv/a8HiqI0kSXJm82e5J4B99qbCtm0b+v+Lkw7LjiRJkSyvOUb9VThJTpP3y7hQQQu2rUgVY+LzcrkXNjQcac08/Pjatk2NJNm23tdMkrsHJVRCUVc1d48552JmZl5na/0xPGNmZmYezI2FmRmRwe4umb3X5S53l8zl8vBY9MmDJEmqbdu2pRbtMDNz/WvHMEe6w7ZtA4nK/f4bfx2wINuKGh1HlDUvKk9EXGIyP5ZsbXvbRnq+HwAJVU6S7eo0l4adFyItoXP3FghtoHP3Ily5agNp3MPiBirnLJBE+I6hUMe/+3wf+Y9+2tG2bdnb6LzfT2FmZo4ma/jVT+3a088iZLVegPtxN4faYdQ3zDxhZmbO/7+33Nq2XauZ+3t85ok8FENIPbwKaARkm/JS6t/bHmjbNm3btq1USqnLtm3btm3btrdte0/bto3laVvDY63BPmotBRZkW22bi6VXeCBlwFWPYjz5oRzbtuu42ee9D7S891IESIJRNHMQh0oA6LkC8FIemjEIYq6R9x7mv1toJ3vu55890q1tbdnj7PuIzMwRM7TwO3KMykyd/Otvwk1MBc6Gx5kzZqaISdJ7g6Jt26Ydq699TlC2bVv/XM82y7Zt3aSsm5y9IDGA27a5DIPQCECrU0fKg/x4tra9bSvatr4PlO0+ch7jUmZp3nme8yJGaZTy6MFBlsQA4P9ak2VZP0RSHBm0WNu2a7fNXPd9QFlqw/33kVMBORF0AkAA7797PEmSrdq2bVtmXlvrfUzceJhyQiFKA2bzxE6ImZmZ+Zw5Rmu1eDijbZ2KvkaJj1Tc8fioefTHt7XtaSNt23YInDT3zczMzMzMtED37L0wzMx8NzMWU1c4FXR0jkqkU5YqPUZXT0m+JUmyJEmyLSSxvH1HfWm99r/e793Z6cYeJElSbdu2LXXP1vqqdhs1XbiZcXRoGdRu21bbVuscXcmhMjMzM7df3/8uM7xwCgGHOSZZiu6WRdtK3VokN5ANEkwox9i09/Xn3db2tq1t23pekJJb6rn3mXO6/wsKK6c+eou2rEACbylKFkBQttcvKPzWtq3atm1bKedSWx+befsftgiHUTwuoMbkAJ8ze68l54BF20rdiDTxbY1JbxDRtJ3Oj23bdhRJkq7J3SMZipkyq4eZ8Y+Z4ZWpmZkZkinC3GyNu0lm7oWPksS2jQRJoqr3P/+Ab6qCtiRJiu0osnrmwOUDF1aXxCx9/L7tEzMzk1jay3DOhZnuhAXJbtuGbiAIQI8U9FSdnh+w+s388dN/99N/99N/99N/9zMCt7kClLHIJY7dlZfjyGW/xNiPOcIVgN/eRiljpB4js91WgJMHb0j/yXM+2O/8CB/j4IU4xYmM/LnMdpflgkvggk1grI4AgN+GxiqLSKUO9zt7ZZQyIjx77maSHzubHJ5ek3Q6KJvPB8rD6Z2KeJbydDqokMgCGFnt1JCRYQq6RONMvAJ0VIdSoKSzpVglWY00nfZpOBuD4eb+ULPsi7x5IfLu4zi7yyB9BaPT/U7GyHS31Ssx0+1j8gKkjnfk+Ckyu7eVOnxhZ2AvYQT0XzdXs987O8w3vdeoy6bOTq1jtM4y6sJc6zYklczmGamiqtAa2ioyKqEMzRBKBQiCmiggAkCCwAu8WWECChh43UDcmIxKDRGDUERuYF5DrgnXLK7BtWBeMuOizlwOq/VS7rgkp83l7bffHuQbL49CfMkPOEL//Me+K1yZC/gtoX/T4y6+uPn/3o/J/PPr35Xrn32jOXdpx2xD24Qma5pIm6ARaYI6KINMCEQICZKAYkBhUGkxQDEBoAWoBq8oAACptSIIAJUAQQRABBIqIIEICNaiLQrWOoxCSfSKyTk4L3rO6pwl52Pm2WxziuHkeQ5PH/j0DRh9gcfJyyc63O0UuOLdLZ3b6f2tnly9IR/50/+wF3b4EHjmev7dJ9IZr9vN0GVJu6SdUu1om2W00FYK2ZAQxkDAWgw2l5EKeKWccKDSCgkVRBRDEF5RFljrK8r8UBBf8EAD4YCoW6OEgGwECEQQkECEDaAtuYW2ZDIMZ0xOSXqMOgqnmY7ZegzI6VvH/ux/X78B/kLGY7bbymUxwy0aLcroEJ3d28rg93f+gtuz7fuqcG8MSa9Jl6Sd0o41ukm6oEaSJApBMGWjxSJWAdssONuggnAZlyylA7+MbsArUEGrAAlVEgJstCW3WJsSF605KgygA9IewzgSxjx4+E6PwcgVzn7/eFuGu224LHi49aJdZA9eyP4f//T1mtPbxkvGBDPHEj1In2gv1AcJMUFAwRQNDFAHEzVLBGSzef1IZVlRDXitom6ioIiEFEkQISRYS2qxGkXPwEHYJ+lhZF+OvTvjzNGreQg+96kwu9jKBSkAfkuVehiJzu5t5WoBwOgg5E892ZpuHU1jdqJljBe9GcZDQxSJGViKgpmogOlIBF4zXrlWc1kkLETNREEFkYQQSAZAnivajNIeg32S7iE9aB07t67thKtXOOLLXw6z3VZum1IUIBf1a4P9zq9kEGbbq+X7y+iMNybbos+YLEyG3kAuZgFQxUwUwDYA6Gv4d729QwwcgCCIJISEEGiR5gTOobtIdlO7NGOrre/v/cuX7ly5tAMZ7p4Pg/3OJ2oIt0KkqIxEZ7utTPe34uXmOxb9u+dutvVGp9owk5qLTiOag2RjBrSoUi0c4mu4fYOcirqJVxAIIQgJVYs0J3AV9sO7xnui72w9Oj0Aw5fczJ67mQDT/dZw4rc5ViAoo/Po7GIrVwRn+g8+l+Pts32h6xyzzKKdQ4wP5GIWTFFlY6kjcUG7efOXCOqILUglIUAYA+skzUbhhKWbqc3W8V5eH2+BM5e87L38qTDbbQWeHdhvM+OH0fZFnb19V67Y3f3CrimtL86SdDYyC52FtjeGSIJ2omCJgw4ClpA/kigMCgAFBgioxYiFUntp+Q5usV1yu2Gu/uRPXz57u1ry+Clhdm8r0+OtiAB+q2I32kZnb2/lit3B8VNt5rSfjHlizoPpgZqYBVMUKkTw0qmH3aosAI1E7Cgvtal3/0B30CXf14XM9bWf/JuXjlxaTe9vk8HjO58carcjBiDj3U6m9+n0eCtebp9f9kCrOliQx1goc84nY3KQfAMKOcHUX5V8+GNincEAyclYwtGabBZJdsNrFq/Hrm/AAFDrn7gtw802DH5/55Mtu+WwwokONzsdvnBil7vib/7cTzWl9WYByWzRRTAzUhUTcoJ2YuFIBAF9WWb7j48kaBBCBmqSdZh2m43xqqRvsOprcBao9af/5Cs6vb/VCzn/2wp/Rwc6u/frcplJ+NB/7Mq//56Lk9EVNIuJ+ZFCTFDIAa1Zhr00i/A2tQoZRMhK1ivEW6KvWPKiPfngFhgCaj35wLlk+MLOxjsOfutgMtpSXsRlxfy72x8d2/R0qY0slXaZJd2tYAk5MNNfnn54+1qJKhkaBQlSJxYnqZeRF8P6/nNwCKi1/a+XAueYHNgtggEqw83z4TJpPd1dLT8wZlGrJF1mY/Q3TU6CDAqQvtTubW0FViEJEA0sSNYR5D14Si1PZd0GRaD+wl9+Uaf3t3rRkO/2wOQbP3211u6MxZbcQrta6GmyYCYZLIngaEBYEbXfqCMRRAghg1DMM4EBkmfofPTs9plX4RJQf+mPPq3T+1u9KNPs+k0ut7vf9Gxj064KWTfZGCtD0xyFnKLK6/i7ArwNQhRUyek54VmTX8+T5+D8wnmHbwAy3GzDpfu/+Y33t25fvrPaxrIJXREzCqHImag6EtGAyCuX7arwFg2SIU2DBtl6EXkuzPno+ckzC1m9vS/8YwAm2+818C6+VL9CrPX8h250crNuUMtG0aWNVIuQUkwNDMIqE1UFhwgqiTYNlpK4jD5D8nhar08tDN798Hcnwxd+x8C6dYx3dHp/q5ACde87X64Ll4er0TtF17VGjQU5E8NonURfkEdfdQYWJPM89bhl/DBZnoci8Nd5U4abbbiYU3deGLAw+cRxl/nfcW0Z032wMWZpCUXKxIjAi0UBq8+A1kiQJDRFTlDZT/tTVn4MW4C69dLfhQqxM88nzD9zdXpeLXeLeVcw+mJCNlHsldmEFegcDcGQmDDHLXlN+F482/wUzgH1Bx/5ruSiiq/rlqdd0B9+86VOPbmd9l5hYZsh2pJTh7go8Fu9HdgGkgYQEhdEfyH1A3gOqD985geSLruEYHQQFvScvxDmh39fqcn7qVtbo9ZSkgIpaF3ZCx9iXcxJeYeMr+RbfgyXgZ/7oz/U46eeFIgdde3dgv7wiy912roPiH5QMiZHIWViFQkgvMYaWLVzillEIHFK9Huc9l+H3UD90XM/knTPXo93O53epwvVnePtZZrxUer21qhWJWc6El+nMGAVzwk8EGIGc1LLeDRYvwBPAfVHmx9IuuVS/9Hh0+Ho4q6D1W/81s/V5iv3SfvxwJxokDKxNpLIcvIJK0pwB5JGUNB605LPnWT8GEaAwfbHw+TwZwbeGfu9SBR/znv6JMtH4QONtFlCNh3iq+lXvNeUSSohiwrMkwPS+YWtce8bcAmYbX4suSgK7IqLAw6O/7Ec4zdhYytJDpQI4qFf4WWBwQhRmSfn6Po5y9H/wwXg5OnvSqbHrYF1wKI4g9//3XC6/eG70IeiuSwYJEDTQrV3K7mCL5BEYT5yVma/qqd+EY4BJ5/8geRidh2vavDVXf6s5x4g45GGaUDCwd4G0nbcUE3BKDtfQUBZSELMwlyvUp/jbPlvOAs8/cj3JNPjLna5Rft3j/9YSDn7CeShlm5TckQAwhsdoYil+6oNpgCsNaAZF7CBCxCwtBmpI3ayKlCSpIE5F+B/8u0H/w8uA8PdNnS2FLvf+p+W5rqfpn2wNVrewOIAUlMSS9MUbBLihtQ6Fz+Dw8mMcCgaA7hqopnFZrKYOKFZSMSEqQnTqLihOMQWknOQXVM04BAlSZpiHqfJ+Penzf8D0/0ujnwmdLKqneP/djTxGTE/0SaFrKikb5C8HQ0KYNhUAhZLGHDjMMpTTEE+mbLJyZRvGR4/Xq78G0Vb6A6AcFbKC6uFCzXMImwk9sKqWmAIVlLGKkqzOYFIjLZQgJgt5CTL97IrAYIkEeax7+BsfzsADoxttXMt27/7hX9v0rP8phkPt0ltAtP0DSn0Y8zvlBrmFsCPw/IZaTRDscZb4XJyZeMwQrkNqLApGAWjggEJVpdSwawA0ZbxYBAHbSFCzQSxZCISE2xepc2ZNZtlbtNUW0hkAMtyCCA7UaoQNcuwSNIME8jyYHP5rcUAxOmOju2kU1Xtfee/6uJlHkF/s00aLlVviNsW2qgUlIhYj3VZY7QmM54hl8PcMMIsdjDJVpUCilsb0WHrlI5SK2MQiLaIr0TMKptmZvdnZsPUhmhBIRxnFOGGevSsYLlilWSpZvPgb3/qkbEApKPzF7QjxWgrQASevfxQWZv5IPoHrbTlFJUUAsj1p3133AXO5UzOcI4zWaOLiAJGaEwRNS3A0bVB/vbUg668gApbrXqBQMRtNCWwSO4+9+0u92aBYKGIGPM8P+oNA6BAmrwJxLy1cf/e2e7XE4AXP8nY32gXWrhfwerXdj//AfRPW/pyoKRoQOTa0zYESnRyjnM5LxfjXNYoMQdkWjlhvBl33Ua/qbbDxk6C2bJYQbmNxASqTO227rzdscU+qqkAAm9YH2+JAgLEVLQjec3y/v63/nv1wlEXWux358v/tj4vB3/V0m9KjlRULUOvbSE+4l3eUhbl8uUCl3KJM8eiKYgQWszzDMC84X73t10aS1XTW2YOTo2KAbtmE1uzOXozRTWQQBjIY2VFg1WqRZNOlvT9W9/9fCsw3W+t2zQcbrYJpMDhl/5loq0P/y42d5BB1nhda/AkqDCtaDQD6aKTC7kal3K1nJWFKYGizRteYGa8l0o8VqwvVAACoISJ0TCVIbZm08z30R/V1IgRIB4lCRGQXBYSYO32fHMdANZhGo4I0/0uAp//+ctlfZ47WKsstTsAkI+TJqxKxD8Zk3X2OtHp63hyZRsqRk2nPLVt905Py2Z6S1ZhRhtvL8dNqGBTrttNuz43Nq9giN+oDnpBAMudNGM0GPecPXujF5jub8Ux2lG6mu22Ag60X5w12vpiZ1G7wADtcdIqi5VNXic643Sd7iZbJmfxxMDWht05au9WVACE65iPFwhWcpOrXDebtRLg4qZzXqBaEYClssy1FXy622oXieHu+QAp0P/GSzNFP1g8VmqjzKA9Spr5KnQmO6vTGpkvtBhZdVsXdpdoEpQDi5QAWs4Hgy5aNbe5ate56t2npHMvAwqeO2nGyNnI+i88+/udwHC/s4kT7RoxRof7nQGf//T7qsIyHzBZArTWH9leMgSBRVWJZBQ6dU954k6uIpnFip5SNkB01cPuHI2DmqhQEZ8nfL7TVuaWy1w1m7USmhMxjNKd17SKgDXzbTWXVrDR+aekW8R0t9UNYLm/xuTudhma5gQA+cjCDYnGruBUT2VnKSqzmEiseQBbvaZvJ2nlZUAEwYDnCd9dkZJbe3+7tKs2TzQnR3eSRQRcO2lH6qVWjj76dAUwu7gr3aLpwVfvNFN3xjF68iyQXicVo2jKYLI63T3VszzpJs1fIppsHoCq++0mCToaMBEoDZXZM77/zmZctUt7325vZYAfYqIrSUpgQ//Z7aXvgmrsRDtEU7mVlRIrA2hr18cVYyImbk4jPdGzetqdpDAkopS2EGQwmgr0Au22HbiJSjBifkDFXS7yvl22Wasn24kktUXqJpbMBcBGTqQbPOHDYL9z4Guffl+b1p1N0pw7AQO9PiZVtPnuePdcw9MaN59IbGVqflvrONvQIJx0NBTVbWYmAHE4RZtxycXtot2eYIyfTjiA6CxxLBky5h9vP5gFZrutdIAY7nYKETD7RcJSEbQi6PUxEfk83X2g590TK4IEYuYBzNAH0xW2BUmlRbIezDw32/m3d+fGynTCAVUjSsDslLN33u1azKXjw6bW4+2lvGRubEYacifgoNelvE+T1/PdS/cix8kuWWQ13X7Gasmy/B6puOPtedeubiULB4yy7RezFpJeXY+bL7xA6fQwRqb7WxE4uzk3DRaIoGXXQUWQhUvOmXu5e8HxlRFbpLRG6e64z7YcYMRhYW7z9rztXaWKw8i2g2tLSKqC/XgAbCzS5c0NHFBZQPVqy3XwkxHRQuWc7V66F+s0GdGLVD0IOGtWl66ipVcEqmRaAlorQhMM2p7ygQHVwsFNxTVvPu+8608cb07bfSVQLUKCTN1APUY6vP70U881BF3YjEFuAbkG+YRIMFdnr5d62Z0pt2ihBA0wbIY0gm1A2jK0k2RINg2G1DoEBWv3lmD1I+iJx0retzf1rt3eOJ6tBkcFTEAzev7pw4/nujrvcaIXlfXQBzMEll9Xz4hgqqN54V7vnlMkJiAgtl6avLAOSCwA8XCmvL19c7tIhcdBtpgEGIGYbefvvljTzQ0jJwJWQ9aZQlduAUCWTR+IlnXP9NF6qQmgiqhV9+0h1jg4PEHX9vXt23Z3BNniiKhbIdKwNd+tBk4evCGdGxZJ17Go6bQ4BtoCsnR66ESv12t3Jp9gkZrLfmKtA/HD3NebXrRZBbYYwERMMSqbsVYC/SfPeffWf+u5J9toJ0oAEdXl0kcL5HruPnYvNCptIWKtC6qVoAZLrQfINpQESQ4MGK31lNgU/PRt4pRZK0UcW5tZ1gAVyZLv2OxAarXVppORMVaAI7JU+hDNsT5cH/nOcAmsht9bxmYH83XEkYZZ5oBtBacEBcqkrejUgHLhf7K0UQVtWa7fVTxP1ie7V25SK+H3KkZEhIyZdJ5Z5ogtjRCggFhiHRrGImBV6A4ZibWALFEVCZbVq/Wdfc8qq3ptQM8D24rABBGqEUfKt+mZoXHZzogJ1eaIXdqE2bYQGCxtIEi0wLg+XJ/seyoomEL2wfSHYBCAWmCNRILMjEJJIGdSmc3btIQD2cZ7FQUphbbUieGKMJhEkwRgqCyLHhGIdtR9sj7dnRBVHcwi/F7AtlQCUUFEGnImcjVtMyTHVt4sJqLFjqwfq1jkKcAQllZL33Ba33l9vJtUtABA7Y/qk20BzGjCciaw3WcmsoURCgC5rqdxqRPD726ulVlTvXC2LFWLz/Dbjo/fjSpYNAaowAMAGCBCyhlVbPcptYWKQMIlgbpqy3IFGOx33nnhe1f3VKRiWQy/GXqG35af36xRRRtCA6ZqczAMplWebFN6aSgU19qsvhAbluQ8FZxtqBBuqaMtO92tCEVgmEIjqtwR5AYnfe0Kw8U053XgCO+6gDog6ssxrdLiGX7f8eOOpdSNNvVWNq0GSGPYVC2PgmklFGYANtSuvlqTjrMBZSEXDMCAqMudvj5u+ZYSMyw7XQsvGql1CmeEr2nuUZc8kqgLUGehCIzxTgvv33LaYVIiWFINXnNd4NeXH95j6aibFu8fmGknrJhaxifQwAEqjAAYBVNJU3+gBMBk9QutchCugaCMQjNCMRABBMVxUmEATKoppe5bVhWOcKtA57bNRVJHMhESiF3A8bkA3lVheoX6v78/lGCqUCxHGqdiHT92/LCHlbwz9EkAg9TVykKrSKYnErc4EdOYNtNICwewSA+2dpsEMQgQABs4EGENlCsnFi+Hi5OxCEItxIZJy+S6jxGgeJdvs3ObuFzSAi6q2gm1C5hdbKWrQmMgg2vSRIKJLEGFUdHdfCe//J8zR8XboQ+is+nRFulJYggTVtziE4gTiBPBJg2mApzafQ4hGFDfcDDWxob0GAHittA7GKAAhAIU48rF447HfFwoI0CqJ9dlzIiACoa7NhWHSfuHqM5ZQvZ1VQOGaBBAm2qUB3G6NRBflp8cFz00tOAF5d1fe7BtLywNuKZLYIILYxbfLD7RJIFRcXRBRAKE5YIZANV+i38gS7XjStTehYIBKkKRwWfZ+eaEQ3EWUZsGbRfEmgdB1ZzXdjTJk8/s3vWV2BE8JJic3FrdOwwM9zvrogBxigKiVRQg8bUaDVfxk+OLHZAa7/RbkWBsLywZuCmqoGoFmYUVWbhyEIgAiuUYqPq2dqpNnI0irryKipi58ieTb/7K4ooiKoxIXV+QzDAzCGAyxXPbpiK0sr3oVrj011/8gozxTqqdO2xRQBUivnZ58518s6NINQAE8LHF0gOKmyJVy6ourEpxhKKLG4oGKBcM6FJLXgQDA4stDg6L8ieLryxDJoaosEmdxIwAR2b3n5vSg1CWf2teuThnZhflgY6sGhVEYh+QRCp7pR//8uxHmLKIgc3oarMmb0pdVNiGWvzFil2EVFSqEiagqDgoAlujdbrWyIaOKYb8TvzuIZt8y8yJtdxNgEFtE901rDRQ3PD66o/98Z8SmJQDSF1Q5N9s4PAykZpw+CORxy5WKnVB0SRibyWT/PjX+86vuCqD3AasCQNX8+yM1ZyBq85gRgAFlKiKoaqKgEogVL3cANscVyRK1hYVAlNXyYJ8YX2OKVhu88nIZ8g24oJRVAs4QHctNFNyzMzP1e87DpJycoEXAMv6Ty++AZ57vJ6WcPKOAMIn3aqxMQBEbG3FJ/OTX05flYUQGqpZvtO1BcMGq0ORQYQps3ARBlAEIJjm2ZmItWoi2dQSwjLRhlGVhUERT0a+l8ncHlEpKDC0ibYFFL/GuxP5CCjhaEjRmAgt/P/AkpIKvDkYFFpIF0sgGrG14/rpr/ednzCl1VqddAqCApoqZSpKAmJReN+82t6dxvGEBazqpujObY6czPLNHMSW2w6dwRRt2e5ol0VJeWX2QSAZCnzybZKS8Pp3aMZspgpqpnE5UfJq/uwvT35WoiLA0kAhXAPAArYIp2pza5/6ooAIKqtsJWEEQKhl8WF3MTOjsRyYOFN05/YcOfmWVYYbh0rpDEYp7nW0igKYdIq/EBl1Vd2fs4DXX2xJRpg+Y9LRWT1FUkMj6hYgv/GzH/xCzYsYSABCkRitmChTsBBgWAPL4cyVg5FTGsDiiglXmbLKVJEwazYRdhwzDECxHCDOFIA7R06x5ZYNC2BTdQMzAUarACjp/kKK6Fhoql/+ZKlINX3C9PT7q8WkSwMgHtfseP15Pz78WVkhbaqx1sCyOFWFKih0ojOOa6QRDl1coWbXVDe54rbmqpLJl591K2YshFCLur555ldFDBYalUYRbFf5EDuqozttMwO8sineii0rB8EoHYCYGch2hah0MxlSD5pZr3TkmFO/HIM25nxmSIn5VMVRlfbqfX/+j+Nt6doaQsWUTud4veKj83q9sCNcrRMo6Pp6k2/qy7zT/eUnK0fMigqSQpXMU1aUhKDWlh92zIg/UCzDlLm90DnyraB4y2ABsX1jKZNXHiTZbkkopaLMgpnAc/s8CWH6fEnHOGpsAI2pjXd6+9H/95NFKyHA2kKoqsoat0/nB/P5OklNDEWFVRMaqa8/z+vn/Em+rvIq5EeFgEhZpUqqxGBRyIC1jNZT1KYYL4yYFWBlk6fY8vIbSsFsHUS45XcJXw+BpCvwyd2HKQmpXn9x8NxaTRlifUDBIyJYtvuz/++zqRJIkDlwBZX1vP10+9H6AGAWw4XaIKUKUzu85cv8Hn903SV3oaZtXvGJh1Ar7XP6DcOA5eQqrzuh/FZYkQIPSgDM0Ir2b4cD3PJKdw/hQa1vtmmXg+5VjhR0rO9eZ9AIIwuIuYknP/35/+9lKwM5ayucyhEz+3qy/vztzzEGYMVDkYaCKQ5gF/W/5H85Nxk5ootrXfuc5AiyDYTgl3nzzvqXYAcMmwJ5yxlRmAcoGBgEUJihMQY1BLXoIIBAqoU91Stq4kWgI32hZr7/3sDTDzj1QpZm0BDEnHCgyqf88385+ZRFAQjWEsf8ePfn5S+dSYEYQrU7PTrL3uQ/Pr+3eWVX1Lr2OckhYkfOMwtt1hAYIAa/5dd4rzAXjLI9y7CwqQRIFAYCSZ1kdvP/ACfnHiP54LnHHz2/MuYTx/qqCIEST0u9z81i9BtVtF97U7Dp9ZH+hnw4IMat1rlHwWKB38x/dC4yLgUrGT1z7QiByhjZaMvNmaLaDgarhYpIqaJUimhvWFQ/zlIPgejvljJj6hSKHO9SGPMTmhDDtO9ZcUL9RfqrcZFQSQrzC+Fu8m/ffruNijult2i9VYQ9Vm6jbUQWILaGAkS1aZIdRyP5/+fUQycXL+26T5dsDZpEPdpzKqMpjFqgK6qjrOL8Lc8PAiRWqvcS5QL+q/wnt0zukvoZM5iCcddob0xhLLEljINEm18gzQ58ykuAAfDFT39LoaQderofgxqqVxFo4tHyYGwUISmQOXCZdU/1d28vIlFIwvpElv12+zdaeWUlbSRZyaYj0eJQ3FpKLNAV3pgR7sIo6d4Pp9Zxq8XDuCe02UoUhbABwvRb4O0bSdLByTmR+73x351Zm5DiyVyhArWAmv3ykr83p4pKe1omrBiXn/PP3WbJSqrTz5dpVTBZRoyTZeNIsjIRNfdmULAUQK5A0x4wr3p821IOAa/3XwyWa9q1hHjVFlMJUICczX569Xv9AzO5EvdmFnH1y/wzZ26+k3ocMxU2l1FNLAco28CQ+5QvKkXyEELqkrZ+6U+Bk3dEusF0kUj2xt910RqNqhTRGWu+79nv9Pf9W8eKcQBL//ez+md6US7xAv1NLWnWyCYpAEoyYGvgEjdVLSRJIiXQ/B2WV48tLd1ksn/44Y8GK0k7RaJKQrDQSAWob1MrFUSLP+/o29/zL45/w6bxdMn/dvuXPvnSpcOVHrEDoJbuiSTGKKQ4R1tRQLS/cuWw7JABtXpaXlZ1LktKkQAaEqmL6mI7/w3w3OP1hEPLTr/toikWFdOgkcrqDxw3IP0t/3TPf3txLfrt/P2X5z+x8RW1q9FgbkQsSHGOKJLszkOhVQF0se/+djNuUrx3Gi8LTX4BVRd3rBNEqqFf375JsI7k92VKHEooh8gCFGG6f99f9Tf77h9uMb4dsADyL9pv/oZJRfU1G5IZ2xHZpWASi4xxc2XTxUoQBrwYtS6+hD8BkBMNXn9RyXr51990sjqQolyzR0A7pJ0yTLN3n/2hv/xvAm7b2slZJdYN/9i368qk9D9mwmWcI3xEYpGp0N5ccaVwAlEIxneA8hmWZgDx+d2bBC3SfhwUTYhDu9rvyCpBqLhGn7/+7wFNrVnOtpx+89u/bMUl7QNQGOFzbOMQJSmK0117/56TaA/kChn5P0yp/7+wNJMx5Nc+PRHoOzCuRGNUWAlzqP1WEyyRZ6bmWcvZ/PVX/60PfkfUFnszhfoXv/0WExdbV4EcEQSYkeQSq7AVdnzyEklVE8bpbe9+NyRYHUikLmqKb1YfA8/t15MMmoNI7ve800sGi+JkG3W/sb3KZDbK3cvf9Rf+VStu23N6k3/yVoXB6lmjha5EN2nH5iJSiuzWPF9eUJKTyMMHUPXl3ZsEkWKsv7p3lWChmH5UpcT4QIlhuUW8ByhCqLD+or8sb1EoYGbbdPoP23/97cii9gSmO5HlxEaIhAiv8/5Xj6e9E00psZ6h0OmlCweFnGJkAH7exdwiEvj9AwNzaw7XgU2ZZfWz17/rJ3+qdjfv27VenH+8zY0X1r7AVLCjveM4lHQic8X2a4ui2ltl1Hoa1hcuXwLwFAkGP//lSgHGv5cGjQi90SkD2the2A5XAcTZaaXYsHkY9Gf/PJeobWMxjn/39t/fO1Jsidn59jltJ2POqRVbLEBrdJ7ZzRdrNoNlnN97U17tB+CFQsY3YcvXdy8TRHqRv7pnleAr+EEMmZHjG+K5ANYS/WZoYffkt/vhn1jx3673V/qnfuN1doX/aU4OSpDTvcklkolMKT9PWO0HVKmwnv7Q9dc/p5ATjAw/68ymlpruP7UY+KQv16kdoJYgUr5+8Ecbf7b5EuvOIP9P3/vDMyrRq5b2QikTTo2mSoTwent7s5chWltlsC5q5vn1ItAciOSCV3fbkrF8uJcmwe7/xWeILr7eG88DUYai8q8f/HEr02Lbgf/X9m98G9d+wcSIM3MoiUSmQv2Jl8A7C0hnT0Dd/P8bSy4Ynb+ogGWdH5M8aiDu4Fwvly8/yvLryul/garyYr0W6MDQBvshJ4rDC7NX5i7PTO+fsyuLlEZC4fl0/q9KcLBczMDSRcDs3la6FixumRZdGEcwsQKB/vv/5+on+CB5yBqwBpI4qvpULlIXIOCpPlGVEaKFsZOAHcG6Q/h5ldf7OTvF2fzXcE6GetmdcIujdZNbVYhFQOdiPN3vBFJAzAW5xe+yXi6W7xzdZ5IyQZXvPipg3bCC71oosm9mMCvU5Ty5ipNm5kVGvNKfGGnrDaqdwIzntAOodCxAAbjSTE3UFreeIfP1d66+4JGE2MbzSobqBAR8shutqH0DFol1qWfKoqRxek37gCCoBSMv43BeHZ1HOxaMRAG7tfQhVVa40cpy+XYsvuadP3X4lNA9cccFSCdA2Yca17QcmH0zi0nkUs/Cg5XkGtdP5ul611qPWGINhGlO53LNgrPdVgBpb25GcPvKaObz//P5wUN4ZwcSddCYVXRWnOewVKQjxhHP1hffx6Xs3JY/zSrUG50EXQDX+lmDVFzpKUAXV2u4iYwXCNB6oGDpNGC638WOBYO7l7xK58QQuH0VKF861p95N27RzA+JdxvUgvREoCtKQcV6nlAkVocr6jyxoKhAp1z3RJf5c6uTs+jb/8lebPm0nnuoqoJM6b/6uRw4SLcCiNWS8X4bleX4KuJDVtFdzuukOjM5JHuiKGT3qkjQDBKwbjWd8ZESbCwFTnS6Lr5lI5yRqAK0hIdnxgFjpFPBpg4u7mZhjBYgbv3ljosPKBinHCCO0Q5wsboyRU600u+dCFd6lryUBAFzezaa9gFjRtBmeu1aHgDL/NFbOWg2cI8wPhvrZ2RQ3gWbeXYIKkeo68quDk2PSbIHQ+k0VmN9ymCGgq0dDMqle3a8bJ2yhjUTdUB7ihsF4277zuhEoHYso3RnNEIFLe69WpTPSnwC5NiOUO+RiupM5h+skAMCXJ0+CmZinqo9KGMFXe+efNbL1GwykZgzCpWNuAmlGQdM91vrWG6lKZ60QNZ/RKWQZ4HAkgKqqstUyuXpzPTgAl6Uzj5JaO0ozyx3Oa72YaLGOVnv7mV4YQraM0bBOhZCHZpCAurOcEpT7zjD+gGbnBpvuK4IYul6CM1nLOr+XZBL6733wp/TsdYelgI9x9tLua6l2j7M1oXAewFj6JBZyfJoHSm26ipVHDGY0HUGXRZK4eyrz+iEW9BsHZ0Ewh2r/ZUiDKA2nd7T1rE4rGTkRHCnEjTOjsVRA/Ie1GFUw6lrSrHAEKsEYHUkGhaYV7xwNV+XIk0KMZW036skqlFFBTM3DGlVjUEDJtE7NYfkHVkgkVEd06k8VIbFTczT5iQgcS9ax7qJkDB8+Vn3ug8LGBLXVB2aIlNCkb01r6mygjLaFpFosrEVa3YDvA6jYB3tXcszZSANBXafi4ORwVRxu6hlzqm4uYCqMwyYPTarpQpUe8myjCSTwIsgQEPX8qQJTNTPGKO7qOMtzP1noFtFWMvkQl2lO0eP2lUcqv2FqiquKKR1C53RCH/uBgpdy4MmsBL/XfCFWTTYvN9RFY06aB7mrcut2TXHpaYNXC4AXWmGR6RzPLt3Bgs6H50dEqILASt/Q0NnmM9I7bWrpSCFruVGOAO4+cLAHeWgmYH3MD90IztsitWq4LAy3lxSR1CBu+vi8oGl9DBVUKUr0kyDDDEK0tYZRm8Ex38WRzELwATrVmCIf1MPExeJv0KrvOahagLoeF3oWqAbB8RiwDc1lWOfecTBQtrr19yIO860wJJ6oGNpKVcgjMaF4eewyFwrpQcsV1O+PEDpiPFFzTkian/BnaSLtL9DhWLaG7QwUzVyEoBupZNB/Lv0uCSMKc2zWm/NVPpF15ED5VzAL+IuFdhfICqJtJ2qkCqH+KNgRrP//GPfpUDHQuKGOtic/OgSFbSaGeSy6xeE8urG8FJfXrlTJb28kpg7Qbz2OVQjceS4G1pMw6XmwSC+UP5iDKayh29+W4GOqWPMGHbxN5SyZmM14019IdCFKJL9cW7iLrHX5qUEtZfMGTcvUKlEdv+dd7VLwaLqF5ECgKjDN9ZV+bnM83uAbth/98Pab3NbCUHaw4JQ3CMk+6P3PaRAt9JJV/UCBRvGG4fbrH7t3Y3E5PUHdZ+Jw0K2P/yqfnFXSNprqCJcMa03mNyGVHfJgZE9PL0mHQswKJHrZfO+x+nj7XMgCgYpXASiVKuC5Lvz8zsCMR04SO5/r/k4dnLjnk44CW02uEy1CNfceZm2xI2W4ChBQc5uHpaOBYYUAJsP3LEYYoY85LT3KYMosMaKla3/PUEu2x4ojov6XY2WwgUsZRBTgaCuNTplodz+pBuOWMvpw804oHPqbBDARJYuvKZrfRZS8vpq/Va2PlCB/+m768sXVmfnwM6vm3ZGAZDOCaGkyM4394eV8T9odo2WimzV3/Ft/Z+MFPUAWB64dU4w5PqVYef1zfkfAZLLNkHsv+zuOz9gv4Ekkq2D6wa627f6Yek+DOvliRnV/5hvzuudtNX7E/wd93uZIJFtF2xm5ErOAjQ7Re8ADYY0nRJ1OTED9PgENJj7XdJc5us/KsDanpPkcpP/9MtrGWjfjSaYmczjE8O1G45cpZF+xn/J3ygFbAksFvj3ugtNEgX+76hu7ljcYWwYusaMrv/m/J5+o6K2FCYex3/V/e45mn3YY1o/6waBARBFagLOljK27cgPNwWmi4uAjYd9URn/7rev9FFt6/7+f/P6r6+J4oXV/gZgPU1kqlLeYci6qpShYTrDgLIElwwRSjWYkUW/UfFgfM35185FPVOUyzb6P9W/XxlU8zeagC2cmKJPn2VME5CBaT1hGeQRynnM4m6gwmC6GoUp5j3/Uv5ROyPKJX3/y/yrV5SvXm5QDwVLm6WQLJlvWurHZtM7SzEjvc0H/CM8JfXn6YrH5Wf1r3aVFv2DqUsu06iYjt31A1ijRppdT9Y/nE+QUAlfVGI5frv+3StqT/ZIEsnIYxPwFvBj5zKMvbt9hzLDGoaBanTTRKxqZbe/ff7CAckcl/L95/z3V5YMhQAjW67iA0dbJLhwNtur1akM63bcD00twzCkR3/boUXdV5zy/GXzt05WMYRK8/l1XS71719/lLHqN1XzYBhNTMAfAJxDghuy80bde33C3zrfBUSxSILPo03+z/qvusua1MOiWQ70+OQN261n4jCXuVh/gf4ang6QkLafL3/4ovtv3B+efE3WXu211TY92m0XwR7FEjL/PIIqNDHmonQ1ziQO5b47W38JfzEnAiqpaXBFzoUF3up/zm9+lRoHKyblITLJkneaCMUiw4BQdQzajKhVxTzOtc8ZIEdxv7gWthZ5nVdVpU7rz81ftF4EmEUh1HovLB0VcFAu4Ffd/3b+UNOMNCoJILu2SUzMhLtnGWOsBjMStRhBaqBgDdNEQSySnoS79MTm6DLEreqUbpzP9RO+z9mqbx2oVnQWNZgD2Nv8iX7/86XKa/SaKGav7caDNWyfg0Hat+BJThgso2vtdrYYiZoHHNeH+ZQPn5d1WhnrhCrd+3yrr69f1Rvu5a5cY6QY8H+HdXPt/m71eStVqm7FKnJcz3TGpEZywUKCZnVXl3VR9zO7quTLd5PSJT1QWt6RxydwNpjU+3NGWA6LFzEqSaN7FpFiokJZrQIAC7i4cmajd4ycMuDFXYPryuxILZ5QVRcadHxuMYR5fGLeY/vfQkaSHlxDIVzDilbShTeVEgX+77TuR5e7D13b3MmcCvzfbN10bD84VmseJp1GJNgCQRJcRig9yoA9l4ZgS8sANX6Kh+3AQmwXG6pC5+G+aIwhw4BYuwqLAUI9Pj3A58kwUj7gYrH2UYwvpOaOah6tpYG0kmfoaq04ONpKvNI/zQkyEGOQdrMDNQyPT5Yf2+5xC0pzHioWTJI5+fiUUMZPdcsZuj60MJOJR7h2eGA5l73o58wCLpauxnANQ3NnVJuDcbZbeIfOzDiziEEw2wy19viZpts+YuGdnDBrCQ4RxeICZABcWwnY4o3YFhAm3hEd6rwvGmsAgqJaHz/DDI9x14EZqIfbGfbNeWZh4JGwg0PGzTm7g/9vww62wrbwPuTMHfUYdzzsiO5R1vm3+Tmz0EC1YRt12aTTtXjeKr4auX7R9DyzQ4JniT48PiU1t+0HH/bwzqeZHKkhPbWHBSDxi+/EiVuDrke581sg4m+bQQCthcSMaG6fozfKdULiMdNABr7f3gQYbJr4zHaghlx73kBNDDhTaRVRBNRiY1q0cS7XCl/XRBRpVIEjl+wZAgMBpgl8ziwXMNPh69HJ5xcUtIQZKGQIMGQBKIjTI4nI7sbT+BmG2EJM0ctnisTQXZd0VG2bEMsPA+l2XzMZF4frsQl4Ws4fO8JE9AKvyjPyYWueX1sBTp0GPIqD1cf3/7FdxPSNHyU7jEBaIPS2BWeBmPoSg6l2BeCv0NPQMq64e9+gIqKFrM6gTvpqLmtFVsT0tzA8PjHbErodCqJ7k9EPW8soxDTui2bClaZXgsN6UenGVCNzxGg2jBqaqnOK6/EJaCfe1AiM77jbc2psS9n5LfgBASa7d8X6Oq0KBRTjBlWMnoiL9uPceWwQAyMg6/05+T+JmJggLUrNI4UkNGVG9TTMCoIjSZCKSWQR5Xb5M9HEGI1Y93UhoKhHJzI2AyMQPeKqCCM6tzsPxjIUa2h+XipMEbPjDAl9jzwrBxLgUPNs0zM+K4WYaHme2cco57GWM8DddYWH1Sz93CkmIPWP0Y9uFhxy3s8+8ccj1AC2Q7H1dfpbgLgSXHtYlIb0QuCsjbfPpMxWdg0Q163io3Xo56ylX2iCaDBkp3H7HPL4ZBm2jBXx+Nj1oXoeG4r0JLwpD85j0xgo5b/XA/I6nU8+h6LK9HMGUv52rhIT496Hd6N31Inor0rFSA8XTuVzij5oef0cYEZcgYZHuPsT7BHRTtkq2221Fm+iyOOTzwFaUY/nDGBgjui0f7ABQklNOJQ/cwQFBsRfn9vtZ1v9Jp7wX/8+W9UPh5RB/2/D9+FNW8rn2AC9cXLPsk58f9F16spMTARKB9wTwb4fFvZ4dupJ2N6WaxqUnuZLMgG8I//plRjEsCWo+QMfSkZi3J+nK2FchiPeJ5ZAagJmGSPXGuLfbAPBeryCa8BhLBAciFoVmRKQqZV3MNhpHxrNDwyJdXFNL1Zy2iGLv3M/MGSMj11WobnXmwDjEt6Z5Jo74esvxIFwt6eVU96Z8DS4wz8jkondhc1weZwLorTIbDCv6q1AwdnpUg6JdbGm8UsFMI9v543n1k6FnOhb/iTqYmZyKFzcPcJdcwrZywyY3YWKdaFpuWABQx7jrgOz5npPtG2oEGlH7otGGEl1A7S2HxpM4UzpQ+k6JMYlNf98/eGcz1wuWI8Ih7ugXIuXYOVz7xftF/rLPx22S3BSLI3YZlFB6qN5x/IHVjDD4qk4zzw8B30PUlHGIsfnZHaxFeDio2EAv3ZvjG+PKnzlxZAiIwvhNNAnqlVBMAyxgcBMoW9R18HAeqL9Gsw7s2WST167WvUl56pY6bkO8n9JiosP+QPiS9iY7bbJzjdeDvvvvKs/et9Denh6TeaPHkjOVpsMlPVaqWSn/ubTky+/+3o36310BiyY2e5PXqMdNw6srlQIaxW3QUuHHdGr+xGIRVMYijurBsPCpNz0ntjrYNzgg4Jd7Pjyi4yNZYJ0iCaaFatFP885oXiwDvV/SYrhfmdgVzg43n4wm5Z3a9M77Q5pt2b0SNtoUi9tPWkdUoA8ZKgsSRYSVEGvz08D737dKVoFMp//o2BrhgjUoPIfZZhl1DAMBIGxzKmHIf15AKtCNcnrvePnMQdIz0OId8JQlI4/vQ9WHQ0ITzJm6S8qYV5Qjb+/6MGGBsoHi5+ZLlY41Eo/DAe139VPkuJbzz3ZltZH05gmkfRaO1aim2qFipBoHAMBU6xA2RgAKCYAKNeoHHoioe/m1myduOasaWknoFsWOGy+rENg6GCYcwvRIJxBQ+rhb6AGPYJCDLUiFGwdLlOdE4sc3umODsLlmyxce699o7J39fbUMNcFGFNIp6HjQ5KLYwGwTrQwxQrUkSjqJgICbEQxBEB4w45jIxpV5nW29chDaBWhwiJ8au1zklkct9f7pVrbk8P4p6I92lKIkALT/U4+97mbE8PNusxkBTEfWtsxINBZtMVwiACIqJgIsFkT16kKISSMBoN28flpDde5FEUO7Aaww802gbipg6/ezfa/+tKKz/f63xNrYVozRgC0Ey0gBUBBNuuvzNGmsjsGZQgMwlQ9zyyXEUDWi6wiqCuuF2vN2GEcfnSIQgrU0888O+807/yT6Bdk5I97xsw8Sy7QSEGqiKytgoUY1lq8ARvKIBhywRCZHBYe0cL6OQMZNr4Hxt6vmzg2asADd2yyPXGIwNn2StvZ4cZvyrL+b5h+u824SeDc9Jyml+mHdbnbvY0DLF0b5WBiXeiuHIf0eWxGW2GyZWBA//jVOdj8LfpXrTE7ZDA3UU3BIQEFbs4dFk/ozjVNgza2XIA5XH/6uuDA2fbGOom/FT7WGrUpJXdGsEuTm/TgMqvzVMsF63CuDzj6PAfq5/IHt2H+eTDWxgzmmZimhK6/JhRADeT4XWJMrbwDmdkaoVzd1YWLjWfZH8TO4x3l/AXAgM+N65vE+gfRWCBBMg0iJCDAzbqDLffjqchqf/Dutp/e3ypE4OxwY7bUwxeqbBo4BODG3aE4l+tarIa6hLtDNNb0uIvA13bva7P4BLpOEpLazUIlyG7sF8AapHfnTvUnJHsAW0Bm97YCDti4f4vonW02kkwoX7NVCLfTdgaYpvQ8szkpYE3b5yCGBdytXOdtVgdz+qMDhRQ4P/zHFGnua6UxW4GU0HXbBMMTCzNwgGBKzzM7jX6O464uCHUo95f/liVsRBdZglYU1RtHqZ8gO9E+h3V5LmU8tf7wdUZl8Ps7r192rdtqfZuRySaEW6LADbxTnGLO5+Y4ANZhfP9Do0MUYk2yiGSKgUUK4QZ+4F4uLHNVrXdnFgc4mIMNvno3Sy1pqFMTYA13hSASbj8H1J2D7UlTiYnn5rpQ4GBOo9ZT+3ZipmSgRFDgRt6xqPe8z8Y0DtcGOmB//vd9gFh7oNsUUbuZDyqvmb65MijQtocMQAchvzDwKMw+iUZVLJG1XchVHTCUT7ifWSzE646vM9FTRZI0LDgE+XcG1NTXKCiAAOs6IASg42GdVGw4zyym7PgZlPvLplyLjgNc6DyhXGBYSFu4gHQgjoz2aRTUUF3js+UPTD1g688zC8RQSVNd18ZHwoDlXclbbuJgqVJIzHUI+uGZws+HbzGfIeBZgZvMYWoE6WqajMs171TKHS6spfI4gK2zt7dS8bUsVNECgBzkr+Yn1BsuhXhUh/OdTD3rBRXNAqJ+M1Y1eLX7eqOZXNI9Ny7U2+cGj++8zjPlRiQpNwyN8nubnQNJzjOrckc650KSR5WwZc/79wf1Wi1JbqSHo0nh6pnqbd0tF16H9E1+t8YIMgLcxKFyUS7cucJxB8tAMjAAgXnn3OKNAoIiev1mEB0opHO0T3PKW+7kckC3o7981yLgAsHShe9o0D7Yj4Yx8ej35xhp+SBvicYAaaRBdG0LlStxzoWruaaFgrxz/3EcRxcUgJMUS+SaAMMAoUjYVNhU65dojJ1v9UJi60691aFxqmF3l1FgXCr3d33rASCv23XzmjSGjdgC0kpLQDSCNLsTw+2gYrybbm+5q066Iv7s/Bro7x7f9vd4EHeOcIjjIwIsNyTfWckHGwEcr+K5Uzg5FgtCCgKILag7WUDaYxaALmft0ACWSmhTAELLyJrHZ3CYGXFD/oyYiZHPQSRnGkd9JgjBXMpArjZAEXNgQxyp0DSsGtgYbgI3xM3F6XUTwBwLPhZgmrkZsvzYwg80YqntRK0EM+jvQuCcvxmMgLgppJtjkAU2bBo0k10RSVZKaa8kYFKXLJ6gi7xHSu9qSAr1jvEvn9+8AI/6/5vSXz0rG5qPV3GKS7HdJLXVZn9OAUVZhglGpRFoyKiNz2Q70bEdz5hi5ZNVTjYEQJv/IW8mPl0tDoINkHVTOIbVQSYMKnGqpFzBVPQCO7FKEwRmLuvOHKRKGLNgGD16AvjAxFrXD8CsLBOLaMwCfAAbBMwFGZhmyqokHwVmPcoHAJhFmOZYo44iK72QQTUxXfImdieIikJu1rvM4ooXVgcrG8Dm+N0X/z7+48cHP//g9f39s9f7Z3kIFyY0QqlIVJRKmDo0KkIFmsZooOolGsahsdiqkS9t7S/UAu1XT+cvz5JmwwBW3lRsJ6aD3995DVfvHjYuBwGx8olCjoiCsU16R+f5POdkna7JcnLjNpXAtvBssuRNzDvcHufwtCRt5jAk9GtB0Yvbj5OBiYEv1ajoAP53n4h0ZYxLPQZmMX5Fki8SGFHNgVkGILrjdQ1jnTWyPG5RDSsCSWVSgHQDrMFrdr2rm0G8VFvqB6InZuLHOd/+4fF93ps3D/Pf+iBAIMVeANiPE0MxwFBAB7RCDWzRWC+1UaZVY6wglupO7ZXsPn+WsqEc8OaMgNg+cm/f7in0eADw4vRYMVG+d3R71j7kg+dsN1p+MJEYIGA1ldNIwhEJPSA2sNgz553I6nUwQSps1nnHB6g1z80MA/djl/CZmCVZBxikoQYZrN3nYBzSN5nBAi4x73l3Ki0b3nWxryqs/tseczYG4kEcBRFX3p1JCUjWEAEJAoSggDwU6wmlFbbAco0lYWc+0/xPLrIeKkDOx4+z5YYsVgViq8j9r/NFgWHYL0J5VSh449vz26fz+jnbZTtuIcJqemWP7csd4D15lOCvFudBjUhzw041r+XFdZPz3Bfl2V6LHCiBbMyrGY/4GZVCUGgEBQQRIGABQlAEJXTFuirEBmG+MmvYM+fL6yyANiAvVnK+YawcfGvIfbjZBkDqvWWoTr596n22XrwrXiJk7ae7OKAa0bOYqS50HSwXlW2zye9zO69SoREQGVRCC6gCDVY7wCqpSWNMK2sybALy758izQHbGpLryNvJBJKyKwCK6Pbk3uf57k9P31Fxi6mtYw8AYInHEFcl7+cyoXPhte9a5AihBDgIYSXMBoZiPTUqMyTGjYuRsArIbz3KTo9xhvuvGL6wM4Au2y1OBKFokopoxXbUfnD74U9nO0xg4514wzr1CRXzUCEwQD3Y7/c/YhagENnEnVfXdqKiYKvnsSEDwmA2YhDQlU75uIpc5oJSLh7Vdnvmif7bpqI0DDoLBNqpHWZBf9kZARuA/MltkvfmYJN3vyRwATZHoeySD8nOx+3z3Qc/JwVLWuM0Sv4qHmJE518kUTr78oomuqoUkb74NT1Cmnn2ae0mMI0BSOLfhf96XKJuuci9WM4Sxkp0O5ZPbvKg4VnCZkGAdmrUGEX1ufWUkVCA5Uby/ROC4eb5AFg8h0IrJffwwp7ZZ7vnPx9WlfaHRD6y+b6+CQxMwiBbm/yLqoA7O+cuXI3S2XebDooDAZsvGCbWLAxTp+5CvWAb8Oz/2PJQgDt+xb65WZ85j6IkAfWCiCtrr9vLnVNVfXngM8xhrBpgAV5c9znnNioX0IW+h5vVS4VGAa0GLYN2p1qq6zD9C1YBt59lXjOTLauwRzq3xAQaK/mXLB3n9WuyCwYjwB72IFvCMUy50I3FOJB2rvvt/BaUE15EmgcX1crUV4c/wALg1pNsSXjMgJ88/UQCIE9KAuHlavGEPbXnO/doOGa2U4V/SJqEDDguTjyxrQtvTNJpHwLFtJqGGjYa0kgq0g6sgcV1n/fcWOhckK7EGp51J4MikeqgnQr01fgVLAA+u0larIrHupA8Oje93Lwg4fKEo6WprUMOLQNrcOiarot2Q9RyrGvdMy5aSPVAu1MY/kf8EtYB5xvmrw7eE32zEcqlnoTnbOUrZDX8IeWMWYzd8Z5bolyIqksa7pmvBSpFSPWC1c73Gn987AO/ATjgHFJfdT947loC2Bg/RaCl3JDZ0YIEMDu0UBEXcZcL3ZbUrTETVAFP3RNI9cB3terra10PgHNCmyPiqmeOjv4qmcMFffQUoBbB2g231z4HUjCR+3MgMDsrF/2bFnopDgIGNUyHNYS6sUu7rzVjHRw87cNVkeYcIzuPDxwHQL6LugmwP/HLCgdInosZILEYk5QXTIVCBlr991HWsWZbXaNIhzJKE6i0e1ryz0UH72nBZmdXv8f9OR3RBlgDi5q3a65nasiybv9B0eecKe8mLwKN60LdAeRDxEsMNzutot8veMYXGKnnHc6uFOwnDnAygYW4wtyfK7uZMhQvGBZ4gHSEEr6eeGjYJUy3Hh47FnjjkHNEXcT0eCsCPW/8KpkDQUIpN1BcAmuVQ6DDIClqAyhWyG3dbLcJxc6ZqpOaFEa9gsYDG8kjaJyj09UAOBvqYZpnH7uSwA3q+zGh1EBCytDMarg3zlZ8bj0hholUL2Hmv+Uf21F4fv0QJ7h2/EyjMhFZo310AZKNzpxrrtqssOrVAbCHipYGyZuiHnaVuvqZt+zjY5o4Tr83N9NS7/0kLagyAmwxQmiIuc3MzBJvRPad72kplNAnS8CEd9BE/i9hGHHXb/juNCi21sfPtNKkGMTFEbhq13N7gghrqQxX2EPO/y//DU0BlAtDHAdwwBeIcwA72t9V2Cn6aMwAYpnKGxLnHgRaaU69bxKaeNbfP9Pu8D6Wu8SMm7nhnpXwKzxcOlCIrhAOH+t0APw51Dcc/x4B1PiSKqJaKIkc6hZBA2Z96vyyOxYGIO5YuW5yM/cTjHIQVccnP3khmfpiNgjTeYsjAiw3xDP8GQMA5+12FR6Z9BpvzvlR+4umpC+Xp9Ir++aphWAZjjvcVbdrbritUsDFS9X9Eh/qlQTSrgbWvvfwnElrc/3HH06A1i4HkPNXzevzV76HN7EK1C4UrFNrnSE73usWis9agmr53XCkRpUsX6ZsoDA0ie8+oKpb3dZtZijs3AFYqgfWPX21yVZYMc6cCcOf+12f13//79n03KfYaSmhkDiT7/7qbfKURcA+MqzHjY29igvHXbCgm7m53da8Io5FlR8WeHh1qhEyrc2C6cL9H749gd9YR+Ul518IXH+Z/6ufzYuABzxJdtB7LVxu2h3zxLBIhgqsCf+EBbaSqXXmwOpCSkzU9ZZYff/3dHzu61gTt5Hzrpf/2duPfiz6gwOs+gBLF2FlRJXcZfrctXkEi/LaLZf9803uNYagU6FTk+SLDnzCHJU3qpGiRhWvb3/RikLHbQPc1HWrfc69Ppq2sAW0kImja/NfTz7YO4KYChjX4ECFms4dd7LqSK6I187FR17PnxsMVWiGYbvNiAlKqSdIp1/cg+GzT9SUsX8cKqq4/lImq4Sg25RhaS1W291q0zJiw7IYY71GJkNX2ucqtVP/j2dDawGdsahIVVPu5vbMiUAOF65d3EyAXtBHhgQRagPsqCbIcIZ22H0H6ikRI+TP9T5+9elrCUBp6mkL1kAgh3eY6kzXfe6ZKlTEwfLShbWb1fpIvaJHgTSwEsTkbPePr7SPz/2SYpNqPjp/9hWgQd0Ec09TvX2ENRCEl5di93XLNPcqFaFq9X07W61PXpKTDFifoSOnZhu6PtK9SbGjiusv3karZAs9wjVsVh+8OlOLh+E45kdBgPpoo0KBNXPG9JQH1gBgCz9PVJw5Nr+m9hWlKIZk6MLaUKm/560EAnyr6MFU5coihyGi5M3EMPJQgfTgm3eaST+VYwf7yZXaDQIIhS1WVCBK2VxMELWcT4lGR6cMmJsRE6w2aCxGjLOXPEKeW0Wc84CzTjWhGq7/EG7NJh1pX8CBrOUpLBQGtplWagDBrArAaaE2TYVwR1iUIqrMmdV85ha62CgV8KKUDen2tQVCXFrKI0qTEipRWc1Rgcoa7JW6MsCrPgWv4kjs9eDOBdOy8Itc9dOtpZBhk0rP2597i5N47kBKmKoqAlEYpdkWe1sND2PY7wRxMAVxVv8vwoFCLod1BQJYwvXjsHa49jcfjjTMEmxrny3FOsjqlFBxGj58irVQq+WdAcaFAsuwUYFZza2ceeaEI0cohACVHNgHFdKMdOXnP33+t599PwgdR2dpqaVxTexzyIF9dDiYToc1EckTYA3tYDNATBHdAKVo7cso3N+Yku3gq1+st5GHciYZNoben3d3suYk1OkIJcqresqEKIALGVibcZfYDCIH6DCRicCIGmUEW8sPXcjKepS60axm7Q7e+NZaZKWlAVsvNdRUfkz912qPQIRlMVqhZsxqzow54URhGArhqusdRx8su9QN5hsaHx7OX/30bYCUHEedAwgQIAEqqy3ycmj13OOleVluzbZpm+QEQluq5LaTrUGyEHnHyXNY3ZMTsj138LHW0qKkGaWCsj47338SuhEQqrR5BQSKUABJFSS1ryfP9SawP6T9dVphCc9LR5o/ldeFjqZUEWXGnJJ55pQrnCgYxXLkgtnSxWXJvmhRa9PkVSMULBatk9qZQZA1DBRbKx+0ra18w5f6tb1xGp9M6UgKOxBHVtRnY57D9umcCnIhpIPXv1hh8mBOAc3IO4v8hVs2K7RvnoMiVTezMlEIaVPNh7TOkygwhiMjBsgoMJCk3iwgiMIQ0jIatk7ptAR7gwdYXeMSQOFQQMREqzJvc2Ystg+0YgiFIh6wqOpTVLBe0SuYbhRFQAZzVIeCqvJ2ysVKZZLNLsRWDiszq7SSrjqNJ6p2OliziBKRB3gD611OA4abbQDOHhzd2xjjVCNohv1nz4erMmfNfrl4Q5Of2eqMOQrFAhCsq9XGkBDU+Z0l6kwI3MKS59SBgxiByEABNREzb+VWMpQ2tzKRmCiFRZEhA6gIUHW64DBNx1GhxABFhqG4TOy9zsTKZV1X0vbQtiTorbVK4Dqsds00fB6kAJ2ftQCkwEYS18n15ywq1eogMmUWpQOXC7jLzowSRgWM1P89gVAExIjIUFmVoUzlVVZaWZoYhSIoDqgVHvrsaJhOLGfQsd+zaRpQ8+3E3hkrq+HC3sxTbXcGWkbUM9PweaOtABwc79wajVnZNP9UElHVb9izJ1EcMtf9hLA6f9bRV+AwK6qCgLpSGSAChBIrlKgStkCV0qrNKgsosYQCowiFuMMBKoKkLjw8SNrhgZISzDRKLW8np4NNYy67mz607RxBLSm7NcbZ2UnYTg4nDljGI5JQIjlUxrP89L1KqCSLGeaOaSheGLBHabtqx6yiAOOs5kECgbpCMTONJCxIE8YsTtjKChamStU0ikooKgohXANxhwPThakVMR6MHSiJZKRDdjuMWlbNebvtI3RL+BYwhHr38b0bwMrt/xrpYPvHO/3CmmQCwQ2hxPXyZ3KiWUeha5hhaWt7zc2pHkea3MxsQw9MuNes4AfSjgp8yMq6f62isME4wNQ1f4ekLg4EW5nMEmzAwAYwaEkBi6OJz8I9Ercw8S0QxvQsgg4GCESWTRZZZKHkMMgyPVivHpA58CTv5JOQJNIx3tZjXi5d5w1Cq++tjnAObz9/ljowNHswPtUKkBbgLfD3yw9VdiTFuOaGKixge+WoeIwuYBykVuE+cIb61q/AqDBimf2xARUGwKKAAEJa31pABi3fhMAmBowyYIYBmzBtQ0Rjg4gjFvHiWChs0kJUbMPy/SCcpVKhHASYLkxNIal6+Xhr0aft6iWh6Rgv9YDyyll4ardrJoKiBwA21PolnoD4ufXvdaH3lph2eDX+zUwmib+06DF7AYyuWiGAgzKEArYowquwqeJ7QXHiFsfitlATepaqQtJIYmHDo4DBVGD9Ch9Z2fO3+s89hYEpC3exms5SXelBzCiX2osqoK5UTNX3p1OAgHqqHk6zm3KYm5MORQPqiJTmjzUuTAOOV2H9ZKC59pHWqLJIC7jm8rfLAaVS9OTOKvqgh16zPyxG1zLz13elxWCTlJigsAUsKGBxW8SLpqn9505hG2pFYwhZSRpaagYOgA0tp8SwWppWgZoWGaz2ApKlPlXKPgwCBSejIVDLS/vMS2fRM3SDjgUsIb45fMYC4BS33Tfn9Ke+Kyfx4QKyOUIXz+VfY2lm1GnVPoc1rTm80i10wzYW1xHBCbx3884qEKVKBFZTGgihiComosStTEVlQ5VAmCrRJMUGA7VYEN8QQFgunDVqwjBr6umRhO3wMA+d+rkp5UZAJCNssuEkT1vaLekYLQKmKVDeuVmCMN03h0ffvL0xxpaQzYnx1+PgKsZZ88yDGlZUQpX7bJ5bULviZYcb7zjlcxqMcRACERYQMRYoraSitPmptooYYYpqGR2qRQKma926X2qiJlRp90fvMZjnN+sAPxQASRaJnPPJYZvG78EkBVsXBaOMH5lVpo8CtYD9i+WfygJCAjvmfgmqB/fYwTbFRRmliEhIyTC3YRiCLbwAqlbXXquM69KUeDB1xLirESU+FJC9QIKR3WymB7nqI9puw6WKlyFDLf/oCnOAxarYbQ1+5/jlWcSqAtRz4K8cuwgkTAI1a2WjerOKT7WstmdMicRU29zmp9ps3qos0iMoW8bQtVatPLCAUG7hptVaILHtt3DCmo4Hcd5ndDPdsqpAahi0LDcShN1DueUcfqg1gLTA9NXL3y8LCAmITOFC+rDHgIGg3KAiMWGbZW6DlVtITGShabiQgQMW6cGADWYPNZBn/c6OpIwH+apH6HbLgrSaEIaZnSEIxC95siCd9+VM0OBfBx3+erk3BQ/Cpgs4knvii8WVMmeRbWS7iR0dlvioCoAg5kbfRYuUzLZZhvlWJiJTsQgFyLoNAxh4kNH/dZuSms/juMvtpvhsQOurj582Ezgrt9o6j6M7m4xmJSLihaTgFn+zdEh57fJn9FvDHA1HXhYViTY/s72pTTPfCwmXWLZXXxf3gcjAs57mAJLhenB40dPtBlHAOPQC53LJZtX0uIsAzYcKBH5hgb+V1+hGgpsz+yWmt/wxCIwVuXmIpna1ysym232bWrBwxOJFAFnd+t8ZHlBWKDjJ46Wbg+MfPb1uECFSOzWVDAA44Ca71IM/PzzbLyxKip86sJW/kIgMOzzzH93vJ7bFMbm03Xx1eLu756t9vvqXa27hikYxZE3YBycwcg9lAOsktQgJ3Xly+sLT6wZlHsAwWPv2KWazf33s/gONQQGRelHwExOkZfhFnqRmxBpIvrYwbbMd1EQooosrUYaFrW0PzxqigqbcM52hqrgUhz/O8x4OgQAEHqrdOLrkP6xVyKK98b///4cf//Uff+zTwz94vUSibkDoDpyeg8XWv337Sp0N9xSgJnO+a6+paAWsdtXvwJxt+EOp171cljZdxBnFilR307nnfk2tWiGLNN3hqEi9TdCB00FgHrS2kuCi+79/89O/+esPeaFZSM+Xf/i1sfnsHW6wdbw6uLWxtCyo/f2Pk2KfPdeMKNYTGWOrFuUHR6ygGXd2x5SyIhSDZOjC7Pyx4+cU/MCjPI2hMfmPn/+0qJeKBSj/hfjoDinb64PH7AeKnOHppX3mpTi5bMh8sexZOBWhMlMFTeeOu+2eSgGKRZZ+qh5ozH5W2R72q+nu7u/ns6Sy+FxHU2LtsLG/VB9gcV4x1wfv/NM3JxLLkglogajjh4w0G6Y11PyJUL0ABiAOVlTJnd1xt5UEwVhUBlDpWvgdVN3EQ7/he9eXRSz3aBvqdMEcdIKG89MShLUtYW0172+NBFJ/S9jISb53VUISXNisHDfINhYlWHKGlvcSo3AxLBC41+3cMN2qCAdrUQ8AVA/sr0IIyRwpDWi0etkVm0O3Z1j6VIf0eYSL+K76yv+N7bsKBNJRPpSFe3Pgn5KS786TbQ5pPywJIGDHDRVhOUTJnd3NLfOJQIyDqB5A9QCJzlpO7BlraKfZQ1HoSSZLwkekLnToAet/8BcGbuqKBNZzby0PMkGtXqDFe84PLcUMVeYPBHaUdfcIEpnPbbuduymzSNfXsiLgwV5HP5F+cgYqeICXRnIpzVnH4dO5IRVCammrvvInYHlW2FojzLg3CkgsMP04r1NB2gtXqpLtBLoau7iwIjNucsOUKoDdMl0VBgYOuG5gYuAxlhnBC4X/QFLX+fFUgttl36RDqWFcdIcVTz7NwC29aH/3+PkCbCpQaW/ix1ue2bQHNV+6WNi2UisMS/3Hpcs2rbEGs2Vb+Xtucqt7Qgdc3LWsCXjgP1OW+S/v9HDC5VgvPILtwSOEkNqhQxd/ukcsvWifnNnQSJO/0p4WdMbnFvactVYEJFAWq/ld9sHcyiApQ22QGIs4WKGmdq3rmhKKcnEH1O8R5GEPORa5+kef8jyftD1cujE1Sg1UD1j81NMM3NA5QRP3IBRY3hWfc9Jmaj+E5kuDaxfbdhLKV+S+brg60wSxHBm6sAwcih2kwiP96mWRytXPPGfYN4sLuY32EL+2k+BEwU63z4yRdGU2KUH9gxaV4B3EzEGBXQPLmIyYOde6ytSqqrmoEo0diO3waCtWfKxSuzVAhbGt78n49iVeLaGb8CDXgQ7/h2W3/8XAzZwIDTa3tR05I4L4qT+217YIzQ3WCl2s+UQxKk56fS62WWmsi7iDlNzoKnetAnI5JFwqBqJOoa0Ap//a/l2ZBgVWOZpAOGF0xD5oglbPk7rxTeExdh9ILd+Pi18Dy8uEmWOzit6tQYGYP+oHLM8iPaDazQ9u5cA4upD06xZGbOPOeZH6DvqMqm7qkuuUAg53gXUuh6MdgITlx99K+fmQJjhhOndPeCQPoajkpgdU5j/rKUM302Psfj4g9RdY//EdEriNvrbAP/3qjZmwMJv4W7xHTvi8VbSfOaS6yqJ251hxLMB4VFOu57JmFXFtUeF3cPgh1jGoBFtEuOiZSzwiOHy/P2FUq6xQkYgvz+O0Z/QmHVARqWWbLv4ILM4rRvracupdbQaQAn79Z94Tm0Nrv0yUS1BgR1ABd6yam7rk1lVxkAwF6yApBMzQgTjy6Kb/TvdIZS0g4xeHGw8tKZ8B/Apqv7hVgjDR1/YTx11G0ju1xU8N83y/JdG7cyDQURqE9xW51aWumQu4ZKiAcrA+1PcMslYc2xC1lHD67/ZPUQsRL6fHZxG9SAeoBmuHRZ/e4W9A85Jioq/t/+TG4iB9OXU3SKXnfLyl+NcQLCsssqV1C5X2+BkVcUGVc/n1PvevcFw6cKv6h7dmQtBYn05lLdBw/SUWfdfq0dQJ6PRDyEf/ZSY2l5O4o8SN9gS+yzgz2gObA9uBJQYLx6+YO11ydWYX5JJx2FT4MTBMocSBGkX0ovLR3N0hnk6L73bfAWAXe6m5/KyfatwvB4BSo11NgIGL8wSKgb62/VffyEnnpqz4ZW3FaL7nRUugTAOlqK6DBXixqrm6LnO7Qrl46Vof/mB1hoFseiugQGlZ6L7uvG+0mCE1e/evziufoeOQBbYOhvgEODugBsrhrdeXSUaPmo6In/qT+aBVaj3EgLk0TLdRKBcw08V1yayAC1G1DHEgt8NDDQ6bqcDPIu487zxAmEKBlGb1efwAqR4D4g+Bxj9h3q3HmYH/fmS2bG6PCQUuLzTy3ZZntrUuJCC6qqFM4dgWkiIizd9A+QnXLRd1rQoHL3AQ+TEmIYeHShQtSxLYOB48ggieUIPvCWT28kRf9Mj6IhwKvoiqavoBcPoON09+9rmb1bQbsolfHzni814wFNK+ijDAAAplLdQQTOxN3qElWLpcHGVdcZG7puWKOQQ2ExBTEiBOoZZv6vccS1ug3Hu/cQhgGahsTv6nAqCH4yr4EdR8fqdknPFoS4EmlkdpNzW/vuJje5IUh7OXI1jAunlaKCzgwkx5n8s1bZALOQTGDOEATgKEdSJd46dlU2Cg9z5uPMu8iOzlqXNoHJBUmYVdxDz4JwDZurUDlcw7g2CJFVgZ38OT4A3EKoXq7FFwLuBOF1ymLIeLrsMgbQynP25258h72lLXBx8bjzIvifbkv5PioB6hPYR6B3jycWac/PRHP1APa3MmELzgFups+7RXWYIT2JQriHR0zF2am+tirhLKlbN6+IPAYClIAiWE6XRE7ye2Eg8+0wM2WGTx++SgcUCQD5Cx/g0zjv7HoNjWs0Xv8v6qaDQrBuIFquLTnJw57UHmNaAAbEt3P8O0QKG8qlzV+dxGqqV9MMDllEIFiYZJtAI0aE9sUHldPnBt+OATpEhORHLzXP/psAEdmC9ia7jIR/eMbevZQrreEQqwArK232sp3kCoalEdDOHMVXldzjl3AS7ksGhTi7i7BIUEEDO2S06g3Z42aDQTTVCB+pHeedx7f6kR+P5AZq+/6mEr60XYmUug3of6T+6SIAyTwU4/91wDyeqU4taTSs/4qJeirW31xFAdHCu5+Dpf97BcABYMHBQMvkuh7QUNI2BpSFX4pYA3KgBYMPe+snEIF4T2YwIUq2f9Z0eqw1y8GlvFSOj+8VMUsmWyWFfFjIKpufW0MJ/ZJDOjWqOU6uDYPBecM0290u+wQHhHpQhiGEPxbjjEJ/3CNTWI/aGUB18loX5UAsjs9Yc48ohuwv7Sp1a0j8NbtsnorQX0UTmfN8GxNaWypqeTCWMUslzuutI+RzhzNeecYZZ61f6hAbbszpHk+n+Y+kNmSIlvxSCsDNCquFsEKN14efBymRH0/QGAE/ac/6z/dIdu+6ZUvA7gM1jx6Z0SuF3yN3dPFIhVBfQVL+bVCbDa1uIRqkIhtZmOEEsPalguLhtCZMzzli94b4rXQfIDZkd0ZaIS7FaF1MGh+/WThKAWyAO0Ok5Lcvd0wy2gid/OjL77S9e/zlX4ZW8yxwm4C4BsmJxzdkXMaPTrkTCftbHNIO3t5UCrRYoupJMxu863L7hE8YIOkTEzLCqLLqQ9bCrYkbX79QsLCOC22btq4DAR0fM2JTIE27O+LpVfqRFY1dOwNcAF5daZAIfUruXRot1YQK/J67MTSVBArAixztQHMBlzzjnfZtfBMmZmjjyYFMLVhUfQCkokiN4sKRLCqT8a/4Kggoe11DK3/OJLNiezy8eun7ryfpuVo/JDg46LOwFOqFnOOcc/fb2GdI3/9C+k5BUvewliQyUK1Zmxkgu9zSwuGYfLmCk+XqoENJlEVmj3iWaFwOBfAeGhNRBV3hy5QPGx6J6vzd917MpR2hdSd7FSyM1KrGoKe37HkmC0qrr/9C9xPm9jmy6m/VJXgiJdeF77KpJPxRve2jQuGSo7YJ7Rv6qAlSLLCuMim84JBMbmgCxQolcYFVoVxqLLU8Jojo+5uxxPzIUQuikkTj96wPnA6SlqVX2xdE2BprBRRT5LEJLgoo2RJHZY6xDEJ653vMldHAfNmBkWKQCWwKeN+o59sAAJFt/YLAMujKfgmQA0y9MuPb/LG+juFYbNL11qyu/5suvv064b5INA41bg5G1ilMz2g1maNdkE1K//yF70Etm3DhbwqN6vt9tNkNrYQYNfBUoKpndah5UTCsSB8IW/uwlK3JGdXF6gCYye5RfJJzTtyeesvdYJQq3JDpRb74mC2CSfe3O2MF4V/wFmI59VkdnT3h5TBgLbRsWL3OTbuSrg0bU6drj45JdXglQFxiBtmOshx/LAxoUY2p8eRqQ6Iy9tbgNayaPRu1c4+eNoBM2Zye3jHj81ZmZCuwnijKcfcjbQHBKbftMxy7KmyaDA9QKP+Nw/bjRuLWeOLiqMHjc6a+5bbiuonGV2r2/toiR3wCF0GqrxkBSLhhy9KJBGkAuW8gkvgru+Laz74TEixJnkERCMGrRKgvsuv1PAwKLbLzbahtqTDw2EusWkxCCQAsyuVSig/3h7njBt7RAXVbL6DQPBtmOouNw1503eJYy7PMsQBw9eo8SDJLBj7ARGXqyqcSg/wottNOv69IjUDQq2yanOKg2J5vg4p9tXJXqT1mQPOtwMQD5D7AFOpJ790FO9JDO0E7dwDrc438nIptPeHq0iUcqw5tV+wX1rb5hdfnypDqJeKsq7FEN0TMt+g2LVbMtc/gw/D9i4RZFm9dNjBXfgqZuTepLgfAJTqd9+suvfJ2bdJKSboM56+g0nAg1i0eiscn2wrDHKLKL/azAc8VkL1n7FQVWJkC2i8gMuX1+f27hkKAfRmBlq0pAUOogxjMNx4sFaA5mrX1GeJw0zMmMMef8QgQo6ibB16XbcfQUX2A3GZ43dy4UiSjkYtpO6HmBDLWo7Y8kKAXC//kM+6KU4IV0JDGwNlSPjlm9yWcAXlgp2IH3vknlGkhJAQ/Qvw0ExN1NY1r+4+DzMpr7nfX569O5AAPwzDKgiY5ECffeSzcneMtvraLRfLaegi+sN+hYfIGCDr34qL+livxAeLc5nvaJmw7TWErGt+xR8SOKDElUkX7PzLedbVb7A+hAHTqpHOFLYEVruO9pltgJuVVe/Bu+FYlY5bI4ffLM3CwF0Q4JbV5XiN1NAGY/IL5+af5yYVZPSTSFc8oOXHQCxWIk9uZ65MIeMDgVE/MI53yGSwF6xwZ6090hv8k2blVeG6Tqcel9jxYMk8dlcEIS5rJAXv6VtzAmA2Bzf/ZpG4pThBQQDeE8VGYtZNt+ApMknpvAmrEP3GjKWz9hzvecq4HzD7MnV0pX+6/8mFR/wwQkkuJpbGdiWxhyeG77KzfCqtcc5lEDimeCTYogRZv89fcOiYuaMOP89bWOqM6HJdx7TAOoufPKprIlJ5TfD0Pz5ZnfGXdfzkvUye60qB4hrgONV2JOr6FK/cA6t0qeW4lDYSLVRWxkjGbPra86R6pX7h9PQ6yiYNOeZupPxia2qckvUsfwx2piGolnXD78dv43wWjKty7hTr3yDyF8/3vmH0f4xyW0mhCue27c9FCmxBSjA3+1udsAMv6+xMj5tMMANtHPW5ZghyLDOOdFpbDCDR+uNfX3meHkOqjFDYibKogIp7PXl5uK7t+0wXMqPDzRMyeTaHG8//K4Gf/ual0Critjw3B2aXzbWj5rCy5wUpC80jvvwG2cCzRlizTJvtDE/SiVqXtCCTu11C+Zso8LfKAaBVbZQKmvngbXRaOtiuVzrK1ZiHVbDY5IMJYHdm+0R8PVJ1hHjeTAnASLc3eZ7X2N0S+RSZxoUiUHdPWGyM5ZoztopM9dhY00qAvmhgcBVACfUmp9qDnNhyMAS81+p3Ec5aiXt7eGqbKO9PRjEa8439o6YWqwDa3iULHJp7DcyHQy/shhjwvb9YrpZWvneVz48KvW79Ipa8j2DjAstfduXgqIs2MvfPnb982g/DR9B4gpjMgWBOD3eEpol2om/7Qz1iecN0160amJSo3LhnPMVs1aLdWAhl+sYBUkBY3rnOlDsZAhBFDla23uZaRCk4cffcx/+zpnUK6m1NaClu+8okB0A+yOT9SbMhE2hceFn99of4u4xscXZ9vOrm+NIJ6nitomM7aOW4DbfYZUBS4qK+Lp/vmyXEJeF68EF5oRs8AIJEIq5G9tLAMb2a3PCrKV37Nfe54ffdaOYMgFvkcJBUBkh+4595OzEs5jsOhmtc+tBxoqSvfoLXAg8h9ribBuu1vkxI2thXpDAC3vSQpjNoDZWEVZht0mFkHYoXlFv2jdWxhfAgMOrk0Y1SUySIRstr0y7MBLymZ2XsEvicnby4+8xkXUm+NQLyZfg6sjqkz/8HUylfHlo/dcI2t9lF1wCLDfElp4nbZjn/y9aaIGPU+S+3Na+cU6MJTRUxOvGvuA6tSsxHmCwTk+a5UsdUXbj+jkiBD+pynJ3bWcjTLTLwtNPvicTea6kclkcRgkrlwa23Iv3Rpr8TMT5yAreBGB2chG4dGorZ0nM5EBgrt8mKtcn/hFuCRrnJG2V7Qn5Jt9aXKsvcnDFOa4CKQnYsLyUsQnYssnSHocYblPbLGtQtLnwLd/7pgaqm8XX0pm+216fC2acXZDvbM/scSCXQ9ibxVhoP6Gc8a/HHAooWHLV/nPr652WMVEVv6/H9iLBEjTOqUg3VDF+rtoX3OJFDrPepBGnSEgSIg7jZSTY24RdxnladUNHjS/7ifuFmxNZKQhadU42nLujd3bR0jhY9nb9fAbFqJqGjHg17CJbl1jicjvavqg1XLc/SgVqXkAVr+3IqgBOA820Fl1UQEM2NcjhDM0b0Qe+yhtPqrkeZm5PlGg1IkR5WfoSJSGjidu9BfdAXY1X+cIPNILBDR/EHwlqnHP87hWU3XVP6OahJVuHl04SpossWUux2dt3pRrzYoL/6ikwH3kZWpy2RT+qArZBA8FauPp1mS+2u+aFYA61Xjqb/BrSwBjN8+BF8N0Jw9x5ac4tNCEvC3ztF0xPovAFaR0KnnGZqNGGrGUXvqFsY7/JuwkQaiR0hXIxAAXEEKd6RubkwG0jinxkgfZ7RmMq2ziXW7h+zbdR/LbO9fBqmXOsRG5CKa+wRUHCVLTD/ks2T2sbBGll7Zu+6IcMDPDCIJ3Zij9sBk0JPCTM3clnqNI4xcT1MqIbsE65hVOffMfhgAp2rB18+twTBWqq24ZUPOXZCaDaQuK24VDYNq5X7dd2Fy8E28HWa404awpINBzjfzpOQoIWZus+6SCMwI4aX+0nzvZNpm6QkNKaDJk8nRJx0N0rkJ1xKvn1gfVfA2AmVLFT2LkAOPdkVmD0ogDMl7NThFpT3JRhPrRxKwENloT1kmBQVRTWZqHIRg8M8Ap8lW9N5ccA7FBDzuspTsASDV+aLUpk3IPWMSZL2y2L1ciFr/ul7vujfsadbYcU1Op0Llnolr07ovuW2lAzYRZIXGBHnRnaJjWc5kx/m3cJedXzkdruYkeUqiFNFDbXpn7wus6v927OMs3DDfI0WVKVflnG5n87MmwE+YjZfjABM+U7v9Xu8neSM34LaDUSG567yX51oKRhNyt7NUpYCR3ARQBkKyKG+50BJDNK3GH664Rp7YPEVVX76l8dR+R6uy+qdik+6ABLr7awSHElE1OWu5cRTHvh6IoKDwy9e6EsMIR2l83hkg1SQ9s9M46qrbKqJb/5pif7kYaRM2k9L1lfVm+z6QRq6v/961ttEGThku7EGxmLWXkUULew7RnPWvtT2FBVSW3BcPGa5johLsDsgAOmSSYlW+QFoyuSoP2OhBHcDXKFnhD6Q0vrwvN0zReOVHem3ZeLoE7DxC6Oyc40f9lfzdcHWSKKNyP5SH8W1HqcSH38hTc6pR3rtrGKVzayitZghdVWLl28xO3ci4uoDjqwBEFS5cxoE73oRRIMqaAPm2G3N8UeBE8mhu6TruVM9hYOi5OgkIRHqrT5SdPHk//6gLMP+5RbiFurkEfmZkGtHzmR2l7fnxqaMgt3U0ovb9m5HwegtSQUHdk4e4DVQyLLjmd+XV9leAGzQw4ESrcPFqX1orIrRZFDvKBw11D2QgjBhUo6L+wwkUT66+lS6/1CK9Llw6G5Fdwed2qFZZXqTaanCYn+JI6cZPHt6+oypjQzQHQL1Rf2qhen9ZBUFdVKMhXhmm63A5ypDjowLF4knYwxxzr7hC7BkC5oofmEjaD7geCKpXXjcVzyZEr66+mSRK3nMXZTuq9cpzCNg5hYB6OVAJpOYJrx0s+zIEQSNWGyASVugfnJ9pz2PqhKra7CDGOFXNc8DmB2wIHAePmjLp2Qwj8fwCMlkI4OEh40jDyRAjaEUmj/2fOylb8QDicnptqzGNmREm8/dA9mAkiGMFIXsy2Hgg3YdLdNLJmSRyHEu1+IPM+kta/NwQS1mk8uc24niqXroAMjZZ47ACtdnKinM/loS/FWFPQ3rIDqAV0JDi54H+9LR1VzFYVSzbalepmndK0CL5AH1G4sXsYg3V4HrX05FKAA/a99tQ0d46YklV60vJre0P+6raZY1aEQYM3a52ARbHdM4RAMOOBAjGSfzDDplhVIVuye3BQGJEhZXVgNPU+CPfeSTR/HUgwczKsAyjK7jLYdRdMYCSc7U2Sa7kTlrML7k0CswJ4cnNONRIGwyuTQlLspRba9CAertcaNNG1szQUUr6Abq73aIYfGXaPfMMCQdKiop+MuAVKkPB5WItkBHQDB++d9zI1HWjBbQL1Obtr+ldsYEbTHoTPZeT4jCV6L+Ql09+ufTkTSSKGmjXmznzKS56VXBWntU1VjH1XGTX5pgqXrkAORw+S/If8wGAKSwaY5WZNPFFuKoYbN0PVEdYIhfP/YO4z2dKXKm3TSk7gAj1IgILvuGjNBggxYfLh1fQbe4xefrLF19PmFh4OO7PTEIVvyUTnzfMuvE8TBgEMOLa9T8o+EAemAlNydHhiUYijCZGylLWlBB0D4/qkpB3saCppbItF629JqxBTAtz1RG8V9XubHJrT2ZOA9HgRiFe3TFFBvkAl8QEH7kLFCNRuqPEG/qje4GoAdbmAp7pzkuLwEAhKicnMa9xFJxNOwNXQ9pTqhC+H75661eKQlGdSax2hgr6NXdkAaZlq03e34wEuEnTks7/a1Tz9SBePNBBUnBIKe3Qq7l7PlQtHiODkSJJFmRzvetF9wI39hqQ41ECwFy2eio5NJkYClBHOkUdOgUiDC+GJrG0kLbACEP5xz3I5nSaKYL4EDZZuBVH0Sk5T+K7/nftQZ7dIErwWlx0V2IRLwcTFGquR8DxQ0AcFN+YHBuLX2CdXER8X4esOvqGp59a89DkfV22ENC0jGKjjS6HhhJGApoYnRa/JREZDCXwtbUd93VA7C9VrX87xgpawSDnPlYMOiUHNASn51pzG/ztKdyJaQY4X17z2+sAf2OD4ngLV9IQmY7o3kNCHPBy3QOiRW6Bo9lHTpl/btw/KowH4F2fScQXe3hwlCQYLEWEAXLAq4xTOqIpaLpUgqkBRI5ec4jAAp/KVh+Eg2kHJCFwDh1n8SGTcU0HoHkSNjBas+iUWqnU3YiOxtJEBxN6EZTGqzMwGGzuxiK5WktxnBffWR1jLizKJIW5QgaLMkme71i+2KZbDG7COtIsEwQIWpPWrUgQPVFLJDtYUD/AeoSqS7uxBzoRwuXlmylssdCqueTlrDzbj8BwNSQBf0wsZh6FuyEh6gBOVUy6Odu4JwmYuAQs2EC/Tcg+zssucAUxDc95zf7OrbTSTQ0pqxJvir5J+2PJHWP6fVmI0KCAvJ14V+TrllaXNTFNA+iYvR0aPiUAgri4s5GWtwMCyKDNRSqJod1j8DCEyUeIAIRXQpWFoIsNSowHjyI9hSgEE2HMQ3n1R6JxG41rmP1U5xYYD2dIYUUj5rUHo6+ZT+yQ2QTnscd/Z6GQUJ3CK3WjthfaFLoKUwTlv8Z3p6ZjmtP1gTFRcWdxsWNAfy5fqiML5UwPYZyDJuFKAYF4+P78yVj7sognCRAaMCGGCw2iTHOFS7y15iApSohd9gyaFJ+RRHHbAkqNU2o6lnlEOEew/tPrWLo2RvVw7IRkIZw2lSfJ4uyLkAvwvcf7283HGVPIJ3+aAcF+z44YGJCTB09jZXy9Fea0HVHeKeNm+i/Vn+N4RUPFX9gnd48VKBVvS/nxLFYTl8LFsZXt5YHLJQKspC34g4oJ4vJUyPO5vZil96YH6KsElp3JShI9a4FOp+gEI4Sa7n81LqyqlDWmpuEhgD+eQUBEXnq9Zvdb3vOhSAew9NFoxHq2GTsHdu8cPbWqDJWhDcd+LyzEK1b50zbNone8vPckvrD4IO9bqfKbooRzaZcoZsWIuCNUYBIs7qqw3747j3raDOu8JQqeYclbBuIt4tsQCIYH0WOisuJOAgLXv0MRilmvz7u8G57yYxMBOvhE60nqWJg+3Aptg7t2COcUKZgVuqvoEnLU77DcLQQWvJeHd+MZUyVMD2EQgGCF3uccmVk8kcrIXdFgXrTWpljwPBqKJcw6SBChoeJe32KiM8mtNLptaF1od0srUbPzRBQoGOndiUftgBbaaD0p4cepKdnsctrUfqMLA9AVZ9jp44AkR3Vey2chxzNC7+rsxbSTDrWtiyvswXg3hUYA9BVEoU5RhPXnnycVC6lNpjtG8Sd58bxMtd6hIZwjBJ2KGUFjEKkXYuerC8noNnB3OYt6PrsZOdkt0oE03TPQ/Tz9PkBG9MqMZxidmegLNZoitkAO5dwFocBu0f6TEVLtW6NIJ+wVu8EBXYN0CwRbqsXAWWj4t7dAkVZrNaeRAYrhhsIFWc7aNpz1IOEUIUoJ459ROE5DtvSc+xTppbBjL+A45TPOZ1I5p5hnuu494wI+UI3fLBw9MgcHdiQ3Wa4o72c8JBSm5ztXVG4qyGVDLd87O5VhYVFtg7CJjTqAryymEBBVOvAn94QMvMHUBLA11Q0C1pMx3tQQQMoXXhI0l5SekgLSvbsip09KT6UyAgNNzvdSTwcoYYC7MPhxvhYhvmTmwqRpe1uM/QatAPvFqrQKworNV72Xk/P6NUFhWwPYMATmNGFJOBUikCrPg9QICYZPKjgaS2dUp6ElGJ0UvpnO97cECigOY7UCYrCYDjn1m+4X5jWG1Ix+RurtFmg19C57GhbrU3lWP7wayYXVqIivsfwb9jIiNI2x+ncYRVP2FNxrfPL7O8yvI+AYVRMC4jRjUiG6KoolbiPkTABghGXSroIgX776Qjz0J/Qgwu47LPxtR7WCUcpLMt88Y9AQvQeoGvVB0r+7nMbh9BEwTcj/2ZbjY3lUMBTq9Pq6HVwETcLvtBuJDWhhYBXIv0Ub/M12/u4qUC+wSV4iyvsY03f1G1+vzBHixAKHWpgqWEMRkGj55m05F3giEKv+hdn0iCHpZvvlBpAxMgxW8maL7b6QUOPU1OIAMv4QFsMV+WeSxSjXaosML/Ih/sBa0lQ2KGWvqVfsb5+AvLwB5BAM/YG1teLIwJANVcHi6GTKUu3foMk+2moCaKARCDrzxbGexJg4TDkby8mk1M4i1YpNpfBLwpcR5wN9egcBOOFdn0wj9TvSseI0DI2ipJQHHGb6JYsa3sKBHS+iL5tfTv8qfbTZZp7A8Ea8SkFXceIAzUugcMiAXiAEvmpt/QWH3i1VZbQBQjKf/C9RkPDKVml+hYR3XNHs/e4hOOWbd7ruG+bDPRSp1Vf1vnXXG22wog2hoSwNyH2uwHDbRvbRulUKosl/rTbU6GCuwNFIxnbOMrD1GWLg8cYEAJFqGBdG7DZqCVluwAAyACaV35TFLDBctkt6fRnkJNM8+SNG+BVUcEHXvu9Aq9HKMBgveYVcu9CFu8K548eEOqZrTGAMzLmgb7Ka1JqRVD1QBU/VYXoCG73s7PkLxUYF8gQHZNbBJfGFuMPXhQUbLStFDpZKcvME3P/qWgL43YGCCK/tI9HNVBehzHZyMDmYL9odeQfYG9ESRBR9l3ib1eQkEC9//PpG72HjUfeeY/DJDZ1gLvGvleShQkZ21XuhGU15dvvyrKRQX2BALdiElG5VIL//ABw4ptZnGIlAxspLasaaezvbpSAIqiX/WUpkZKCQ/u7ALACbime1NN82YHgNpMBsEy6TnHoadxCxkgjhU2e6/uNnmxBkjaqgWIdwFzO4bEgBqcpmAmHRbz8/bL46YPn5UOtA5Oi/13gjXmaIoiYn+PQS8nmoeBMcWA1pE4bCNE4WSk7J2lN8qYQUPvn52z8wgL8P6PaOHC0jFpU5i5XKZg5IYNpxfIyHCZirnfG+VYZOMPD0wEGr4AAQeMZgMvJJ9jixFtM+VxVfwJX5MNwAJ7AW2sCUcUgxIG7CGECgOlj/0LMQNpoESCObkf1nCwYCG1AMhgn1m/3Ibr1qMSaeN6JDobztI0eOcP2o6oY2ckc/d3LLU1ib368mkjDdbi9+u4CQWpdaRhx3Ea1x+cc5bp7wMEa5KjKcAs03kQgcHSyk4GSX0kLbYAyr6P5lVTEcowKPXH3fOzlFAPSBMlZtPqhEjlzc+YhnErb6fGyhhyMMDpJlgJZ+BrWcxGFBA3jlqM0m4rDo0c1VUt+j0AJKuNCWD2QCLM4digjlNmRk5LnIMTzWhPS8EAvMg+O/Y6ySfXeI8HpmqMmY8JAcy4B6GUmoahU7m4IzC/kmC60dk3HQrw7PJCLZKzwp18yzKhpWRc1eR6osVL7gEUMOaY2tgDCSEAbM1GJAwJkLjFPsA7SfJ86VCwQFEmcFB+3m6eSxJwAGziqnRGsk+z3RI6IGuxTtjOw3xI1SAbgAvVmYbXOm2ErDeMENnYsog2cEBVFcc6UQzS/yiYgpO9EWAx9mAiLuNxa/ZLBAqQORyEObl3pFRoIGNff7iPrvEewgPU2DRiRgSRW0qnmzFcpyvFzigbVxcaVIQxDU/GUhCCXzPBVRsQXZVErBOOBaznQTAi59jGYhZjDyWECMltue3QYGCTusRJ0ZHkaWdRl2JLpMzPllz1+csCOh1tjFZOOoXnkjj44NOCfS+cGDOjGiN05ZePzjT+Acb5C1SThpAgal7WoiZe9h43zkrXZPVQSUWizmYCF1a/g4nl907tSA5h4KGEwCg4uF5vdoNxUkfue0VPZ/JOIlAKE4VYDN5P3eezwpbFhT7ab0wvqiQEkynbxX8PacIdsjROmHmRZt8QmFL31xgzbmcXd6WStVYSTNx9tKpx1pxkdiMYIoUsXkT1RIWQfjcUN+N1nEyLMQj2MEJglBg6XjpuRCYCI3dibCBY5HmSUfsoGSAOFHET3Gd8dg1XLOCHw0V3f4kXtZpmiIfEHQGvAOkiYa/KOkThSi2roNqdjWYdcL4Y023NqAmB+2hVYmwOTFMgJQCWcZ9WJqjPwVjOxDJh6iEeQLwdasvNOy9ch0i/f4SgQsNzlZR1WAxoKRQy2PyyrJ9L0kU/Jr1T6lG1FUUQB1qCMY1VHRrzV2rQJofQWmM8mvpPnnNAogZB1N28jYpSmqELUYWrdjehzPPxw9XjKK7G5AUUYA8kJLyUqMv1jv+/bC+8RGQnx1iIs4zkdEhDB6VKCUPvl94nN+FKgh53dGRmX/ELFSxwWWZGfDNdKKCVMBZZC+sLnfFiT1St/+gWzsaeAprBicSpzXkMr2cX09uWQTWMZrxYixAPIzBg4lLGtIfrl//Zddul8rZYmUzlaKulKYpBIV5ZVJetZxRx6ndPNwXP7K9OVKGmjZcP4OOCnoFbXccGsPumU9exaZGPfHOW16ihxd1wyTEyQRqBRIUCZkuy9UzAehqMkq0xHmwY8CACA+BRDMf+Oy+++d9x99AuBUe4xBI0YmmcIMEGKcXi9mD3akYB9dk4YwHN7YyVmoIfIc5HwNj3QJpMSnATZsHI8le/nenbcIwDUjUGJHhHjqJEM0NEEVgNJb+egullFq6kIK/FKHgAgQGJCy+xqd/H5n88f/mf4/ZrdHOMoRkhLcYJNSSUMgveJ52TNVxIl00jImnx/I6H3O7SADINI2bBYlQtEq0wuR2utm0IAg4QeQPAPSqCrQlUVCxkJceKUT2J0svwUbI1wrN8kYcOGJDAysDQvrP7//Hi+/hv/N+H/rnYRDnGEAaKyGEFKKCWMltZz7dOzQbyGTvDo0HIBeOuRkxjVUqLIrB+sNfLEVll3HAsCpW0gLhHBY0MSQBbZVxnTvQwCMa9FRQDMOAhAwYAWevKCmrAmC+6D/cf/veb//nw+sc1fC5eWI70YG9gMZ5ZrTgwipkdOMuJU54YJ2WGJigbNhxQZ8AYBUZrsqzHS6QuIrrKOGAQ/vvHBJqcP4HG5CY1IErF0bWK5pjTxOrfIBjFMxpXHXXFqANsa8/ww6ZuV3/1MZC9P3e9ViqwVhBTcdXVfNFf6e8e7rY4bPvYfU27hMTmaMtBJN8KBcjyC/t6te8TK9xezQiuIOaJb9TmRxDRELx4tGDf92S4M2qllnlzNMrZKri/rbY4f/VqkMxKFFS8AcRvHgFtJJZArcmxSFwn63SzHjZyiuFgupce21KV8EOAOoypw8CAHjPTmDpg/dTsZyJ2i5sKBkHUrm3XtImXw0Uv/dCjb+VqySBDICrHut4bdAI7qYZvUJUEFu0sZ44WyBW3Q9/3T35EnFRmjqcsbLndXWJ7XSaLeaI/LWPFrAJfZv1/v+t8MKn0LjWa4pIBaJuIALN1xDrpjiuqZxkUVjEebN0KiwSD8cv3JCxMXGEXJlR8C4poTEtERC3XgC1w9lJKK67/gdArVKhWMmqeJsRWyhwKAwpRqwr0WDMAZcZQAhU68uYF5WjvZkYhKrhqeOqtQcb3VJPFo6kPldzU6qC3Ng6ccWMWJDFWZOW7z0/ybdi2WShzazAebxucOSsx1jmfraPRYPUqGMtmUb3P6VJYVkKk9FSrVDXzNbOZyq8qVQsnJJ5Yim1zoZ+mxAM76jMQDFICSgUGBkgAR7urnhTUKG9DTeI3mKXtU+dCwj0Un34LdVRy9nj3Sg86IVt0O0zjcMkcq6Bopc5c/LcYLoTrP3vi1bcriODdo0JKHgasxxRdZAPKE8bVt0GyyjAM6ApIHgGwa5fpTn9luPfOppmd2ae8hZtiKiMogwCtD/ZoRM0thZgAVK6divlGQaI8d8EF4Ju0wpPa887p6vXMTTh5ZAbT1/j/JcynBwa81FjIqCaFZRUMEZQM1K50dWWDT0oNGVkr9ecg883NBrBtXhpVTzKqHmUZrHicDAGdAMmKUWO+jGf7y8PZ/U43dBgQb4qKRQwMfqyWK6E+a01XVY9yXlCw4IyulkBi5M0miU3zcssi4aSiMsZIdJYHEpSR0vnunF58HtNYoG6ZBdEto2SpqyubsRPquWQFdQPjjaxXH6qFJJvAPKUopT8xjCdnOd06ABegRjuJJ+2Zw8l+0+5pmcKKIgTBOEdTB6vPFdiDYbeggoxukosCJU8h2JzuXrVEANAQzk4uG0+sNFf8hsqGwHhz3OHOiOY5PJGsEV3mOw4kIysqbqg8tHVDHRWmiQZ9pmL1JxiQjbsMA7YOklXUJr7Rnx5Odpf73ZZxNRcokwix0SMv7OHxhJg0Os3LJVVK0bNYiC6kU0NEx53tAQZF2W6HWHUzFPMplhqt2Fvm67IqkDVRA3f06Qq1Bq6GJaVnlas/GTL5TUHAtuFCtIv0YffO/nR/dcc2cygY5MkXif2O92EBSosVsXo2Mls/0Uk4YdE+E6HXvlwaiTNjoYtpAVm9MdSxAo0R1jLfrjCyoP59r2M1KyLcMA15Pjk9CaKiMqEwwLYLl1C76N/Sv7P/cLe7Q5spEUEZDd7sgIUyyWrVpuVroV2JQtoSpGF++23OFjYoToDTjFGgLqorIZjG4Sa4SXNRWP7MuxOAMnVLF05rBqRunFB5I+u+O/9mIM+6TKp+BJvDB5htFSQXNkkfHd7TvrO7fNXDIoYQ4ujvcrGbOfCG39Wa3p2pdaEk1relA12VH929TXuWEABt4cxTjE1HorMliIxn/a2Ng8KomiytBBGlznrylzm2a0TomFpg9bMQUYOLcKwZ5Lmy6UUwwONkmK3CqmJX+/fVvrk/eeVe+4WBSS4ak3lGNMStriqKt5LJTAUQgKd3X+LsznfQPRQnFZk4MWLGjTNQKtAB9fagKVnssAiMujciw8f9pfDgOEwREQH/hsnNVpYbs6Y8r37EnBwYsE2DS02HM90X23dft9s4LHIQZINlYzLPKA2r9Gd3MzxSyO3Y6PTxuzx/8hvIHLg1GmT83BiaO0QA1Z0weAG8DvOsxVpUCNRFRBfD+Tmm0G7Ev1ew9RVmTfH0It7c6CDbA0XyGN/bvtqefR1eVrqQhmymS8dkRmBpVmcnLz4SI/dxV0jD2WPf5vTxbyJzALjJDIrnab8ywITq0az3O2SGm0FjLgp1MWSRbXQFaqe6wW0lJyKDGacpH1QfgngQDLBtQUNXMVvdWw6X27pdDkk98i8ck3nmaIhVV2es1JqX3JU1MjG//SbPn/wGtgSEUmASI3Pqsoc4Tpa01uoy7rHqzmBj94QtYhbbRrhPXEiJ8k0ISEZxQHOoHoQCXma2LQhSabqbrtvfa1tflxHMAOgb/9Kh9rI6/ctHdJ7RumBSi+Ak6Oo+7777dWwp0lCOyUEsQ+et2ihb9Gd0BmLutkC0CotsJ+5NpUDS7nTC6O569z+++Hes/mxS2wQdxIW4BDcKBZmBSGfbV9tXdpcvuo10a490IdwEWwCsP52MYA0q3r9L7j41NYyBzlI0hLIIUl2inXkz/65M8iaiRONIvWIe9Rr+n48+2dciOMM1eJPmgXtl0Ua4TtzLKU7hhQog0SjPvP7HJ7/+97GQ/mYwNw5dGK5EyDWetq/pXj1sX2KbiSFlhnVIRQJKPoV2ze99mOy+e1E9rVAUDqDkEg0hFL83vNSjnGm1IIQMxTT3Jo6VFWyGdeC+FV386YNDQHnCMmIBzrQpz9z846P/+stXQEiriQKhes5AWGb1OsRIl90r3Rfb7dbskHEyGtv6A0mxGXTy/vexBx+bxPWh5LlSfDfUoIXQsUINtukkzAinxO1NzuW401gimnWVgJpA1Qqz/pypEOEJ5hoNvMAA+HD3zzf/+ZevEpiWuo/Ta2AoArYEl3a1e6X/Yne5jW1JXEg6gppPoXer9mhDDu9SmxNrkBEKc8uyybY4fnhuRGQEdQbkmg3yo5s5F0zBwpxNjd+KMBFgaHcw39Py/QgHGIkF5Mj3/334z798VRMeGGC9bUHMtgOXmnbvGd4YLnZ1mwkhlpGuCuhpoOWHHxo83KC9dSzptIJSPIS0tTEg8Pbrhi2gYBkH9xwcXpJefrHtMjoBHbZEM1YmtawD90HRDpnnavluY4ngALgX+/8d03tEY/8hvQaF2QrIOpzpXzvcs1++apwyyWWkE8GCebD3nsQnz0wO3hfVObEJGaH8XrkNsAf87nrIQKa/RD7m4nmy/LzzAGkmvtSreeCe1mGw5rtavttpb6J+Df4MTw6BWQZLapzbSP+l8UyPnXYkgi4kHTAfoZm196f++OlqPDuSfNqzhLDXRoKnjjTRRMd5M3Cq1Cyf3D3GHt2UlnngntQFZL6rS+mwmiUTR/CCRkbwE6D+CoJgdG3FwtDQv3V4N25ec18E5jLSSUFCAlv4o8k/HtzLoeabU4r72fe9MAGK8MslkxW9QfxvK7NYtCYbRCGwi172zguCzHMl6MhVi2CiuNdcQwIT6S8LZisGMt7t30jbNnc8Vu4vJF0KKLtP/FBmeDyHShZS9kiwBFkXEHi/H1l/z5UesEcKIKg0KTd9MksKEuufP+fzf6nmK99bqfNcCTqiRTA/Zy0UCVkCxiRggAJDtgCXtunfSKeRuxiUqMpl5E8GHfwO8aPwZAohG0lOsQERllBgKLn1te1LtzVFxOFm/+WaVp+/qn9WME/QIRqYDRvpiLE6kMbxCBH9uYEWML5kfWVgVFsx4unwoW0OOEwXkisBGlICagcL+0gr75k05lBSTlnOX5ei5oNO6LzbiogyFzVPyL7JeX6rz1/a8+94U4SC1XoXFWazLaZrMosUKSNwh6NmJBC/1NhLcMWjAbqSb+MwNAynds4Qu4xkLiFXBFJYBglCGh9U+v6l+qhJmhxKcp9lqASAVE0E0PeeTNEFzsegmhbKWtc/f26ef4uw5jXEpkhAjXd0NucHgbL8akxzjkJEcAIbIMGACCCwBwMmnvR1GSAy3o3v5PFQuilAKpeQ3yqkEbaq9HAlfmBW7xmZ2I3Mx32WQ8EiJewoXbuSQJkesGeEuFn1s/r8pXn+LQYOM7PjZn4S9rbVWzUamPnsb8OmRLz82NkIRW/JpArQ0MK/b1oslUE7RQM4qWHFEN+b743ZRgKTuoDq/AzSGMis7Q3xcSfvDTnMUWBOSdljA0tRgVhV8iYKwOKpJ0xPuWBBZyNO+1haii4+3VefvzTPf8RAQWjsZLBeWPAoIEP1ZJbpUjDnb30nooMIgjsZY2jTGhT7CTw666EgmBiApDZQ8nY4l2170xIIqlw+JnkMrLXeaLyfxCepDNrM9jxSzSSNFUCEJbEurShRfV9pMiTaiSQUmI+ZnZPb6wXomZpFNT9Xa4DB8v9sYMsSbK6mGDf8V23eojWzbVA95BwHmKUmXeY7uRxaaYa5bOwIlxIEE1TIY8ZeYndmS4/Qh6NhLwdJsEjKKRoQSLGsrysn2+QmBODLFK3kOupnZLIvVdBBwOrz5+b5z1s+66C6FNV62V8INauIg5mw2oUlpvtdpHPQnad/6zCXMCKxCIUtQHSFYFKDwDR+YNukvSoI5YKxk0I6REfghLQE0lJP7XBkdDDIo5OwO0ZZ0wPN2aMmNoLAssIEEwiuHJpMzxoEJZLzzYcZIcWGi4hiWH3+9PbSk7rkNJ8KhSyjnEzvHDPEQqiekRvuP72CaNIMxFYJFmLMjhNQQFowMG2T7mroWgMgxDJxCyOhoofJdxkWTIEZ8oCOFntob7hyn7L7Fe+NVuzMkWkchpw9eaxYghQvBLOlzDIzuYQF6uzCuQfcZ8XpwRmI0yy9rHbots3z33c90Aryarf0Ssx02P4SjioDqTSD7rWGEGqDAFrDZQqwkDgRkpa15ot8N2dvkjDGhdoV5SpIKAWMJ+TEqoQCDPTExGpCwUACVfAWA+Vzd9Va6q98S87eS3N3Zrmrmd0k3/ZQQ0eSxh7NxIARpFhmrXdYCo8yQ7Igr/a8bReHVBxs2Vc0qxOVsAfQJXay3ZH3OZrOIGr/aXip0+D1C+F5kUfQGwLuSw2QqQ3hHymmXw6U44oWQYHERjprF8ndEWYkbOC1kjitCEGESgINFJYAWFCvWbSBMM5cAhpGAymwZ3IHAQt0BQMpJszuU5HVkqXSSdXTrXpWzj3Tc/4mO/Okcy4H2yW5xqHG0yjL2ZOXiSmUE7LUAAZlCabcKamr91930CwEdHrCdsUF8ShjtjdyTkIpmikANUIEETMdvtik50Iwxg0SSNy7MoQJfrWfV6+AihUAmLRgmu5oTHNFF0iMgBcFTArGEkJD6AIdVE2ZLxNrhqyG1DIsA9GayhJCKjIgo1lJE4BQQWhFEgCDVwLVTD8g3VSYwGQtZiXPHQLTTNqN9ZwKNuWgpp4YCPXENNWAdJL9NMbHW/RY9uCBYsAFUZxcTi6fluoR68dOb/rqXxJOnvKUlKce/TU5qm4FdQ8TMiAWyvtgJjqCDS4CKkvepJlAvo/SKkIEEIL91e48vs9MSRT78cDTq7v9nAdBZh5qW7VXRbGmw+pCep42W+CKe9OiESZjJx+Kg2MJMBUAsZQwDHZhGFx5huX6hWcwIQQD6YC5oAnzsRZ15rw1A3HVU72xnt8664X9J+7FwzvvJDtPrBW7Z/cqtldrTVi1jqgWqoNZbVFHkgNAat28+rgC7azDTAzSf/x1g/T68A/+I/8mG0mRgL/IAzPlMCF/keTNneD/WP9mJp3ipNm38Ah8lfYTvXFSNOIDgQSkKIloesW1V9SatCQt8DRg+tRnBQLTMLsN3oEU0yCKULhit1QIWKRmPUrJFaT0rscdRLSSe158P+IPyO3JsqjJ2xvnPK/DyDvaJs2fmRimwVZ6Hj8wnVcKrMNpY0uGYXrkK2xGdFUPBlhCMIAabGNm8FbJK7PJZLYiYS7CDDIX5im5ORsyT7ZnDu3eOT01ePd3Bh9+4O2R/p3T2nbREZdNO2O06Jw1RiVV0WuQQsECDQwsqAAFYCPUWijRvuMxwiFJmWS84rYDhfnpopDS/JaHgI6AhBiMobAcP4Ipca1cgyWvTKD3XbKJBgLM0MSiJz8J56ZJ51eQmcHevxSQybBpeh4/sGW54r6dLoRkanzFgFgamKElFbGgpCBss5o9uKAg9LqN2TIHnAZpFfKYl5u4uHW23/3gybcuP37qrcG7j79Z3d46uKmR1hz18WbmWyEHaqCgKQY6glREsRGRAiARSq47CdJd2krTCQqKLcYgKCzTQNtSgMxV7WMQGRneS5bonqe7RvA8WTnb6zwhuUBAIxQpzAlMBksDmsHdS16pK9YiKksfGfGgWAEqjFEgKRq0zSbPfVU/CKSgwTqYL9NCMriVHLmfeelJW3ow5drbm46QVMtsXZzIkBM0xXAigmw2AhYCrBmdZGAQYMsjDGTQ0ZUh1XnJzkEvlKane/oz3XNtHiqN2i73ySYNMySSxSgcIsDkjWKpL178cwDiioKJuDGGAtI6W/PODCG2yhCshMZabRDNzga8ZlmXQjPIWFhS2p/z0sMlpUd17XCobx3nw02rLSWDFZoa6iQiJTYiwDrSIZhiCa1z7HmCvfEYZQBM0HeBJXsw4hXHoRM1VyI9//WiikG7D31yFYUGJyzWr3GQCOhknm6BsnQ0a2NcsdZB3AI6o9HGzgIQZxrYkHjAlAMQS2nRRsi2GeYV+S0hCYLvUnyUFN+Tjh6MkW/nYTachDT2aKBLTQoSAVlfWsdbIAlbucRuHmffo/Q8ABMraHxe9Y+bwoXByIzeBzER+aGnlUSROuzW2gughEVDC4s6VhYy6ZlbGtMR0HR/CUoC/qen3gLSemvclQ07DCgRwBJSDUJymxLX8l8KEhTSCL2yh2pPsPtp2O6R0kpaVjQgLJwqtkSA9aVDAAwaR+z1Cfp5mv3xGKEb/Lec/OFFHEw5uZzpYdA+2cmq7O7O6kWMRuhoAqLGyhzQyc9+1kKEIcY4gHsXYZQEJwRgQr2x2xZJ7giYcGNVU0GlpGKDIRspCL2WLoMm7AaPO/19wp1uEEPS2KMp0jgha077eB1BYMvD7OYJDsZT7I3LiGABgvcCu7cM5eVy0FzwsvnQU1X6jceP8HOJoIJFEUGxVtqImMHjHUOmg6B5OIbgintdMqrUxk2BEHNFAmABopUgmIRACajNXHHMRRMOgvcr72nZGUeYSRorFALAetMhWGDQOsOeK/TzFAfjKXo9i45CC1B8GGB6oX4WEMcvjx901F1vNhrNczRbvJ+nx1VHNQ/OUmrZrWFT8I2XR0nOCyDuXVHVTA2htJ1kLgIWGNl8M8QSAgKqAHgtHcVdeL/yOGW7x6SxRxUCKdae49aZIgnbHqXvaQ7GFfbzKGJgmUhC8QEm2tma9E2RuD8yrz6ADk+ZuuHyupEIlQIYIQKFoyFLBxfgAET0ogReEjYN0y5G60nWB2BQ5cQNASlRVIC4im6TBQvuKB9KeTJL64iUU3QEKQjWn3PDWMJ2L9J3jX6e5k6usJUL6CgGxWNxECbaZmZG/A48D366PkChSTEbMj6DoyCoteYTFMryvyFP9Y1RAL3gPhw0pMnhYlf7MeJgqXZc1xNuCI3FkyhAIpDYpuhkfUmQlpygcBB8JOE9RZMjkntYggBQ1x1XQGri7sn+8eD+eGQ+nlNd21MA9I9HZCcBnbMjShs0MbCFqgQupii+6ChHw5aObBZXXYRxQQKvRBeNZICfaTKcYLtepmMRSnQXIBFSkd00hwIapKDf8CF4n9AbR6xFKkFqEKN97r5/7Pn4pD1bmCkkO3jtMYOnXLDmTKG9HWt37IQydApgICG2I0DD/pCnyv75y9+lAJ1nC+S4h0bh57DeMLuOOublA5AHUKKbqXci2EAqthI+mPChYscxyT10YP1R9SKpsFSb3fvHju+P43E723mT6x6He/Awizpr+oZ8GHYzg1SgOe8MI8KVPASIMASrXXgS663jjPspBs5yDAIDsQ1XupAdt+CdxcGSBiyAjBJgJ1IpEOE9CR+fOMgxKffRlDVIJUwTSo7Z/Tm93x+Uj6aja5qmIgG4L7CECJkx6StNJrwbRzIH6froXdTVup4gH+0Z/8vpQwzROti4cfbkN7DbBkrEHeUCZAHZ66CqAPyBGx0ht9w1+Dg8GkeYSc5ECoL1h4KRWvl2st+n749Z1+M5MxFpBwmgg0UaIZ071cIO9eFmrtgAhA9inMYTRzggI2e0zCtwC8MYNg12pJW4IpgdtywbIA1YZJCxg3E4BKSONuFjxYcbmhwyH6cAUqw/FMzUinsm99v0/pxaj+qDGu+8K+U9lz5CnDlFsXj09r5/5UsnGTYkhVbjibE6MD/lDBQFvHrGKONhzzQMD7XTBokus4g0MLVqKJEs3sDRDPDl8UnhjiNS7mMgsA6pMnu0Pyb3+8Rjv7M/lO+0p6QE0MViiBbckHk7roTDPnSz3SjZK4RFHX6FNdK6/usyP3b2MnFNAhRXtGmZDKHin2PwLoPCkAxJFrDIGKahAFDvMucqK3x7POtBGtJYWXtUoCBNKFHH93N6f4732ov9aX1NQwrJblw1ZytaUMjM6XUiDzsgg59s+SQNwy5RRwi1cVXc+fseKlpzRgSvIB6bKkP4Bu+cVDsMFCtvYM6CjOEhrEL33FYwnj35qhRvqhcbEGHdoWch+9wZ3+/j/TFy7dX9GFzTkFIq2InmkIwEcEoFzklsSLPbB6feuITm79OcwKI0ngCfIJBKekIS3A1iGw6NX+0nLrDdhYhsnDhZkKrHkBLe2wemjUV8c7l4HmovKpT1x29BwfH+GN/vQ2u3/hVjtINER8Zbk2QzcTaUH42HrrT5hmQCqArwasJUtSMUYDrpfzOe5TgEwlcxz04HyQEkC+EhQrcsoCsgMPTOZXx1FG/a3iGeOmEzU0udep/j/T7c50j2sBfVymhHiY50xyRpFlhTLwzkqtk2TWS1O25A0L6AtOWe4jA+AlIv4elpljjhPw+rHAejYq89Z3xUyK7CCncZJBnxnAy6QkV9PdC3YPnscnHRLgnHU8cHyHR4n8P9MdrnJHd1ZyjupGErADuybcYa39mTZt78RNKuD03RUNiHFYASmIy9AiNpqz84WaDifo9W3A33KCoPg9lRUMKND0gEKU/yMa7enk6bLO74oiz3QfMC89RZGxB2Fz5G+2243wZ7TfFgmGi40x6pSEFXU17UxBCLRs5ZUyo8sr7t5EO9ofxCqigQPqR2V4KOZJ7MLV7AMA5oLkhGUDsKFL4vCyoRWLSTHfPVuX8fonGBqycozcXlKePDpAhyGe7n8H6v9zFoZtiNwSqmPZAS3a2AEjWIXLWnpCCPWu0OCdHLJsCcyEHVVnAl6OjN5oRVKmAS5GCMy1gYLnR8IzsK0fjNCSRChvw5uQAsnsB3BODi4Ty0C/JUCQOUIJnckZpFvd8G+21wP+rWuMx0UvObNEkD0J2zXophJC5qV21llI1XSZXoqX0fnG/Q2IiI0zTFGAfizf4kyXUSbMfgGA57wz3GLY9qN0GpMgOpiD8WFEJd4xoFz8ZiT83LUyVcgElJLW3na72flY++do1iEtOoNmLSNBX7AJ7AZL18Bse5cnlIqSttqj2nHUiVvDpOepBeKhgPqq0Sf7i5eoP2RAB3RJRmDsUvDuL4YNtJSOg8rESQ8TlFhsXVozFMi+5y8SR60objKUIDGSwUINjFXpVneT9qz9oMOY5J1qq70sBKkeh0PZTEoIwvzZ3uudjaA3Hl86wDLvChzVpjIxJBad8U4NP9TiA1GXB7RdM6emGD4QelC9lFMEo2IBF6qB7jjmvpKJIVzkWh8tRgA4VQ5muaOnFT+Kj2WXnU+1F0DTGp4ygZbljTSEiA3VovjoyZ+lsSEpXbmmQetV6PIOeFlbhAxAZ/eqLKad915IzOX1BAOo+GwAUCL3vjBwV8OJgdhBU6f0gaMBjV0/JKeK4XNpJVzNr1tOiUhgplAhQWIOzWVrlT7Eexj9qj3KlmRjHCkHkJ1zSkEQuyY/v2S/GMjULa6p5S1DVaZtiHGe/+2Qr/KkFpVFrDxt19hgjafh+223S95EqMMWCCr2J9sYNCzIe1ixah8gFJQEEHZQCQ6ZiLwbGSUmSeCuHRIDFVAioYVAB1VHJXsVfm6mtX3jVgXWoMo0R2A6aB8Y58p6AkDXLwdcvTedQ6lqBPCzLyf8pKKg2+N63jQR9su5LOo3lOYM0Oaj9q2OqkZEN2EFa486GlYS4Y3yMsjiXAqCDWUXqSgXkUc0ccoEfe1nD6JGKc+EfDhtGMd5ON416KXZVHYUoZsMptXXING13TmCYMrFLBa7CThsgIe81GvxJG7Lra4Qjt7ekKVlF2CwemFn9LAKnlpA/suHalzVHrNCjsoAYZDgaMvQeNK9XuISBfUBLUcWrvsf3g6EuOLzPHQmKHzHHTBVDqm1oGkK+tk/LaRAGW63ZUixi4v1OhAdhUmhUMaNhMNlLvZj2MD3LP+/jO8N2ZoualRIGAcMNMI4OJxbVcY/9+Wnzd+uqTVrN5ewS9aLqqfGe7TMZf/4Ra9aG7Wr6nOQZMBu3CPmNchqCowxYtG2w7Byu4bKOBFBA05Z1dM35wXCcMRCkoGHw5XskBSUIByjbNwgL00lF3RJS4aMRtCKVC40r2OM0Mx01gOIOz9v7yBpyvGd4JBJLwYFRaKoEIYAnT2qDhuhnu5B53qHe8x52p9V43EUwYdGUyeiYBvv/4oeNHSxmTjgr0eq0c7VYrjZEubBkw+X2XwgS7zydBuvr/R98//55/9KnLJMcpoFzR2q49wvgj+uhCdgyUAK6gJMwFg6P/cVD8QBd2FABHOhYl+FYfWWpJRxxB3pRrwQGHa40qKi2QRURUDYGE6BUrJExe7zceUyyWDzgXPGwmLAWbYSEbf70bKFRACQ0INRgAZFAJalVWBVRZsSAF4HWa8sKOigC+YjYkxay0MZXIhYVS86tfY9og3Bj6iHaHw/ewlrZd0R4M2EFJdtAdvvjZ4mB2DBLKQwMpUA9R8H3sHhCJcYObEsdpYCsz1NdDXeJIR015U7cGm+kywdCpo3biItA9EFbGa7uEMq/aSOztq0N2zrOiM5dzX0sJ+HasVKBvpZ4KsgHA0jsDNa99S4xJc9V8JXuzK6fIl9eLlB0OaTGBxrzI/AhVpK/5bKvS4W4bADhsA4HRQ0HYBe0M1o5ZUJI6V1AKCJri2F3qQ4xEPy4A5Bg+tkBXAIJ33FXsGliTdbaMY9yp7YBwD5AGVmaPBQoCSHEMZg3zHHOPNcD4yvkSjjrsip0UDrm81gTNdtQiY2uVQn23u6UzdnBIc0iCCVcwll2pgQ67Zb2Pmx0y1gxToI6ujG/2H2KgpIWg0uIIs0AmFibN9SHbDx5h58FjjPaaYKYTe9jJ9+g2jaxMEkCI3j+m4b+3ex+lHeXiYvzIFDmwlPbR6xgpZ5cRTy6pA1KNYJfaBT78/HsHvl2J/eHpQNJ+d2EOI6HLKpaPzm4hxfIFJSGAHdtPcA/oyAoDgdGgSOe3JdgotoR4s2H3jcvsvvUU+68/w8Gr17j37eeY2qPe2QKkgUEixQGB+0ygSLFGR0G5QwNO77CA5K5nfWMlRHOKpgjI3kyuVnwWec/xOBDdtaswxkHxn4TrZIzjcMQu/6RDM6mQXYIVOgcLJIBAWYw+pocsPwig0gZfYJKHbIGuIBPbDx9k//Wr7L1xhf5rV7n7nZvc/d6zHL5yhd7/P4BoGtIEi9Qr7gzvFYBpnLgTi/dR5TYVbf14B1SGZmsdZ6PHyTZIiuYdKnRbS7n0+LsnwAcWu3lRNX2cbIPjj2F2CRE6D0iBSoe6Y/8QSPLDhkOo0CV9KJyw//oVDi5usvfG0+y/8ST3v/0+Hnzz/ew8eJhws6DrPbouwNXPEcB7RC7WJo1KRVcrT9o46piVtlCRi36UCddPNqs0mtZDuGxveQWRQNqqF4bUuWeBhj+iLvZmCl3ZsHbJMoTixUoBgdLt2H6OU1YzEATGINig5A7pUuJp4eCVZzm4uMneG0+y/+ZTPPzah7j3nefYenQOW4quV2wU6aDwzvBl57LHEyEYrtbKiMj6ru2VC1SLwitbDY8yQDvYSExvhfra96Kigg/2uwBwewix94jF2EHGrhIpGWSnnOPygBSoLDFgPAJAEhSHd7QrsxiEAOiqhBMOv/cshxfvZ+/1J+i/cYWHX/8o97/1HM3lMRf0MoEArEMdJtGRdJQrplyrV9p110pXYJp/HaD5v+kPdRAHqfdm5T9c0Uq1eX153O+uj7/+/eg1+M/ofncECsOyk6mgw3Y6+VJ2aEphTRoryXo6hG7mjtuxDZv+7Tvzfpa8rTYB2Q/3Y3q/1XsNy0Pdc+Kd9pBS6BGjuf3kEWC+JP+9goQ4VzocbvL6af1u9u90FhHyRx5JS3L5bWCoEqoVp/Hl28vCFn/LK/DQbPZnEwhuhwccbvxbsk1lhtmdgIrPKFICJBhFLNEOAicQwvDl2/L9I1clBUdJZyk30/tZ7kcpu51ZhjvtgejsDGng1R4E+TN+zP9BIcBs6SSz8aPHwqITWgv9u3Xy5RpqBlC9guk0GpHXxkr+hQNPsu5VRgs43Id9wCoMyQzsTEAEayIvkAAijFiXHQ2EC2CQMAr963fyaMFcf2oFnexnvY+Y07qH7NoeSbd+kFuPQUhKxG/xc72ehGLJ3c6jhzACWkuFM0SxUO4nTx+CFXB/ebClL41zEAkMtPP6/RNwzu2QaNgWNj5jxu4ExPCMb5gESPRFmVeGT6tBTxGF6TAs8GhBU6Dea7AfYWeAPRZ32hNC0uv93d14DKJISoqf+OZerxiMlLztmsEgCoIf1WGyzwRbDFNWqPv3awk9WF1IY8AwsTeA1yEKXnam3WHHIiUzsjPIjSZfqgQQ+ZTLumr4PKAQZhd6T4j3wThkaoU9w33me8Wc1ZEyUkrcoi83auK65PT/8Z0kIaBzxZG08ZoxuKStNZzdV1fBvNKlexgbxLFC79KNje3jb58fv6oyu8f/92NAttFcbHxGfyk7Yxm3AbRHApGXhTo1AjBg6IN5BjEUy79Q8q56l7KOCcNNGhB3X9++qGS+p6T0jp+EwFfKBxiR2Git0rZGFZ1cghI5OgRb4gybiPTHox6w030bVhtjtwKIE0LE/p2hy68ODPm2Ky3xVBkjpAQQRSRuqg+GIAo9KL0RFQxAmRAypZZ7RQ/NMWqyYiu8wufmOPdkVUlIJKVv8dNEnUBcgb4jBQnHbNTGMie2ijYq5GAyvLtCKdT+8H/v0hzWtyHAnLv9H0oIY9j0l4CK3RIvw3YkoDJurkB7kDIUudyzBTyADtJwAAdBWtAh1l9FQZ1yr7DJclzj2zRICIB7T6CoNd940/ti21gRp7Bonw6sZ9sUzgSqv1To8WSr5/TqFquPKBVe7f/84Hw8HrDVeBp74Yb7KgWJybFrAJtRlWVXAjpGwWqPBJGPbW7CBWOQw1ToDHIFQrS/p2VuQcpSCZO8D03HQcKTNt70cWcvD0CX562aHRu2diSGtglwUxNuvoypq7nTm9WgqVH64q3v+kD4Aqw2X/jSRTgUGsDdhFuD8BmzzbEbhpQnR2kPUqLkUn0wAoU2UEOsq80STdwlWWvONAGu+v5xFobOxKZvaS3pOvE3DQmcsvVaA0TCt/LsR2vIJyhfiSdM91Z23vfqfuS/6FN0m10gjTV/9O8v64ba7X9dfSAbqRc2PiFjRwKOoUBrJIgymA1cMAQJrSeM74NciFMTEb2YYBQlw4UVeUs6ooBOmTA46ROvL6AG9Dppz9tjN90mGiSgEx1XEqoalLtrXXWL4SErMU/g/Lh4h7i2pLvcheJCoEcGY2a7cW46d0bCJGBb5XLrUgoFGQ42dIJyEufTcRgBFVCzIMi8NcsEJ8xvpaR3jCvQdYqPVZy69YahrspMB32UBHB2xduit90PeEOEQn0C986Fd/gZWexIipuQl+Gd/ojhL5gsZBesUmEZSntSFCnhQxcwK+wHFACRZKRQJRoA6y1+WgDOpJPedtMnrq8lXaX4FDHqbfSGjSIg8JPiAH2KFl8NJrnEyAf7ZPV/A5kxT7xT8m2yPXHAMneoFgXxE25dvkPJcbMT02gUBLRGAlGNq+qCIeTGhqkXcoj0LdhKFo0QLADY931/b8nGwI2kT8o+frtGPoBlNnrrjQa5Cmcq6CPelzf05eMHZd1cEkpJy/0YbO87LMqhtJ54355FnDjwxJ0TokclQdTdhBvowOKfZcGg2gG8RqNArSHyDLkOD0xBCb1C1yDvJAqGATBjFSIFes8ZvWNT0qbrUHyl2gkSSt2xOTulIjE9g0PloNO8/FyskjQ0vbAq3b8KGfPUmYZXBT7ZVqCE7AiCifsJa/EzZyoLNqT79iJeWK0NCWY92VSXGSYCStgNQokzACCsShlY7zG0fXo2kW76OLZAV8mHEdgZZuMtsVTUMIIHkYDIV89pFwa3uG0Bnzh9AOtdmodpmg07AxDul8Q73Ph9UJIsYAc8ihtirSFiFlyHxwVyGKRhD8aeSAFDBFJhzZEbEQr2/T1lhF6y2ZSW1muJfXx6hZoJEvLunh1txAgOIlXsiU8wk/sNVWAahj1Sz81cSm8tOkZ2d/VAZR6maWrsTAoa3IUbw9hdWFTsFjo5rB2IXaC039onBpmGBBk8vmu4XmH/gupBDAwKWMbGYHGyP/39IvuAuKrlpviTcp3S04awBEmDd7s9cQ3nIPKrZW/CqG42y7kbstNboUyzDNx/571PQFjj6PO8hqVbVUdFxE1Yy9YLDcan30JHKiwzrPYnv5CsxrXjwY1AYWsb2k2Ugk5Kop0jEYQCPfQq4W4vV9iu1zcllfVcJR9AKg+bNHirXSKGRz32qYSULvmj5Gz10LiDTrISuY/cKkhrjHcceHzzpaPIgCT4JfHuocNXJscOPBLgIihriyRRimZDB6Aretg/6twH5SAGB4G+nTKSAIF7Q98+hcMhAGJ5U/1JZW0VX6GK8aPFgnEjOw/ZTVqLc+yD6tknThhPNqedj+7C/R/kjGQJ9b777UcHf8+eQsliSxTA3Mem28gYPoHK6XwLHZ4imNZIYBlmUx0WbMiTYtvEKP87YUqia6K7E5XF4MchTFjU9ab6OoYcHOCh1wb9FEaQNIN32jE2mUq4bHrwgnrNy1wGU5S535S02I1uv9Ropd6/tnO8mXiSbnPvoSUs+5d9V8Am6Mrino5blSwJvrZ4ZjYpxjUUDnT9YgsGz0uyEoGgrLFpazfa8t2ANXd39tFr6gAm+7hO87Yb2ZcEXZ/KaYd/yAZwxxkynN2J6+6l+6jC5hyyuzz5oXvQBSn77mF0+6WWfY25dy0gN7yZeNZsLdAkdpRNYSTEfwdm1382thLUoUjHgRuDbDi42Gai3kkMjLSOdt0dcqXc4PL/UUWjM6zDPj9iHJfbmqGWOA67OvwDbkKbXlFDBw8MxyHHooAqF7ZDuE9AytN7h5kwvNa0TsLrF4mj8dqbsJXmmGxrVXK6zXTQLYnHRmOzC4Hhd+WYpdseWFTRUuxiGkw2CjpgGVtrNOo7SgEbwkmFOHjbo29RlNcqPtda5zh3caa2BNi0AW0ucR227f2pDSq6SqI+ivb8A3XiDDMyMDjhEepJvnUSE05+ycLMFsnT20suKKGOsv8A1tJ+WP30/qtn4ID/mFVYNrta+C10uu6B5UlQv5iilGJoVMOOldB/xzfT1R7QlRhY39629yMF4xVy18c5jay3xFnf0miVNb8clLQD53DbuxptzQKBGqCzF85LsZPOss+uqdItTfoM7Dw0Jh1LFYewqvdTdGSfQqCanZEAXr8q6u17H7wHAeYVf3AQwGBzyGDjjgV3OHQlbJfPQnXaquS4YLW2M4YNaqK9EaSDavmKieOehRSwIQa2bW9FlVFeKA0KA1sqVBG2BEZytJprNgpWk6ChwqwQmhn30LBoHic57uAhA2mTbekM/1AzEb2CCco95+NDXsPtktQa5BZyoyD9441T2s3+d0eKsd+xfQio+CmAo9M+unLcag1DZVg2IXCg96d3g0YMrsK67/VpdlyhVTYnBoGBbZSpUgFaZVHn1qxW/gDVmRYwwqqw3aSxtzG30a4DnFmE1daQp0Mi2bPcDOvaWu7BJ3sJ1m1gUxIIB1bad5MJBLeEThv3BiWBkJnSZbsjr9ZnuJQgyqY4tGHnpiOtfv+Eke+mWgnnUDLGF9duDBMRLDUBFQIjNZXLBPbRjwos0emIJTtiHvy4JhF31LhjRjsu3cdt+9xns+udVBdlXpDC0HYPEmwE4P0Pxo37N6/vQnOGji3Hu4mz7jQACpZ7yOUXoFk5qg57qFzyUUBrRkWm9jTGxA2DZueDx5bqQQROAE/r7RuUBX+mDapgmiEbxmUHc48L7zRPOBzn11QswDKJUfGOvo1KNe007qzqQO2UvZeYhuEZyXPjFpwulbJfWdeVBFJ5DHy8I3CdZkswcFswtpvhIHz5c5EOe2ByeEB7+3CmgX3LUFTbsodkB57zxU4gCi9ljLb9x3bMMECLjeyQ5pjbbOk7Eyi4JHMOqLUmcBO3m0kZHZU2ErNnHmzBqOiiuOjpk6E+kjp5svcF5iWz0xuwoEBe6Z+bsN5lBsErbvFeAHfZRGD/sjvY4RNyc7PLPhJEKdWxgRlDDN2a6f6bZl1oDrEY3x79B29PCLNK/cIiPdtpfrfnS/iwUzVYPNdwAspEz/UzoNYAS0e4wjVp07f4Gd/x/+M71jHNozIqRq2sVLUmDEIkTCjJ5qDzMa92sKFelzXozbe/eQXiGsxN5Ui3FGgqN8nGsPEJrjK664FFZUdXe59RE6aJMliBihXD5pcce3SvifqvE4zCeTCvXb+dW8EoZAonzas9L9hixjJ6C+R15xWgCUANkISwhAzrWt70ju/0vsVP+sRPerv7RWCBWmuF2wf1YZCnG2GytW2Hg2crtDF4XQ4hV5AX29L9MTnUaux8T80Rd1M5FLxzb3SBfMqEiEUI/kQferl/J8KWTRqzuaFfA/ezNM2XiRRuSLRds/XbAWQj6gGMiZtATD3X0ucPcaBnfQKPc+LNXSVACAjACMe5qbnX1VxyHc2PA2ZIV+HIRp74N6mWUXpxVYEbDwBafZikHmL0/d9h8b/yLxG5Bnd2JYWpnJ/c3z6G7A2CFzAs98tkEnLX/HTXQ+giwt8fN3DflfA9gYno+WotfWDdazI2zTnFRsQNbLF8J9O7NycCwAFwSlwLP+O8/ckVVs1CQggr6RRP6qkMLwgVoDAiTF0lsuUyU+XN1OxjD/q1mlsKW1hFkICA53BlLiYYWo33gus8wMwzdsV4XcY+sxuGodlVuAbfyAQAvnX4bACj3nZL6EgC/cvuCPiEXE6d9ZF0h986CAPN3V7asIE6c6Gp4+9d5MN1kdb806bn7p6vxjRKtbfHFLXYBsyz2mCH061AR0ihImhHApEpX1Lg0V6APvckb0lQlIH7LfsPl3StpvJWpbLlMsrIvULf/K3Qo/N6WiygyvpgJ6gzIc4A0ziD5ZbOgcDLrcvmlFTi2DG5cJ1V78/QEX2ngITOtNmA4cdxRz6iq7E5ugsHhu2emtvGT4KkcTW4szi0PY660piQaIFt6jsZbTdHiEOla3Ej+LlLS30U1Bocrux7f2rtL/17l+E67mFr2MPWasoNLsA0NcG/4HSZRMOlJ2DgNAVONY1YYUvglh6zDlVyai4CJ1hST4yAd6ByvVzDJOrUxMYHWjJeYhm/nm4QXe58C1kJD9vpvWvXTisBhg4jbyUzIsFtoeUOCV85BiuPddWDpbtIECZUwuy7du8wBBdi0fnSax9YuyEzBU3dP2187Dhfj2kqtXeAeKOfIV96HM+jotawigWiB93h5k9af1LSpvh6fVO9von9tZ/YpDWrAT0wCKfNgYF2fvtZyFf4ku8NS96vnd3HyUwDu2+q33jxh4yOw3PderKfNhFyCDmPzwgkpMDQOe/Yjw4EEHX3Nn4vGYQCFqardIfCXsanjWsctiEzJqcNMT34OGsh3KDA196cur4po9v1o4QdcNzxEfS5CaM+6lFXucAW17TUtK1F+aZtKale00hjLUBHF/9zOHHkr3ry8QoCzOb50c0gOhvvRe/yVN6Xey8HHzH8W5WoXkwiwkDBQaFI83YULDEnBJb+nf7wCSKLR9XRkCUCGD5l877TYOOCQIs7o4d7jifMlyKGeCGaZOj315mmUsWxL1GR8Nb1o30GyK/jtEhFe1hpxDVObEy6kbTpE3tLWFzrBgcpvHosBqju2u/+QXkmST4ZXwJX8J6eovtGtmLXa0w+sIGyX8iFG0MtAV828K6ftTDjuI+EDNYpDzakm87dQfHL+TXuDQSw3efree2DS5xq1kx3P7A0NI3PL9adezYHUbs9+Mbsi/YMrLQBagqWsLXXdYsb01q8LX2SucaCQ/QjVGkUrhgbAE7I5cYLRTZ4Ock6+jyrN9PneB0AjMsp5dBxev4qyeZyKJCRN+cpkABui7uNLlgSnEgnrSeVLgifc+ilHxGCO7acFkIcezjWmngd/PcJTM36/W2Bgr19Ws4IoOveNjhyIawyim2sqDHjHZPeY9Oa5oJ0rAszCaq8NA2ilMYHqDtkgcPXw/Ueind+ORj3x3X7qmYOBebbO9DTAVB3Z73vRwJBKXDq5pAoh93wRxHo7xqGPU/AmBt2Y9dWjnvTmIC6UyPrvn/a62E0J2b9ER5tGHrNfSjCWkbQNG7s6DYyKtZN44JgxDGu0Gf5HYvnm8HZeC94w6aO2LHxf/0eosvlRF0EPY3P339WkJBDwV/nCwLX4e1ggJi75n637G58AsZTbN1MlFIOn4LYbCoIF2KEs7PT9PEyi9CaBwo8o7ivl+zt6sHcjYgTKZheY86YHk//sldQt0yaUWPGjtzisW5I3edx7fMbfT0Fvm28C5R6CSN2vZKxz1jsWK2QU38RnOrmqz5JvSmBO6Y7jXKPhC+cGSnoaMwSCl8ldrvsDX7g4bRgHaffN4a0l6PC0ujmvu0a+vVZNEf7oRIbe5X5YNoAN6F63MhwRsZtEdd41IafpbS1QPETZWh8hPhrg9txbbTDFg3t7kybM7fGuLe9s1ld5hupE78F3rkNGT/2YeumVSiNPyab2uyMbcuMMxdaHdgbevMoqLgj0Mbnp2V8WT+RsJfo4ivwAiiKOCfsg4A0iXEHjQyMTmPpcpSTMWcvooWEbrwT/DbD53q1h9I7dxmqWaJ5+9h/Z/NIxuDJltU0N1tsOBsA3O3p3RgOig2VP3lEF51LIPwxx2Y/fE7roL/kVNujnqxII15gT/D6EiDUjlPQlZUC4MMUT86o3Rl36EhSGhCHgeM5cdEL5C6VVneCB4zf5q6XrY9sSsiB6BU8A5EFwP/M6wLXmHnHfYyLOaJ/szkS3nsXakQnY5aguFBQDs24YdiUs1v7kUcLpQp5Kd62M6LtPMa+HmVzIgkaDRZHG3w94wJSOaqbNHjIoKHjcTyi/PQvLwQMov1Dke23eYnRJzaF1EUwR+G1z5qbNTPwcSGZb0qCexkQFTcD4ROUIp20xsW/K2uM/a4KiJt8ShdMLj8Y05qbkUWjX//RrPrGPAcP0VR0JV8WDTFCSSd1YMhOAylpoPik6i8JDKJS/4j+N9T68Krxq160HFCPXwXKdB4Fkr6WuuK3wHKLGgn70GSTH9HBtIqRIGzvvRFOrqIwB22d3x+jSU3cNkTw+rQIADNOXD+TQiP7sGbiDAyf7TPeRBpFKsw+vDQwCHG7pzNstxgHOw6f6/WeinfYuK1zNGW3+pweu0pFyzwKzmw22+gZv0XE5k1/hPiqiho/XUwrLgmll97YyT0YXWiXHG/GwdicQiLewJRada9HxSyNIIkieu3yxULyJMbP9jXcHSnpKKJw2IsEg+wCbo3lnWtX76No1INNIddf/vzO9TvWksXMPVyDN/wWgWFz2zAkCU5P9yCKseMIo8XBEC6kkZxyNzR2k9cAxMv82reHObhtDyDUVruRlYxpJa8A4zQZUUFcvyhSJOQMX7s7ZJfRabSl71b6UsEgKvoX9e82vTw30z7wW4YtBo6ge/bL5qokj5l74XUBcL/I7bVRJDh9iojOWVD8tY6QZoZdDMGEGDpfdeiembe2kJdJdUIcNvuteF18RtX+CxFABbrWNqpoDflaqbvZdusxCT+SWpR/eNFgEAlPL+NeZ45fvBR7n/eOaEvkxM04Fs+CWs+pr8wzgcStDbldDjeUjJOFRHXvnPEnDJsyYSh+K1lieH8Vaa4H7kRSKrn/fsT2IGo24uTLTtWw4kAe4bs2SWNEc4fXVlt2pJuOKhhdPwXDXjgYhKyF86e2kNVg87zc7sEOVVKaPztODt3MFNMsqPW9h/vtMODP9fOyf7l7joRARTH5pnSt1BYg/HMhmLrqxhbNDJpE+5VTEym8vrY9xt072R6lmgft05l57AwfWZvYnd1n651SQMJNnxdUWHxE2KjavwhAnSCEmcb10hx8VQTgUoYg11575tpVSSIF+4cvBhiW9EX/Nw7DaOM1MnaE4zUqDNIxS8TJVg3GOJq4oqHODI1ebZOOPIpXOgdN0+d+U1w3z4iCRun0EOXqvEcQCqqE4uyy7eaMSVakgm+nU/elBDlsOL1MPpNo5kWjHTA+ResAOjS3leTgnM46XjQFFHBng27eGZpAQnowxoHpWPOcAMWeUMhoZFzJSLCEXg0GyRl4pXPEocwYbqwOS1BzdK/MhiAmXJ+UHRs2Ho6RBKatstkjlBeBEt5idLLd0BDt5sXelN5J/I+Up+VQLiW1To9bA2zsX56nI4J6IzxJxHa5O6L4TiVTUV0LzOILxhjRwnWgWMPOKuVxLmIJbpu8/+6jPWPFiBrUroqaHRPWJ+3Wa207nmOfYq+kyjBIfe5aEGr/lX80NTb2t/9057NoXNHULCn79VFzIJsM68CJA3BEdHPIwN9Wrr2T4hwmhuqYhRfCZxkhINywcrCvrTI25Rr430zyaStNJayYta6HSRsjacdnyybbjLbCMiX77eaJQZU630s2vHoblK/A8/kzdW8YNmUYOI97IHIB+OyHbiaAZbwQBDC/9nqMccp4ca5zU7plTbisdZVqJLbDsF6SFSN4mZfa9jFFKfa3E+WS66GDIyvx7LpmkxE7XA66Nv12r0WDSqSGhjro56czbmAA+0hP5F/Y/tJeL8mEchutzyYTSAC/9q4ro49J1gRMx/5d41RsRmwqbAWlgbB2ZojCHcKTtZPZi/laWGQIvg4a85JI3rHWJmPSkcTe5zntVCemd4ZF/50C7oDn53l9fvG/8Fi12S3y98386siEctu+tX/LdCAIqLu1dbxEhlMZ46PqlMHwBRMq/AqKhMRULfCyBrIZSbgwFdYKZ6M2fx/ghGsNXnMbNo1o81Wzu2ptE1HXvpueXgXcwdufPhnPF78n6TIxejrecvTK5j0ZcfvlOwGG4Xm/pwLL6+VwyRjZ1QSlSwlDKL5aqbQAbCOUNpQboHgpM/+fNu0ZUYev8u4KtBNQZHsf2SqOKpXUpX3BYRDpv+R8N8vAP306QzeMC8xYRuQA3nz7YbkmJ9OpdD5d4KtCirJ13HZFUUmwJubpkhORoBLYaGMnDRZIhoSRxLscQJbYPV3SgMYqSbitzTu+1JJ2fezaMVRmCvq82DBI93CgOYvJFwNJGvPyOi//fTTH7a+RCvAvsCkZZTS23eTFrFckUXekx0bvvAAaLAmWv8aILg1QElha+BOJIoWN4A4rMaoW09hIoebxabOW64e9jfs46zsknXBLvsHtlxwG+RzcvbqTzzdiCN7+9InhfH//8MUVja3Y2p8dK2f/ZJQe0eCTd1fgLPVqBDD/Cilz0kFMgopb3wsvwmmTXVLDJDC4AOYmCDGcwqop63vYiL9tgjtnPRyCYtrhgE4zCBKEAlBwad5f0aUFoewiUk4I+PaY1+anh43a0H/c6wJ6Dldgcz4TUvZwk1AZfl2AN0ep0RmNSKCd3ZG0EFQbOtd5nLEjwufJnN+XzcYW3sAjZ6YpoRVCC5rcB2ndAyTBeMoJ8owdoQZRaQHJBiVmfD35/O90n/ZJeKQOML/C91pkQpgeG2ta1qcSg0JwLw5eUbGOnSrBqp34FnYoqDMg1t5yDRosqnV+d2h2hhsF3s7bLKUBBC1Dx4PdmQyCUrCccIYahOzFp3P+mx7Cqvs+GNY+c1/EP/Yk/SfN7331QUJPSPyzMwJHLXktBn4tU+b4cl2K3XXuWBTSFQZqJ5YntT4xTJSB3rTuzjJvjZRMax+0pxhMwSq/c9QgspAw+anXnx7S4R9AYKDl9tNnJ+Du0zUltQ43QiV9VBQa/KicPxMnEgyQrIUdZ5cs3YNKsL8zUIlaoHg+L/Khqo69y2MPSKYo/0FqENX0w+af6+Fy+pxT30Pb7iZtGVq/49PL3zfIlDB8gVUb88l5UpQ0gPv7eY67FIEx7jBROM3po+UpdH8HSgJwk5hZPpJOYtMHbUgEG85yrXdHqUHIWtCR36sD6r6fx8Yz92XWH+UQym/AsZ4SwP7q5ljggCUvFdA6SopTkCAwYlkv7qAeRWzmehAlWP2Srm1O4gC5jXpk1R1Ep6AiznFq0AK1gHv1y6HY08iqHPqi7R2A8w9q70mJws+BWv3EMScuRWBzZ4iQ3gSEBnNPxceHA/ywN6w7K3EAHljlcYcRmoJ99MepQbfQRT0o330696v9Zk+jW47Y+xMjn79UrskpNZabzWOJ6yW0s0ziXZKG83l/CNOfhloN7qmCBJ1HZz4XdIJDPTse9lHRJfM+UA1Cnp4w3Hy37utgaDzsaVpa4ce08l2wgv/snx0pHIfno1DAceiUiSIpBlR20zC9CUYydACgM+Iig9pMbIF0Nl3tWkmhTDnboWrQAqXAZInLXz3SNWWXkTj7A9bp0toV0/u0SvuzEsyxZjkKC5VCPH9zLTqkL6lBAlT8MQoaovU/CQ4krfchm+Hq4HI+CxWD2KBF7ALuk15nvtnTtC4Df+HFt6+XSzktUXP4eOK8RPAvFJcK18ZKkbBZfg9gqH6EmtcjZCCUCroJQeVW2jih0Y9dfbYCHUSKMMZLVvAW2YsNsvLdYh+MzT7yvhy+viD645Wcltj7PwEuWPLLpoBYYnLUoUsCye/F6klqDWQBwA9ogomZ8IREVrqfHeqRTTshZ3yEGkTVxRQomnLx20MTuu1pTbMzevb/78llMzd8P6dAAPyTObwKpan39ie7zcTqS4v74lwIrIYqjxEYWeWhuyNpSooD6F6sGITY8PSUcB/NOd9vwWYxS5+BP/Hs+7fL7XI+3mx+Zr95UWV7RMAKrIRZJgVjkryL4t5dVeLVi8gKpJSId43WHCN0ZJX7GSqXtI1qYJd7yLmJZ/kJMfludp6NbY/cb7t0g3xzJScmnjwtAUN+HFI2BSZz+RSlSgIibhOL1YsGsgh41GsQTuioBx52kBziU+yAzAYG+SVLC5MCv9bxy88+dEUvMzeyTtnl+X7/99vkpDi30ds/mhsjQgJeIFTO2lFTl2ZAhXMnFasPISb9XV4FYh+414AmbG22gxuPIGuRAkPkyHB7OHu+3zNvwJxehvorRj97sUGmBjBQ2E89HgP/BOWuWfHKO5HmbbAqTZFY/dcOD6jQ6epC46y4351L2hYxBi0s8t2S7TkHwGKvJyhjxf63cP6r5EbK8e/9uVQZ8xsGICVS2FObFIpJ9KfMrwDVdyAqiKxuZ3V6ExxIXfWbd5YK5nMDMMjCzyxJ6IJ8kyXcnH3+d9Sj2Yc9XVMOHrVb/oLzd2pymBxesNrzhadysjeiJaxnMKkGRvEKKkuh+s4ClgkXqk9/PuCu+OatjmT7L4pl4ME1CNm9uuSnxjbc+2C63B+5L8AuHXu/4M1b7zfI5AD+g6fPJzCK+d0SxMa6Z9ShWwwSOUIBo3D6DShAgISLjNiXi9ZFfiDU86j79yZYZ562e825CV6mwLRkUjY/50Dsc207mkO0+fb67kuucjC/MzeuFyA2l3lCFSZAsj8vVXknqB4DIwDFCFJBZ4wWlX1aY9o0ylpfWUP3tlIvgMWMQYjbtbcFNBOViHhz9Pv7xGdo29ODOOTe7uhfuPtLTQ9gvPzBAAOW/qQBiAXYc3WX/OIdCqQbcRemugSrt4ACapUYK6e22SvkLV9ZiY9OuQGvSxqDPMt7vtP+0teJ7utguvF0SC/Bz3j/2uUGmaHmbeTLCSApAKZUZaNOJFTXiJe7pFCC1V+WWgCDKuvCG/p1Vu84AVxsWPuyxiBe/Xd8/EK5J6Auy88+kOB2SO+DfJOikiH+iSOBN2z02SITl9tycZX03VC+vEC4BEINvQTGEim2nmQUBeLc823HBJhik1csawxC1vJ2KtBpr+vhw59+xn2xmI/EF+Lo6uKGf+HurzVDPY+20Sr1RQtASkxkd1Z0giQeycUSkgIopHegFoIOVAnDokNWfN2t5HB9rvZMMu4xi0c12QRh91NNBgmYYQH9GmO/3dWmKE8OrP7nhw9/mZtdJTw2V/cVKl8i9R5yVznZHaPEUgEKGDIk+YenHnbou4J2t9vXsiGy2OjLroPKdeG9vDGI7bpofs4sYTn/3H902efadrR/JOv68vK0lDME+LOPbxIo6Rj/J0GReJB1s2WLSV8mYGVVkF3eERUQKsMkuUs/iYHtBCoYCXcaQvtNFU8y8DUP6+qUk4y8vDEIeRYKtfI77cPdz4bF/rRzq90ZkaM4A6g5jofpUazyxPhW0iOBAFbCuuL2N17x2saeE5i7sioYyfIrV06uvIYESAzCS2B2IbI7SVB0EZ9RGiYQgUDivl8ZW1Ds9xLHICotQ6Hl3xbiaeMwaB+jhPoFfHFn23uOm/4tCQzB5yMUiQld3d2r4iW2k5kRV/kUKq6xxgwpmBrMbgzc4EEvQxNUtrKJjvLYL3ejgk/yIscgZC3aTYHY8T3Pf1+n+2kftFdTaf7Ih5Zv/8bqrIn5rTKHX5/HuaAJ6kXWyfU9v5itrbQlXX3SsB4DALqNLy3NBZiD4HAVtLtfugopp3X3YsegpYXJJhD2k6mDf9mYeob8hTtffVNQIcvNyQckcIH0czFAYgk4qnbzvcwBsq3Cea+8jn/0yRP3dFYKgTj3n2+fcYJO9HFQfkfaSx2D2I4F+bGhYbn47fO9ohdhBlWEuv/fOaiCPDJmDxqYfSgraCizaT4rj0i9xQzbt8d4Nb+IrD7yma1CRdFUILCUMYgeLUc54dht8odOgCnK/1fprH0o7LvmELamumBMjJ4tUjlwaEY/1SbNKikiJSAyPelUewBYkhx/1V6vu/myD6YhFb6tX8hpKo3YEstkkzAdJzvNvCgCwP70L8JIqLn1fwZhKFCBdO87/1UnXR/OgaiWABMznsldBNX/RgLnqx0tREkgPd/4mnGCKqvtMx2P4OQNSoFrafzOcPeyOBxQgvXFsBgA5JxNJfEyn2ilXUkt0SIMRo66kclI3zMY1P4j5V9v0LmQtT/NZjWCvLw61R/xEDsN0/LNNAy/i3OaHkLAPte2G5bd3hp/xdfW0ujBV3d5zIdyAFoogJ6WK9H7hlZHMy6BwPj6wrcaPbQVesfOyx6DkL2JnV+XCJExl73FARzm2ir9oPLB3VIsOZFzbzrv+XsaY4xqLNMLx5H1vgWTJIddR7q2Pbw+sdP0CjkDz1uEoOC8LgfvXOBPx8Ra/a1M1z3t3EII6bshy07fydfWVky2HxRIAfRBCwqFK5WrUR+s74NYJ98LBA/zWfemIbNQyBk4wfGIdhuDIJs4jstq3lCBGTR8HsAkWHR6QsABY8NoS4HDr/zbhmD0Z9MgFGGQTRQzstj1O6KLEA1+0CcNCi5WywsDgx7y+sIZvSM/HGTkf6n2LHuoeqxD2OkNnJ9mgLnh6PM7B3RsHpSEUnGiyOQLtucSAqHlTQc+vlbLCanry4872/GIsnEyhuzY6TC+0/ROjf0vA1GErWKr7hlu0kV7u/NrsP7x1T7RNdmkzMQM5nHV73TuGUOyOvjenxgJAwSVEZj9BYBBlInsWmB6USK8M9TFoA7g4F9WYxDUHj3B7ss6sWXYyfqBNqPMIgUpxKLkitbr0WBdexNhhn6cVThh976FeglvFgbNKreyJQkdq+Rl5Tz4LjoOJWdIbSA73YDnvotsMFCB9J9+9/GcpPdlBbTYSpKp63E0olMGkZl77X2LyRSXPgYdgcre3OXEpBkLqnAY87kdSpYq80BjBsz90y/JtZ7ezHXSCQ+ONzRNr6oV6w0Fg3a8HV5vLLFhxn70/chhi+X5FwIGqdspEC5grf8U3fRU2EEHBMZFN6A5zaIWcS7nzQfvRwArBiZUBbO/glSwYFv9Ax81uJzvKwGD9ubQAuHI7UgW3eKADtwrquZbg69ZW5zk3vFOtyUrcgoaynFZWSXS13TINXicT7kHlxPvv5wxSJtd31uX6LNnlN8ErOap6sA9C3ToBzVHj7MHYJ3HNZ1JsqExqk0jIuWUlaYbQKfqYwQgBnUhIcIEVv5jdoQp1iJ6HWCQn9Z8mNHDU8AUcBw287mhAgfuVUX5jU7A8qyIVwQZHfa/6O1AwbiRKus2MgemdxEAhunIq+lJ/nS+loYW8309YBCydypRNkbxZ+ByHh64LnSYAF/9ZiXgdmN0EMC/trs2wZLF2aScEYaJ3LVZ5+hhAwvAQdaFvXgb/jQbBRf7ZOqvCQxSx8RT4Ju4EXL4i+6BpdABqf9H9sFL6HxdTFY2RoURyxmpGHBZdz1ejOhZCKwb7WvbF39uUqCY7ysCgygTz2i1QOkY+deYi3k4YPBisDWry48NB5oXFSBny1USawQIL8mmY6oLSvP07nHvSRrq+VvxhvmDBwWYUr6vCgxCdGyDVsAcNIs2U+AAVaBDJ2j56B4JwnSMd1Hw0dXjjdCfU0BL8ulSbW+4PGyuRBv69q/U1h7OHx3UxYcW+qSYrwsMonEsVMLM/9DNYpYDhgiklu/CVrcbupG2O8PTW+9ZEKVVTQcpWZ7GsG55+/538eYQ+7NdPauX+6lfBOV68V4VGIQosYDQlvtHURBwGGLe24MOZT4AA2DDky+zB26dwSVHDV0XhQQkghRl1FOtb/XtbXb5cgimNxPasnJq4Wz5I49TrhfvVYFBiBrp8svKeaRh5F/ELM6lCjiUvCpY/MeBkkAEYrVkZuFtUDCe6Xw5X9v0+AqJhpBeBAMDgmq7LAJQD9s9fzCeLvaVegUdztNS3zhD8vuEOZDLuVE98DxQxsPcP/yGQLG/LEYHWr/smVZkoioghRUu1PXuC77i9fsmPimaQEhvOdfSWe/9qK9Icl3y/YWcH0HE6vVOC8ooWjOLL0mWszwwyAjjnj8Dz91IrxeH7Yea5+BmiRZVUC3MKjYft12/xudV9+F+p/uyXSS2hUPfOWMlcIaCF7Nt+yfWKqd5d80xyCUu+E3fICxUgpCIspyfWxwH/aTKLLSL+TASgOJEmRCTogCGSGFG1WHziYRk7fTuhe/F+459fokQGUBIn5Emz13Kdt8/GhVcLNrrAYMQsHbw8rxJF4uiIn6M8mVT1nN5YB0IMA7/AD69VQK+F2a3mJN2rADYEs6XxohosYrzhKe+J77Td7mjZDHCwCJqPwUxsp1NbNj03nzsF8kSeUl9atTnEHKzW8dy7tphs6hQOXWbuS7mpW4H7cArbMVytnoDzYuKExjvKmDVknGAqC+DX8aioqllOarTvpPdmY725eOKEoqQwYCCaV7bbjIv9y7qjhiX6YNPvb//nWLyfd0Xg7AOAtTW22lgblDrg09o99zdxQTZbKnjLOBQYZ7NXEIPKAPq39D++W0ShBd1Y7yL1NN/fDwndFlgiQB1OQYiEoNkjGzSDUdrshtV0WXjYDljBqhR0ElG2KkAwqcbJZP2zsQlBwEM3r/47Re/Nrxqku9D5b4gsRE38/MzQOR9NBAlRwMQqk0SQeKVGk1bu6HQXgsvCEdYpByak9m3qXX+NNgO2kGUlVo2hy91nhq8uxGOnyI13D5bQBuuCKwtzcpitCEeVy5Fii4jU8bgxHIw0GYmuo5As3uUsv3zVcGgbXwtEvWLn43+9Rd+LKynHsYYSueD76MIZRQkCjfx1ETJb91pYIAJuEBgGtITAExf7or8zNcXIJhPpgUIAvOFtZrfxKUiUk8MH5ETPEQbKA2C031FgtNtT69bOMImJc8yJMeiOe+4NPNQZoHGv6D+87ul69SHzNNq5KHcAhCgLtPKBBCmYFNhU8EGiNadT9vhpgOiY6UXFHbwIfqvz37m3jd+7gcBWlEjGSZ4/2M/SIcAjiKHPPDEDwOzAkwABSNpplCs6bJoDwQun3sP1Ut4Huo6GlQe+zMA2G9aJ7EPvOHJsC+Tz75AnkaFpmunIBntfYqCv5Yo3i6b5ajqgYtIF1E1m/45UV9C7KwkKq5D4lyC6ydFdwNPaGkLZ63/x9Zdant/z+aCEtAJV6ENPLfVgyqISzHEIIGYpNCTej/FCi1+3sD9ne0tZeeoiQhnCjJUPljs3w2vTQt67AtOvCEAc9ZRFZawknKnYoF2+/PlIjjoW39XUn2qd2CFjiY11gvUoEdpIYn28MzulMd35wxBjDRg6wnl9SIOgnyOenNP7DvnlTECRGlZScVQZaMmkemf+llCZ7a99c9Pg17KI2V+ub29RwsgR6Bj5Ydjz+4ir00TJHEohFNL4KuqDrrczO7u8Py+Dw6GUr31rzsMAmHvb6quUBMIMei6IJ6584Z9IWvIJdyJ1HVLFhFh1Rm4v+y2zf6fs6NrMdW71x0GIdrj1BnuNelixD807N8Nz1+L9yeSGwgmxSracEDv8mRDoes3fie1S6n1zdMgYRqKZebiTpTzA91MwEuPf2RPyKeIV1WI9XKduiTCyn6QCBzxMR+tFMvj3dMgrLpnl1LhRNl68sFw6OxzT03UraAz5+DSqlFCSxnbAd//y7eUy+M90iCWN+GqwBgzYzLCGKC0n9B44Scv2dEvWms9f9eZK7RnSQBBfdVe4RoCttud/999VFcPLXQxfKM0iOVKAQDbk2HUkhokEAGEdlXmwwkXF7nHM1oHdg7AIHLEFCQgtkpArdWrtLT5dDzyf2ZoV7tU5/Gbp0EsnKQxjnWLO146Ki8Czaq4VmhHz3OgElvTmIRidcwRWmSFQpev+n92qsgf0dcEBr3rbfIKP9+I+J46WHz0BltPUcalT7/jaohjzLeSGT9fBwVC5x7qbGgAVoYCA1jdzggj/+GPFZo684eegM7C9+6DAVvhAAKoD0CpAplemn6WaOcC+PT5rQLhanPQRvYIQAK2IlBg4CKPbP2/fKHq/KEg8JfFlIdUEvTB6wnqxv8+6Gjw5gz1sBjgROj6bEqIsCqU7hkJ3fF/vEo4tMHreGER5iFTQGrvASAj+aFh1yEemb50toMYPr8zoKrDl4x9IQENEN/+QPgDRnTG/C/WdNjttbww4xp3e1UxSrtC4pGffM+OkBdHxMWSGD/Pz+9eSqpkbLOMVzJEEfAVQAB1qx1fsmuYV/MqAGRAsDhpSGg3+SxO+OYSN99wCPeyACpch+8r20OAJBBX3CGV9Gz263h1UvBrmUCsQjcNCS8g1KPT1ELdDNPjV2L8whcCcLK5+TLxs7mkjQL6lleIq69mTlpxX1XQV3ModBMp3TQEWxfUVXdecTj4+SF1tEDAOX8BAFJuxq9EnzeIoQDYWz1QYeoJElbvu6qMfV7LeUqAG7YtgReAjFM5GPbsL3DrlMbVMDl82p5unkkA2GLL+J+cbBYhEMA2q8gZFZ6vPI7Gx+Pj59b0OS3jBX1xb6PDItIe50GR6qYkESMo9wHNifLcMXG2XMAHv//XPj3+mgLwGHwlcToGgYRysNXTLk5K8zXrr9Dj6cxomZ/+3cA2DQKhfxGQbprxgskAfnmbCbjs6e87DeIu6m/JQBxtX5Ra8+1zPxDzv+cyECFEANusFmcwmqjPZ7iBI6UcVAwCtmkQFFz++RESocsFLwKQJN3ylHwwWKibpgX49jhMDh+0p8/eSCpc7uU7/29j/Mc8DkWIJCCQgq8QNT3H/fyM0VPV6NeiET7GoGHOd90vXNPMq+15R6qrc2PlJgCyID4XEPj0+JX49OPPJgDcOHvswtdk+M95ss0SWkRIIL59yTEARK2XKHrp/eOXxKNzvOrepg+rxxHSoIGTC5XQzWU5GtYZbEc9QTcFnP3PbzkGuNQ5zUyPt+M7H3o8AWDwT3v0OYzfVvnOPBlugkgCCinY21YPXqQPnq2/fvbz6cin9sp5+XJsx6pBJCJc0+SlOWqnRjtYHJexSj3sHrauuKJznJltvjcBwOEFXfwN8c+p3anQBoEEFUjBwN+mIeyiFB889/7sxS8K4kwoelYHiA+8XF+4wJy4nnXP5w7dINPTvgJQ113xzPGdOfznfwujw6cDAAd++i/+4W91Ofgk+m/z5CBCm0ggAaWMoIK8rUmgAD12fv/Fr5OUs+WhL43JIgZeiU+ss67f44/nnRptY/HUFaQrhHOees3u4BxRIHvPQDy6uOtPNzcSAAze7L317l9Y8ttqfmEu+xVrwYKcieEQKSFVRN6CwJT6cfadzle//eo36ahXwJS3S4PErUR8gXXa8yc+OV/rMXSLMAFPpr7QOJbhxGlAiG0ggE2Pt+POS58P0/u/lgAwDI/+14ev/obE3ZL+oVrWiTknUN0YGOQUVSCKmiUKstm8VcsJQDq2fn3nd+gBnFWoZfxCXd83DRIRRLONr5seh/v4QZ88X4tpsFVJwDWuVQ4GCYuLb6g+W4D59Hg7br/0mcA3Xg4AlGAHYFdtlvWYReYMS6YT/VRXYxAEVaopFkAEB6443bz9NFAI+eKX9/6AHtAKnglIuRHvb5MGibWyUsIAKx7ndl5+tP5v9tPnf4tpsLVSnGsVEQJM513OQ3CbUEy2H7Sf+Yt/0P6to2R63MVLJ5978vFcfOt4si2dQccY6EUnWoyRpDwaBMFSTFGwgBbAAvAKBlRRr5bIm3NX6bBXCerwoQKe/OLBnwQP6HnUoU8FzVbxdiIijRCgYG7z/f+QiLtph0fVaT2FnAoGoNaVIClhUMvW0c3x6vno/BJPx/Xi+dUM0Vsr6f4HGwCOv/MD24E3KJDzVqHYAONdZXSIzu5tZXrc2pWqvZ/58F9kPvjtb7TNxzJBpm4yO6Xt1JFOoROaoAwykASQDEIhAcIbVaT2X4/Me1O4Q3wAHVBYMM9+7uAvg6dLKqfOiWbLVEFAfg9mvSIwE2uvm1hYBia80zXFYYHRogaz4bRPhNushkMaPlUDok1BoBIgSUBIQC2V2GrneXBuyzOf2/u10wIR2tEtSbivIchQwOGrLxwEHCN5OwkgY2S62yow3d+KL9TtjbYfyj67vFfea2tYt5aplqFW5qzNWQqhLScNlmSsSdBEKkOotAuMAUz1Fx8+//jT91/2MQW/6K5nC/1Qqnk8a+sIgJlcxhjmonKQmKOk9fabh3/JeRIwKGOFnKYgLiAYV11Wx0L6+iU7GAgGcdVwZmY1AVEuqxIww/INIMCwGJ5lgWm5IwMagGFQdAtYS6mgpYCDK7GAvgVszBI4CMAGtpoElLSQHrMU0Bp9pwnswwGGMKyB1bwGGMsKCEOhUWhLrG4YiAUzwtFXGEjBkHpaNRG0yDRpUccUk5fBu967Xf/X+6/e//X3H/v+pQbAI8ACEVAewH1ohMytJ8tvztg/rFTFiYycyGy3FWC439mbKrXzV7/e/f7x37f/fnigCYLJidlnlTmfpJOLlFS5VGKZjsAEBxo5fp1974N+NMAWseYeU2igXcNcttUSA1kVG2sgze93ATEiSIt/1AwCrXnbUMtSzQCnsQgtgiEjMFZdWJt5Ysgozt9UDqQH2P/ccYRqOBDHANnxAWCRq8Xcmtq7qXfNS4PKDDACpxMcGIrjxB6ay5CV8BD0uOIbyljkGFm8y8snD96QxRux/ubgXz19/NOXW78+xhip3xj3xB6X6eegJ5cwpWG9x4MvgSpX/1S+UpKi+iaZhx5qOVWFsWX9ZKYg3iRgAIICmY94faMIWktEFl7en5KZ8gAD1Q9nAzMSruSYeadMHp2DTecUVcEkJZFYCreuYt985H8LkT1mxPIYbsV+JEuR+bCVasB8eSAlkMn5Xp8dTxz00o5xCP5/wBJBYB6gRsBcwfXm/qRsMJQsTzoIHTDAXy8mClPXAi62MW/GRcpQ9URlPjqi/lVDRUTai00DDz6IPmswKOWlHm3fq79SrEiCGncugPNzZt/gkaNW2Ed9hEtP28kToFc6hVCh3H+6zJ+xMSnnqG7VKJw+oJVQvH0/Q1UQPr1+fc7DVQFgyBM1IlHyd1ODAloiihGMwSyELDiz9dRyKlS/fg5MvTMOqQQVetC325xBmEcJT0yy49GZ2t4NmdaeQABRn37OW/OUGIs8h1uCkXHedUQ1PDGa0IIpnN03RWjgTcyBrGPfPu4AylrOwkoAZl74kx//crLt9QNsnPKuODX7AH1MrvfVcdzyo2LmzdtL0uxf/fSXcT5Ptmbp/XmLCK2IuUnvwcvnAgm9z0KhlrgO61WQyqsscSJ1iF2pRzFyFdCAswhgNVJGJFhAvcoXcIhFjH1Q+h90Xqgzato1w9X614gX5CJSCTje5gx8cVP7F4FjNP/4tnRBa3kAouiVS5QTcoC0UUu9hZHLljCjMK4yvu0dLLF61vIaVryFgFKRNOjpXHzjQ6j69qPChTqzRssYCdoxYgGZN02DhNAoIVINba3QeBNGAZ/eKaHOrNc8up8q1KiDBxG/3irk9B0UweqgpYH4Y3Wp30HLk39my8vE9W029lqrJtOXqYOJz0QqtNbFzCFl80FWFOpfm8v8EjYBP7yLQdnB+hlCJHTvEjMKr+NFKjRcwmrYBEMN08WnsAD47HZpcV65crS5JWDcYf+13FG/l0h10UaBgbL4K8wADh9kyx8J8N2s3iASMvrzGa/j+Do4aBVSFRfRRvTR+AMsAD57jnKIHY2rqhvsCPT69aGQwebBUGyGhdAnfKMvrAQOn2QAlN2t8tQtgl+5PkDAZoFAG606jA7138NHjIcCcMyWZ8XuZjEjJxu0VheMvG7DNIJw0IDOAmBFC0zTGFPUcFgN5I/vklj5/XNzz580Xe4MxfF3uZ3x3V+9a44pCRg6hEwqg1aQN0FHEzFbhyHCSFgH5E+fpcefk7N3OASw24U5KiFJUYjIVdrbpkGQ486LVUipiit5snR191IMdMGGNvgCZuniC92aCRuB/OeVnJ9m32O/u5ts+VtNTtYgKFgkP4KoTOHmEtBy9YACIAIC0EBKQEAlCFAEBYSgKzY7DpuFb4hFYy0oYtb0LiH/4UrSYDuiBukWnyYDefjfN7RWaDUYQ2CYiebRDW5gG3LWL8vLc6b3AoDAPoAEWWAoeugnlHalTlirsV6m1eNiKYtv5u9bAS2XJ/TBLVJeRIEAduYgncMMDhQgPq1ENwt0HmjemVjdvEysAoiN9ZPSMSwBx+B8ce1A4FWVX8zjJYTl+RQ7tEOHUFHaoF6qTqOOqhfqqNpxsaX80trwtarfvqb1ykMKSIMBrLw5EbukJseChJNbbiDmrOAOqm68+/d+GDoXcoQYxMEQhZiD/E4kc8zF+SsK+RjEzQt5zlHzHv7t3we2Qzjjy+a4yy/mJ4//XvJTq/Uv4eA3Whb6+iLBO5wbOAf8xjcFHFE2FGDlTQXE7j3QrqaCt+AAM/EMPikSSsen89tG31HX8eh/A/SACfOrW3736R7RnUvA6CU/tQBge7lO7dkfSHOGcELvrOSDjTi+UXCMJdFUEEAAqSJMxH7JjoFH+VL3HBx+iJ7OQDb+WiUYI359/JMxTWv9SwDb947/4Bst1XTGrvuoMqZ6Ct8nJ2AyjXggiYAoQ/xEscFvIuDw11OU5eNwi4KGPOgZI25XVIAABQN8Pz0GPfEf06C8VRh0CfmO8uByhx339w2FeZ7jeQEggQewf2D7PtPqSqi0TYNA6N92MAjsy/07S/hOOWLyXWBA6HzW7Q18S8Ytz/4PLmUxSjrxOnYoCJTS3GAMEoHgKYet2PtPLm02sKw7sg18Bw0f9F7/P3aXGf5huinfQHHXeQL3/C8H7eOQUBaGZb38Porr4kn7VwZuXkOEqcsY/1aYlnw5m185sHvsDJy662JA+PovnhogRn4N8sHApYgHtMDs1L174yDiD38y/A4A0FMBnfUUYVUfHFiNEXYCtNbq8xuG3ocHOWqHsRF8H/BHBgACNheAjvW60JNyTAYOI2HjWsKQz5ldQc76j1aoh8O/hX8AAAxovpcT4PitWgQkfICV4XMz4wbfPgOpdM04Rw2aYvA2/A0AIHsFHK9VYpxANyGEBpdRGU3H4Owe6gMuEYI3+AULZczne0DHZL/x9IZncmDz2l2+fbNufsttwQ45N5ZGOHwLPxmQdz3uThOwvHmBJDhjp0JrAdfP41496I2FoNkY3IYPuTWFFdNx1a0pKgmBXcsG3D169Qu6fiPYCIqd+iuGz//BC4CLVrE7XqqYnmQEmgjdGdnGI59znBokYmwagxf4AAAUuILezVnCpsDqrI0GYSzF8RPVoBkGNxhsLGwFvY+zhOgzrDXdH4eEyYBQK4sv65D2sfEnqkHT4/AGL2xddbs3MKCrOviMyIrOVhUPgqmgszUfZgIyUTDen375ITmYjc5gsFmkTHU0Ff8CvYchKU87qsHNazfqJtMkXB1PRYM2OhODbRgBgDEiW2qSu6MC3rGQG0StCDl/BB0YiphUpV0dj1KDxDB9OHyEMQBfUQCWjt153wK6qrg9dVlRntoEICZLKWgC5qGXuUCgEovl439g9gG4AHWREi+uvJLeJE8rY9G6Eoiq9qOqwfXErW56eXp/zqBk34CY12DDWGQlFiettd6dgP60DmUtZYW4KP6zk+6rfwL32BUc0Pr1atCvc3CGsVijE9cgM6DqGvDehADlvIR1hYmJHTU5sMmewa0qT/gzMJVrcajmDLYvW3TjgLICiPW+JwG9AMgoPyT5WXhlYM/yvW06ZoZ8SpA2m2xaxwYzgIbSo9gBhOQdCejFJiyDATo7yksHrnBJcBNPYAPK68Fvyr4xsn6IfdN+rAreNtJkMFRIgLLigIoCgN6MeULai6UrGel6xnPsjvLW+0vozfm5xb4D5wF3oc6Nj2wM2DDoHMEM8HJ1UTuudyF90Vcd5YXkR2EOXMrvA15xN+QB+iOdwK0hrlIB89Yxfs3B1RqX9irjgKXodyB95LULaB2yJWpmYIiMtbfFA7nv7iv+WTTUp0RNl3QQQwTpAC+pUdzRB3SVISvyWhAPCT5pQXMG5G1ggJzfN/QcTQ8VUdC5DgUCMwRqqQELXh+gNyG9i9F3iMIc2GNd8E9TgzD7YHB1zeZJijc/sIz45FcIuioiK9xkdNqUECuqP5BxX/0NBeMcNKiSZKFX+iLympZ82EW3EviIVQA8rROS9wRXGcFTntekHfL6X8BKxukhQzyvURXQOZdNWv7CEBtTGGnzQroYDWYZn1dVMM+9o0P7DMScwWDQuICgpOSlBn/AAW02eChrOK2lK4bedPcHO4OlNqvD5GABZi45eojl9S5nh+tpmyiWtem2OiPEeFbPHDhcbrEZAjlzDZoM+LyvPuE1chBHbg7Y0+H2ruJY4nV7VNdAwi+iCXNMnyqFZhjl8yLjjh6ItaYcxPWcqo88m1tB9Cjtps2NanANPJn76l/meIS2VgVqdxmvMg6ovLwN0ts6U59uXGUillU0aJUVN60TolKsScA1cNgPepz0sNIsCCoEP3MOBgRERg+xIWgZGmQ8u0/0DbzPtg/GeDZCX0RUUG5UVNr79jBVFRs2wNQBDA5OQaHRKsQMBQ/jzLDBuMpJznIAhWFIXv6V6FO7DnjVL2sxsGV5ftrtOxgZHQCm6mXPIVBTqU085KAor2KFUZGHttmEDHxaTkJeo9grQYKBfz2P0dMJDR2dxGlPByQnENU5nz95MDfeItXHuGlEcCCoIxgQTY1OTmp2QCMpnok9Sm6uZpiVd8e1r+sMPbslzty3jpIY9bsM7Ca/n+BEJXSogRf0pjpD3YTc6y3vuPNdl9M7XAZas82gHbts5lGbjphgDZB56OGBnOUAa+Swe6Dbx+crqIMLAe58jbik0NDLujMje0hw89/wd2DfeOQhP7BSslJheb7nu/mQhS8o0ZAHfTv32T7aMMKeiX4OC0wZOaSLT/fxefbGVbusvDRbe72uwDICHRPPGo6arCvusDza/baPMx6BQQ+aG9XzYX7WD9v5aIY5FZ3bG8/RLFSjvvHJ90rqqtoz0M9erTInL4thxg0K3jGyPo8tYK9f89t6y8cOoEpXK7NMUKxtBEKVBO7pfJ501irF9MsmGEb6/PKjX376DmjE51zY2SAFQ1v5d3/N+HTUns1kMObs34VZkVaK9XJVvSqNp1/sYthH9l0yUXCSgFr5MmrQlXkUi6Ybl1t8n9wTWse7twZRJKV1f/nJbz9D/BH1qJdX+FGRHvt/Xl8jB6y6r1ORgT9fzl8ITOWpvuZbSZ169TXfaXn4UpmGG/q9+FLeAnAFJTEq8/tnYF74fXbKZUcBK4Pefeevfyb4XQI4s8yHcn3mf89G3VCCqiVkOOBhmIDAyCG+7KdGFdUGKQjok/Pt0uW6jtbkus3qS8oY2sZAOA+4m1yT61U5n8vq2I3zFz/49XuIFMHcG2qj/pc+EhCei0CqNaBVRLnRov56xzfzXXqI8nUf1UFmQ7aq77Ms6Soj4a0Ncbef0wp5pQMNaTx9//6niF8ZUUh6YAn4Y/6n4itgX/Z3AMl/0DLXl4uF7tWVKmb38kpXytcLxiEdZAqodWJAPLzEQF5iFZ/bVTn2Ze2+x+dJF8wLfY68O3/3y71vMb5J7BM9+L88O3W94GkR+KlFPye8qN+lV5DtFNd8QnRM3yE5ulpLimy07XVoIT3KNEBEqNxtFs7VpaysT0nYxL4gL8XJg77/+tsfotP7wBfz3PHvX2s6P33kKlkLs8Dlp4rb7nXUGfBRuxddgfuK+fp0ci3plKcXHoHRfen4UgzEmGEBs93ysBZ/OcqFMSaIkEY5JD6FXqJm8sP8dP9SyAqf0h38S/8b7zVOrUfOvbH0v2Fnb7mclSUZBl1d/qChqxTE4QRQWeEIXeV75NCjDV8lbBdJ8bOuwXcPPTyLGCRGfuAvhOz9Wvhx6/Uvfkd0nQ8xmJj7PbOVXXe1kbZK22YbCuL6ivCfinPayFwhKCtBqQalvjxXoazjVaCLYVQpMT7v9DfvCdbWxK3Xv9ylErjKcXLBRUubYVdrH7FQAVJlQCiequqDCSXliebsEES3MAfmS3Uiq7Nr9hD10SZRmkX+PkehEzxuy/lH67CoystWZOqroZUCifmW2rn951BCRXmySblOd/sDty7qK9f1pyMPYQCBXbOIEYpCWSDJPo8YhLzn19IJPvRviKPWqW8blag5h6YGxCcR2+s5BxKqAOym6mqrmKat3MtVwPGuqhNofe9+rfS6+ji6W35i58/gIsb+hY9CJ3qQ3/jFo2uMg/HFoNA76ZeCqJSvS/l43AoWyd/VRxIaALAWBiu4MGht9dL/MqIA8a27ryOp6yJQOM5396fDr9QpRSR/u3dOQrRmB1AO2hAD5yhdLTRI53ckxQM4ptDytDu0MLjQSMO4yoosujpp3/Sh6Ub/2shWJ0Qnq/dfrwOttv9TX4zRARs8T2y5aVWB1nRVnk9iVgeHvEfy4imKaiojio8YIssFHJuZQxvbqooVMaLa/6OxNO1z6DfqtyAyadNeoj/PD0QV9kIUidf8W/VewVNM4gsAXR2SFAkl2U4lKqkRS0G1+2bf1embdSrNVVVaYhqpAnWGq10wJJaiZ4aQWeTXF7+euOSe9hevQH3TXWDMN2XjEzwZqHyCKU9Syk/aR5As0CwRgK4W7Vz2wKKF/hBgyzUo4O6WymWToNMys0oZCnU8v02Gn98U+w/5qdGiYu+UeDdAmctn3+f1j9DVL3ChPITxQ6RVOt62pjk0RW3DUy2cvj/H2VWLxUgfx2ZKLAhm0QU/hz9Xpi/9b0+Qp755ZgM/97bYp2W5joHGACoc13UmUe21lt3C1BLCC4P9RWE68g0VUm8WQIt0d5SZfdMD0E4OfxYibWrC9EO+U1pcmyPIjElpYqjaJqlxhgEy4vokQqqqgo0XBMhZGGy5MOj61hHF6uLgjuFFCT3zVWsQt1rw1hP08/IXPtNvPO0X/FTs4LIqZf57aNIkpW2jD3QbUdJLD0mJimpO3CYqw3OdJ2ofsON9e2Vl+L5aEernifGdus8QBuHEh083/K1Kp2dG4Hvf4aKKKQP5JM/MfkhSXNGo6nh3MU/A6RzGaeO4QXTptUCSr/mcwvEphyeNPLyIBn869dH4i4tKD+keeK4apCT96H3sCnaB9P2+qWdKj/IJU8EHBrwAxmaWLTE2OSXDbttCKA+g7d6iuxRneuGCkh3VHk6W2Fhv7BOi2MdfpeDa2hFOEJv630FpoLvjKX6ZfZ4aRA9kd/oQ/lKpY5a77yvfTn88iBLNh3VVDnuxzFLRSfC5zckg9wkdJtGsIJatIymOwduWHynJfT2gKLvFNZAvNs7NetdKhzwLavWFetkhDoNXV9b43/QopxOZrdqMSQX3bvry941Cq8D5gV7mdLLaoGwiLA3+Dg1EFB+Jm1eL2X1W8jUsT1KUxQc4dEnRHtYHENVbVw3a1JNqzdYXt0JcKJSHf+c74bS2dgRLA0yRp+H5qqnQVYAL8fkOVIeOAYLFvMU5/o6iSUgXGz7UfLBn0GqUIuz5aSinBHi5v6Ck5ARhM2aeXZ1h0rSP+J1F9ZFj+XnLvSvKNwzPapogrKPGEoNIIwjCyxE4Dc7jPFW3P3HRTsrVV6e1OoZ+Z/7RrqNib+2dk9UjKPF0R+eCDfQDotqQwy7eEVO6hgxeCT4igJdst5ynDpquKxVtdZdI3Es/SucMK9KjHBmhUYqN33grLjFfANIWu9I+gdprQgy/wDsiHzcJ9WpIJ0FO6DnSu9V6Ou4u/1YNfr6NdBxAF872VgGTpLZbkQNFlNPFmxQk/kyqPv8Ti3Nx2lWao/lAukj7pEuNwyGR2kAKeqxHAOl4zwMcDf+bO8/HzSzw2EuHJHCR26o+aQ3yy+pYln/HpJLbytxNV/YIjwNLuPlcQmSqHOYy1MGYvjrwqeER8CE2qVL2uXOfwFJ64RpzZ4wSOtqXXnRgPtumKJ1WlCeuLbbHOgErSDtv6sMG7/THIR93gRWp806taMJnq0FsL4n/qKYul9bjQX4AWYunr51dkWSfBtcbgzH5aMC7XxFmyGlbxR0Qn4I5otJp4tHHFHiPKYSftlhUi0uLHFKCCGn7A2LXpAUGHEN/6+T9JPdKUVDc1KtYwqesQchaQrnV7FJPeGw/4MeH5834aa05mwTAFipuQKQCg1cTvnsV6cwt3z0Co2MHi7aoxChOSVRAN1CllKgQDkEQFidssEHVV4dPkD41CbVV1dArQZjR2a2LWmDRu9Bv+uFJa5CSXotUBFxyXw8CZO68wKDcEIWtY68qfiP80S9N+O5XHz5zy8onnznLHDNV1mlRuHJzGsIDerhhRfOSKI5jHmJQQX5yJGCd+rOdRNkBB2KgicbWGwyGAk8AgWzKSPqetAaRzvwvRbXsn+gg+4PU8Y4C3Z+ELffGH3unMWAD/rVv9qisB3S8+94kMwACCtI5/cS4mh7ksKIzS1IAxNbMi00X0AnhCeudXzMzWW6IDBpokq39umn8yYsE994h0edrpiodbqsHyUKplrb3pxOL8mmQQxMabNwX2mNE///W4e/78RF99wgp+028gFaC4WnIzseZDSvSpcaDA7UTuniuG6wgjrY9nIPhPz9fbHbebF0FVsSyz9otHEVNQg8GsHm3JYbRiGFo99F2seqwm9vu/bQJvz84Yxtu8/0IAco8a2WVu4Sks3oTiKV7cVKSeI5Be/Sm00JaXim07UkW60R6CntxcHtVxOyKgSXU3TA8/v/d/Zt+ER1rSeCGni1CRqmIDE6607tTpGlF2UZsgoExNT1i4tfGT134cT+o7FpSMcEqQP1Yk3vQya0Lpg8rhMVpsWFy1PwlyLu3Txi6whK4OOz0x//RcjtEbOfFbCvTZ4uSwhvRWoi4zkIfXGSSWVR1PM+2tbwghFGw5/3wl53w974ZFTAAM2zw8tCxZlX1zQYOoFctKrcfVmRFWZanSPoSHhCf2fcHnYChjoPHdn0JszF8kCYui/pv+JZna6VinO5/US17AJ7Bi/kemaACRMbWs2H1klIltvMWskfROyMuUigACBnrjlBQen97kfs3b4G8KGFz9qtpO0D1/m9/GkhDC8N2Hv3fh+3WFyGJWWYxu8g073sGfd7Ojxhv99+iGp2A6NAfCBS5w5u42X2d43V98T+rlYFrXsHfDxTUpt6a3xxUB6wYes/kALS7g72wZ1cnp1vufe9dwwo/KqekVhSL/uPzBoSVd6+UUkhD6IyygEXPa/denCVq30fSiv49+peP+oRcJVsBztS6u9x/m0oI0b7/QqEfPqxEc7Lr6/v3Z9olFRjqeRIf9OqvDx+/5v1brrn2DhdWUFRysnb13nQubb0j3W2GFW2h5JWU54spBpKt7eagrqoCqoI718aeE+4H08HAwN7fyw2ZRiP7BIkE/vXpIJXQUn8mFpWh5ulX00ffH02XpBUczeTXvhd/+/r8yMsPrC8iXn/vUwfKv24yhhf6FC3cqem6UyYWO6cQKSXZD+jIW0lZu63tuQKCv7NKufEc7K7+f7IK7Ahivgz+HRb0Rg0/meYfeYuN6wCqt/ykpDLlp6j9t72Ku1KC5n/77RO7L87u33++6Lj/F71USDKySoK0HlQdAPKHXuTCaQLK5LF4DcuGFZv1Jh7Sl5KyxYrP20G1d8dceAcEyeh8Td+LKfAYg8r+2/zfrHoCSYQ06q/049iiBsL0e75zahGSaCc7Xl+/P1qXOR25wdY8OXT23bXi0NW995bGp/fxrJeelJ1OWfbeOSMpOVVty5CQ7rskb5/HwerlZVYFwhoLoxaienB3RDedHREXRxcDSv5bNnhbNtlOan2cn/NXQBWE4NfPHQYVofb0q5i9H02XhL3N/8gTaH59PP2L/s2+ZQbFglcIl8VDrNp7ozPOMT3hoVGGuW7qJb/fqoEMMAUQbr97YUJXFrAhfLfW6v/LIVlrhZ39/+3ZRGutQZpl/kFAq9gJ/KsK/SwzU8nt7+53XUizbq44ipf9DZ2P9fbDdX3/g0NsKBtQj6qWVBqCEThDjRYQ6cx2krs73ja8x6pBtpgpBsJmq9FpzWsI7oKAm9R7fFc6Efr0cMl9oxrvzd+rt41qCFn255sGlzEfdz98f7QuScBMOe7gye8Z1B95+Ndfd86er1y8AbRQn6kWGAYE65GubF3uYkCMqaojZeyRkiy4dk5aTromIN/entRARcEBS13lGOEO6bKnBAVgrXU9nW7I89IqYn/jR5EKnBi+8zsSqMSN1ynqfO0RSABmygSf+XvrTSqVOF5fiIvO1x5IWGnH0nEdoQfgYB7lXMZJrjYwlMTmTRNShH/PTGI9E3hvQHJf/022QfXwKbBNz9Cpv1eaOlkYKEcVyl93eP4Gr0TJd+evH6hgQ+FnurDnWiKXL1Lb0wfdj98fTQ9JMyBivO03aOjpFU9QcjqNK3qOTleKgAFKHG9ihHiIpmjr7C+UsUYGMWmP2s3eE2YbmgJIL099WNt6GyqEl4Cle1QECKhDACqUaJzgKLmIyUvW/zV9p3cisuAHJRdxU8T5fK+4EHblSBzWPtrv0A3LD9felZK7S9Zmtp5G5ym3TxWjZIB+2MpT7pHY6tu2hjutvy1d1hgoZVOQJuzVZqM1U1RADCblqs+Q5V8YLkZ+tAIb72jJQP3fQWqt84pBOO0P/cVUTF52+N53LZJaoj3szd57P+10xZUJdj15dt9A3cbLyqC4rIBsRNFRxAFWDDdvcRIXYuXgwSepFgRUcgoEgHQzJ2rGBuOyv3KStxwUa5u/AoIb9gLoqnvUcPRKQoHG++ClYEfx2cQgKv3lAc/kQ+TEDypTcjLe85mHwOGvFoOGt/oRzpuSlLPv2w7BBpnPZjoi0vHO1V5edYOOO0mTdYc1q9W8oJg5ZKVLXNMw2wLZ/2f8oBVl8fAgFYseuuZ/YYJu1th4f+cTUOSu9mcVg0T0D/pOUxsY3uvNLWJKtocHdbSP1iVhByqOzo/uT1C344FrkpfqjmHooIVA64iTt+J593nvRX7Gue1A1naaR7Qua+WIkuSJSRZQTo7iesdSi5magYoisHm7Ll6o1ioNHhtfrTIAdPblbv2cW8Aj/fY1tUHQdyrzzzSaorrd34+2CwQc0tv+edRz6IQF9Jp3F5BgkRCOPQvD35G3PBL7b+M86/LiIrTKicgqvyyTKA+nJEn4CqNOSc66Oug+lHF5C2wUgS3nARbf+KEKG3Lv643PUAICvSGCt/6K5/35IaBOu3PvznJNEYLzWLK9CQfl4kDxyn3z//qoWRbVEWrxAic9r9UH99kN04zyAnMKEkAaVTV3BYxDywknSU3HTtqcXXzv8eG2IuyC4lx0lwWBdDQnmMb7B988wEgB5l1c54n+C8X+uWChKXMJffsU6ShAtscpRq62S8IOOCqx7+Kv73votmcAxMtylJAxLqYjrqmDiu+UzpsN4YGtOO85jSB0BySak5mKIDHNQliNN+nL2CVnIGezLZBevsdC486ZmiEGW83HqileGJ7nxjK0EvZWT/B2/FXbKCQv8gPTNj/eEVpCJipMkV9nVjIe6xYrc/Ghn1/dN/TqECA5cXklznpi4ZRj8Ay1nOFmVa9CsQHCDbmqWkMETzfr26I1RdNqEierQ2J/SSYRld3k0dVBcVP+lwW6pQjnWe3zeYdWuHhaGAglgM7aO7IhIDdDoya90xum80Jwl/5YRyp42Y9do+ryV3LJ4zGfgatPXcrEurr1LGmzuUZeLG9VBSHCndAFrukBPIiu8iGEHYAExGIKsawWCTMxhhEcYGTnDOV02PgvM9K5M1fFqQAIb5Ja55FPOAp8970UQ8vWMiXBm6Eh791sNNFKpaWOdRNzdZvSdFKLdhIJB8B5Qp95+Zf5DXqzce5hi3VYla/I9QatFEKoRDsQa/8R3czviB6oxAEcGB8i3rqeJaRYzcoBStEdEPcEgSno7bDF2vpmtF7AJgIiQJeTpcm+EN5XhhEZB+ko3AyNR35boFM1NpYtUjhEGkpTiUuexnEVz83HYadNCQBlMglW2+21aUEIPGGZnmSU35tCXcwTrrac8qaNeW3uMIRnL9EpByikO8p+cvrvnb+m24hqEQhU+2xeYsIt6G1asGiiHKzBiDdCg9jQJVOVuK9aIpKAkb+OmBqXdQDXYsfJX+6bzloVdO+wzytM2Jq15iQgKLCXtzN6lkPmiVHkNHdEf3hbglwIXl4JKG4zmQsMLKs6MWUVqP3tc0/ut+ZrxiIY94J21ukQJoit+z6UAAdpMVBCgMDHBuAMvzxBwdPYQ4tMXwmSIoPqdC4WeRKv9PmHt9dUh0jTWXS+4miVuuZdoAybj+hHXFQcGEeIeWrDQw67hau8ZleEC0HYotaK2CLEnw5dHeQX5WsU416xiDOTXRgCf/sioYPjIANhX4kBnB0e7Jmk5sqIQKEiJRGkD66K/Tv/0/cR1O0ZkB4VnaypmUhbs+YAmRDZ+hF7dYLskZquLkMzyhESD6K0uUhcXRuQf63JzGmZG4Pab3SoIZsFDhTjbAf3n+dezhVegb7vICIramsNKhAQoITXM4dBCtB0QSWFf05XydSvMiUsIthQ0AfP43VfvNarpk6IJFkOFuTREjUtOmbZNLEpKptgrL8FT6oF1VJqZNvX2sxCPkAExp/ySVxJYpVHMNmHCExB19Bj6/p8KyqEYpCsiON5b2aFe4BuIkBkp71lCosKQOd+4FmcshnAPiXruw3H1i1TwDjVORSpTnivi997H+r2ADR9tGdvLMPSEwZdJlkApuoAXrd0AWzJbJHOOuWs8Q2pMbKYhEJ/BFl5tlPSgNiTtXD8a+tHZ9PWOFAEQghTHM2h1YPdRAgws7M6ZBx9gs674K2PiOfRSdBoMVvKToVmomYjIVOsQO+EX7gPX/ainm7IAEjIW1hP83K7vUpTlKY63m9ECBcTQ5t8EC0hveiPra694oBkmxZv4MBLEcKQRYHiUw9DAk2RrumurN3Sn/UCIUAUm/VwPEoj6GpUCxbVMGgnESIV1lyK4V48gYdEVqwDwqYlio1h++woFUmrKgvQ++C62HbyC+9DN2xJskVIucNFWl56FswVMmakZfYp0bc0jOiTL+J1jpUHuLbNKiNXGHWAruKNa0AsCMIgSsExKylQ6HpxraAx5DACzLZA+lP91JZOFNb3qpfPeVnQiAN2FYEQkmR3MiAL+FbrP9/C9gTktT5NBCSPirJtkdUZkQrxLwlA33vhCZ707od266lD8GUb1+K4HO8tVMPKDcIrx+UaaeuHgCo7ZH/TyTliu7SH1yJNT7Y46ZaOU8GoEqoh4RizNCdSEV2dMkhysvYYts3qldbn2i3isD7YZ2cfN7qD6M5RxJE3y6A9okhhUee8Kd8TSPtlP2qfiKCWZUs8eF1b0DINqTZS4wY4T4pP2vnZfgK95FVVyC1eY7BUZxhtqgapB6UlQvczN2lXtQFnewCZp5rqjdkepEezBi4pKVW1YK1QpNU5lDANLkryMlI8HSfOfMrM1T+yvjRpxHHSg8H96nydtGQH6Ptar+e1mNDLoMmCDQcx3wZUCl779/kTv0wPNNJQuyAMMLTIA/ceK5epV5DZdLgjcIM4UPxz3znopJ4kvPK6G99d2uktp1Y4crHyoC6Ombl1SYxcXGuFFDluuqeZTloMndqRkkha5i7NyVXDa+sqBQkYKqLJF+iVGChDlPgwz2a6hvZ7b/5vPs6dxFmlHj+v40Z2Ov0kBKAgFWKMGDBoJmxY82yAGthJcq/E9/qBd3NXBIegdhpEj+HGs+1KjxmrKTNGkEUC9qokgwC8ICoL9Ea//MqXpO/XwgLd43ckISGIcTKoqlV5BBQ/wIV84Vh7jHMArTQrpC02ELan1MLpNog8vewoa4vW2qJr8xu6I81gvUoAMd250JWtP1fklD01r6wR1H4433ZaK/Xi2CjWH+Pn5fN62cgOiyis9czkeFonwMtrCADTqIN7QMabcwA6tybOLfhtf8yv+1uTEoHlvDlvuOvTqnnRW2137Z0cHYm2Mj/WzzQsl9Yl9DturYqDmp//vQ1gJCV357XJojHoyApDbJOirVBVUolAsruUfZkEMV1RITfdEd3ojq4JBzmhjKQXwq4WsASxCSHjoDSiZlUl4SRkV3FmXV3nHBhD0GOoL6D56dw4azzNSGMN+xseqUcLIK2/sOYr6Cr6wQwSMEQOGk2mCCEgM2mAoBGLyJ2WLN1PACwCQlbpSmfjvPfuzruN59p4BkcgCMiSbXayk7cafRm8mkuGDkqxhzSaO+rnv/b3bxgETJqit8ry1T98jyFTYh+rQM30Ek73mhKUoiCQEu6CoKRhRRCW7s2Va4WienLZY9W5/hcZH89ERagDQZGqIOzAUIUVUhpHNeewlaydGtGaiBoxwibOTIARAuLbPaqPkVRtH+HHjFQE18BpBCTYcsgkM3CQbMyCEhAaACrnuY/aB86RCbVYJrTXksV0J5Se/nb6wbpK4BZAWhQSAryBj3QFSQosEFoMMuI9Ds8/bT9/pwNFAWQBEWKzR9D3a0xImWJd2lWTPrAYNDVN6Zaxr6kjLTrYegDdgcyuqCFv+IvsFp0LeZXThuoCzySEQ/oSQurg1CgmIVWiJqJGCtbYmKWlu9FEuPZ2a1fm+nGgGC3dH2UTaRUA/TXIOJpKMyOiRjEVwaO3RTZzFoNmFUYskLsuvDiLBkusTc7vMfgWqlrrSQjqWxiK7QwLhGP79Wf9/d2cOO0QU6zb+G6b0NSfpDRhWabMqYWxaTvl4pPUudQBCAUoNou2a+RAJGvFbtcV6djUtXJR2NauimkbRzFqWO0NSlhV5KKmRJB/4u7KVeHKaKzxtgBWtaEAClyLDJAKB2yTbAaJJtEENhxUEBhJ2UE9xaBaGglSoPdilnTIyCK0GlgjVNpz3X39weH+J5AopkNQFugr3YSMiSQ/LM02IUeJiYWcNOhqXyr2SYSCfVG355A2DbtaXVemK+V0umANDdgM56/QzGy8Wy1Ga5YC+lVdG5Fr4/Xt6C0oGpI9MCKLFAqLerKZKUy6J4Sy+Idm2WpIr4XbTSNO8q2lpsns7fIn1z9+bzoCqXM3xvVuQ9dfETb9zFTHLeW6k/pjmFGtGHMCNNVVW64Xp2xGMxiwFXdGAtqv3erpW52GO423ipW6bi9WNhIkcG1IIISASpOV7IRoZUgBWKebmfOiheahrC1Ce91uC8JIdJ/vU2FoYl/J7Lv/+PVf5ygoahIFdWmG07dx2xgyjYSdgvR+NbecnaqWLjJk6F3rdaAAjfHWIkjtOC3ZhGw1AQ5pCtBCZkFWO6C6Rqvzqs+ppcIHBiMoX5/rCykoI34IC6mr2RdLmhFcq3kvAIQKC+ZYTRAlmSzCMQx4rkEHaPOwPmHlnn4W6h04CgM0zX1mwasv8dKe+eG8/3eSDCQ1J2t5cXpfmWvQkgAVrA5K2KNnXc0P0NQYUyUDlDSfWBf1X1OirtJXc6LSvNevPZi5KqPXEyj/0s/CAzrSsubVokZrdQiPiUNofcHgz9Db6EbAmKOvdlvPYrPRBQpcr4w3K9hmZRMlYWwcY6sNo33UmcXdh2ER1Ktnke45CaujlSD6PiD/yj3++O8PRx6Zl0Sq1DFXuHFbEFiSXDMpU4o5bVhV5eqOhgMByxv1tqBwU+ZYIA+yTcirhzGelT1f6DtpZaOtrlC01wt7cMRHSASFY9pmjDws4SNchNhYjxhcBqv+Atov3copKzO4NF4hpaaZs7kvdom84bqOJBNn5HaLTTZ7QQE6RJ1LXJDkfrvT99ZJFuT0/xWitkqlxEt7+PHs/6/NPmKb8FU2xOlZg66vEAnJZJlGYr0LAbe9JlBdHM57A75Zb+oVylQHASlFCkSz31T/bdd0NdMTeSZ7PYB1yVeSUAKK2kR/Ot40to7UArkiK4Ir3wrHxZ5AWQ8rp4L8yFtblNoMGnFxgUi97P3q0p6l2zfGfw1JCoOMO3okbosyFsUHjqLWpEf7QzwECamjc5++3YQ2xHroSVh1RKgJd7/49L+mJ3tFbxl9W2SEx9KML808ZCIQIF1ioXm24DaXpzuOOjTlkMJA4RbdMXrEmk7AXT9Jy3ey16+9nYZ4HLTZ24CSw4+ual0Dz5Y4IicpgSDwOKRpTgwB6ZZNiphHnQPaXk9POvO7dJV6lRm3HwSwGxJqAhOTJjYyOtJulq1gFbWjItWUX2s+xEcVIR2dbn07hUqYeE6aCHXaJLPvmf/yf7N/lbTjneuojYWb37xlKBiJ+WWW2WJkKsIg/ANQt/QcoRpe9wJpOH+cQaFWyJsehEyPFr2++Wi81VDd05Fi1mIrkTCdcmpQtJqck0AxBJbOwbQcLFMjCpcXzJxr1Yc7xiyk2iwnvY930sw1KRK8lHUfgxorTqS16Ha72VrcFNRgymc5gSjqaTddjip36dpx69RVtCfiVkksWOIlzfnt5/zQPveZeUt1Pr3CKR4NLswILG2xytkkD1DUxBwYCnXJJwRBqoaVVunIIk4xSQHdfDIQ5lPS2kZSfoDQYMEhJwolsCSc5GlRvXLGDZKkjdpKXTWlEeSNBisGHp3NK6O0veg+suc7ul6lyGs2AoD2zQeu7caJipMSJyXJvrG2hLAAdNjSAliDznz/vg0MbcTIDYvgLmG63DqCm8rs3e3JuDU+SVh17xf/+D/3i/3UTugQzuoi4pQq1lsCsAjJkplKU5vjEGXASEzCJ1RDqkSbAnGBMnUHtJDb+pO9GQ2Gi72AuR5AeGXvb6kOCp9yMR6GLxLoJpUwoCtHZqvTxI7gBL5mOFcKsJfOPbbBnWaOe79Ym7PCBdoD/fUmUdSaihtr39yU+KSmTbelpJq9kpwFAu2jimN4QHAWJ06Bh94OaQ2VsMRIOuEVvsIrfCe8wne6GywYFR2nrT1u/2bF1Qr3PvvdP877d8/Wlbmh7q0wDsRKC5BCxiibHprPFW1AXSGYheIiB1wTeLoCrTCGv+y0veqVC2c521WdcMGuckYWAopCLhCa0BK0IIzAN2DUycraCZ29MMM6oqLw0ovAhAT3fHpQ/9wl1jsfw+NNEG0KRsAa0lJTfBO+qQmv07xJN2q31uC2L9oxof1WHDAJMTqaWzh6wtGjVzjhpVfTyFiWDN27gTZ0nLZ+m5pwz/zf/rn3r+tqP2P3GylniIM7Fs1DFTKtMqlRCKL6QmDqjw0jBaXkMMCBoQOEuP5oAtNl2XZltaHs6xTGlwphEh5MRUcMHRvpVFWgNqZqkh1GgSGdM3bHowh9rVM7wKnXM51P4stroZsRjhEENRAYNWETi+5drGnt1uiBtbCPSMICaRiJkW83tC/g3tfQQ/JjXCmRH6rJtvx3/37ev1wu9kfo1iA60DnG/M3M64IxAmUSV7YLWk8CZpkvFyIBYw0Qoti9QrmgCF6zPaiKi0p0kF9OBQMQLfL6ECI8y6KmJVTm6q20+Cm8+gIwwdC9Otfhvg/XzbPiy7tPZ3KTHuXAC5wwDdDQsYuiM6EUzFHgEQsCrT6+ASxQH6AS7ln9vp+e9y/Ln/vzrQfpAGjS5CUwLYCqsHdXYOfCeERVAtcUkNvAgDSMD3JbSiOhaLNGRMXBDamWh6vTGZggzgiSjzMW5B8ReG16v62nT+FtvPpSkJKh+3zy1Dla00x8CyVvrr+4yRiCyqV+asLdq9/Xs+f+ZfPq/tTdYfrWsY1/Hl1qvugTIZ9xVpTPFkS1JBIHoPJwX6nxgKvKEpXqDHWIkUUqJAlAHlGz1vXyciRF2aiKBP7L3P+a+09QzOv/E3UPttTj9m96XETiBcq8N3xISxS1wn0t/t1Pz/49X70/dXeYdtTm4kCiXwAYunQQXwviVVxyqhcSTeT6QDeUGusj9l3lKwIRn+MLQgO8L6dDQyg8kIFuWQQSMHeI/fPx+Ou4fwShL08CwtzJ/NH+3Xl1KhJWbMn7ADCxCYvu+/K/+9nZv5mz96c6XcVUHdUbmW+kJscTHIFpSFcoA4sSRWTC051UGK9CbjAZl36fLApRBkR5OlLhvAnDoAIYLAP/FA8f4uYR3uFykMLYazOPA+9ft2eHcAkboJe44/k1EYYF3uf/3U/O6+mui/uHOqHTWcyh1fjNIhtY2brKfhUkNkQXiMvEHYTkZb2UP3zYPWLw8oIiEEKFEk5RQB5VrQj2o/RjHBrv9BuVZr5WPZ/qz87pg24ZzRGQuMtjbDXuNL9P/+2n7YP7WNwf2gkdOJSuVEd4zclkMS2ErDGZIlqbqac7AYi6BFz3QD6EyLpParL5JrVljl+5EGbeJNUoqeJJLW15u0dR6DsZ0Wvp8WTPT8tXnL4RbR4IyTsZoLIwNjW4BvPlv/PbzMv32+Y+glsHaFcxDA5i4v9hGYQll7WlGd1UPLr4ARhYG1mpYmRDBIXEFiMXLNpp6ixWUARCWFFINdrwdMyfoicl+D5wKLyNdzK0Zr7WPbLej/j5srcJN80DVQK8e/lZGhted3v96V/8/i/H09NX0k50y9Bd5whSTAg9P6fpoHxqmVpZvrShN46meCSk9y8/DCIBYpWNCIQtPdl4dXiwLyA03qa8bY8d8s6QuBRwPRnCPCLhMT3oDcJ7BfSNh87e2/tz6xGLP9tDOwISd2oO2NTgTvbjC7//u3/++8v++as0zbHfmnPXVZxEw12+gBlEeGTJhLcNvdtMRlZDCkCAVx5jW6UmCcLyuTNga9nSIfAcknBer6myo8J0NgDRt3P6F5e3oOm9roYk2VrAxP0JHrdGf2G2B0JCcDeCLEzZatzwut/5/NTf//Xx+PQpfRzNusLBVR9bX6UihrjmK+hB4lWDGCW/uuIsxld74tNEU5gulPPq6E4AApAQ5AAQvjyolJCOSHEhramqTlWPLEXJlhorwfg2I3xR/z/N+S08yrtdGom+6Uqm9PV4+azsbOJr8yRVF3bas89PhAxeBz4+9/d/y5d/Pg4vn7CnuZVVFqbX3AEdJcb8ezmfQQVhp/pZoolpUcIXCOBCc9WU/KwLCcgYWJi+xXQkmrfcvJ23Pg9K0hNQAGiXjn73d/6+Lh8g9P0MMLF1hbln7o/5SOrvAptHKtKDfb4xCKoRErLxlu3tO3/6dPz57+v5P5/zua7MP88KjhI9X57nGwgcLR66fvaO2wkIEPui6sA1xSeRWTWJAeECkRoRzhu5cEcAN7RSrgZZwSZLCYZHtV9y+o4/H/A23nOwkkTrotT9ehgf7+y08r+ksT0QN6QzUJ2jT4jGLff+Or983n/8x/nt04fh7cnaHPvK/PPMKSYxrs+7/5gvIM363HDmkcABOhG3iAc9gKM72SQLhANRsbzCPFw2et43L+blpTNYk6onMv/+M/59wY9HeWNEwvuGNz2i17j3Izzsmn4T7rTHVBm3Rb+/WpVPqI0tPVz58pnPTz4+nYeXj9pujjcur/8wOSvVYcD/z6tNfoMJLx8ZdzifBKiiw4+Lglz2vgjIyJ/hCCZJmZjVAd+caN5OQI6TgDIX82KERjqDQSaV4kga4vhhTl/w64G3mEfwS/SOnwUmk/drd/ooHsjge4Wb9pgG4tYc4tMt4kOwNLa02zz+t3/+1/H5X4/DywddNMd9Wk64LmEAHfr8/u95C+YgW+ojujDaFoWXPjDAkF8iTuAUxXAmD4KSgYnquMFsBQvqSTMWTyJSkvtf0TgtBPbpSBzi+o/r63f4GK4e3zecaDwQpf/PznkkD3ZV7/pLPE0JpOAuGLvTyAwItky317f/8Plf8/XpcXh5b3eb4w6HUI0j2BGdYpJxfV79Y96CiJMtdRz999IHBxi2rJiSAQIcpuhyAjFmf7auruteB1S8qwRYitYnjw8NGuPzJWnVBY+B1VUXZDd2sQtxl5Fr+5yvntedM6eSlSJR7KgvkwgImkkOBLYs3Lt5jIeXNxhcXmXv8jLxdEReTXQ5xTIBJMDb/Z8UjVSfE/mG8us3gx9/pPH9R/a//0jj6x8Z3hszyCAFAXQDhmXoCzYqYLxh870nV2UdJJVK/8Zhxc509ADt1aKrOVjzAxTFceiqvTpA26rgtEmyMSQZlfpaSlrTEQaBVRplJcyMKXWZcrnp2jb35W8pJ5/JzrIw7/FRLyIAmpIDgq2G+9ePc//6Kg+unqZ/+Rjt1VnSrDSkAseeAd5OoIIpR0pzARMfpvfj9zS+/sr+9x9pff0j4xtoUCAFhOVAEpCoVkB/s3brzilQgGAK/CjutsPbiM2nd4qulpwtcVzR0OYwunaSPnT1LgHpFNlrp9W7KhJAAORLTrLLTZf6vrbf1HXo+ZfDGDOiBbgMzYEWDk4XeXB1lQebya78VTftmTQQ16FYaOfSbS7Dbj7ob/N83N/W/TV7z7+ZBoACqcBADcvSH0IaK4Vt/l177znguropEciLpA0rbvIuQFV7pAngLtgL++/Lp32a9NSs1kpp5NRrBsj+Wk+JKIkxSV1cyTLjTrrMdAGK5/jqezmnTkpYWC0FYJnkQAdi76o9q7vS1/vIvmXTnjAJlBvQSwCOxi5swl6w40Nfb9e3eGyerM4zzxmMAqE4yFK0ElhR6dG8+TzGuzRAAMJ7Y6dOFNUtp73RvmF3LRORGLRPsbKvG03RXnOmD/N2jHB4nIHioMm8LJhygssOrWYuve7JsWeysyxGkRADLAlAJmldMuR9TTAzs8n0priGa5pJQ0qoB+lmt0FQESA5aS44O93ojv20+rjm23I3R/SCoXETdUQmKVGRrma22b1z8tJ7TwPp7cRsi60dMQ8D2nw9TLPpzqBv0QtfZKBzkgNxbkvntZJ1gYkFaBQOYHBoX86JupBdZrrU9lW8xrXn+ZfjWpghH3jE7+cns4298+lO98zM5hrdlb/oJo1pSOXmky6nEztO043+2C9rfzv6bG/nHHrmOZu5QyWhIlDHpBPVa4Z2a+Paew/tyDoIuMNMkTVJ7thGU9XthhhgSemSLqnt0TKPbG6cfQ2RYGVrMzc7O5G4lqLXemt7ki4zXQaKE76SV3DsXOkpCxgQAywRQG5bF5usr8rZGaebWQz3yl51TeOWSYBS+1ulPx94KyOEHc6kG91tvxzzMjyveZZhzuQRTA1TlLENrwmEjWqFkbC6Gfsnf0CUt4LZjlbueGwXkptPIZj175GfiKK8ts1G7dglNZGrCg21A4Q5dJUX6JOcLVyoLjdd2+19Fa967HlODksxC1wmFZFM65Ia5651lpPNtAw32TVc0yQNTOKWGOqDSioYBk6aC9V0o1/zsvoUL82L9Otd3if1WEgY4RC6hDSuDI3W3IXt/1t1A6TSGIO6nAtBl5Q9hQDdZkSxA9cz+TFOOijKAwoFsNpTJbF8ILpbwTV1Ie8y47JJV36mK7y0HD9LbXoxsQixJbsll/o2qdSpTqwdDF3FEl/YSgOD5Q3rzeZlcgzbsLHVeOOw5rk+r9nWV2d05jnDTKjn7MblCtVrhc6d+S35+Y/nMQ1MbydmO84vdQV/tpgkRD3cPWkd64H+Rt2wDZZrSiiuqKQotREUBgRIic9C8m2xyw4P1uoqXpadzy6HCygRqi/dTbwECBDJbNnE3lmd7B63ptvJprTiEq7MNGWkhN5A1iOKgEwyjGGwNenGYL+uvuTrmudsmTxsVjD1rN3IXKUT20wqm5/36F82Q3jvDkgBpshKFlYF5FVpTbHNzci6R33AcpDawXiV+ynzJ7c1bzM5KD+giVQERIeyUIjIlrp0CI5ceeErvrQcPl/6hhVDtP99SJbvMJRktjrNvEsdx8iabEamZLwN1zRJUwaTeKPOTTl4YBBkGKut5qNDs7dfYttsdW8lK3kAzdzBEOBoL3cBRKhmXFQe1fp/6o91lkGqa1I+j+jWEiBWcJpqDdEApvQopljU1othtKO9rmc64V5R8Y1GM5E4qiWOj58R0HpWEjzYxSG409V5Cf3vysOTNRltBEC15byKEiC2qaEkQ4m9Qq3rGMN1xG3Ritv4AkkD6zui11yWEkaYdCNHv2Znttzbr7ofk8ReMITmLfsw4j9TGTZQieqW60qjtX6Rz3/lD0BvB7Md8d6a1xFecMPgVYREImnpyRKU7asGr1BK7i+mQctIuVYYAFVNtUKzhHxtOZ9L43LjK399jn0zL191PU8wIYpqS5tfAiRIbiltF5Ywd3TnZYTBWueoM9jkTVjDVciaRgYT+ro4QCp4jdoVAGRUggwDRTUf5BjWPtiv4wH7upt2k2wlDyA0lZUJjPyqVUSUt/zkNl3ym3z7rQyCHGSLVin5BFZVQMnyHDFJi6oC3WU6cTKic4+jJASYNta07oaogASLFJuIcyLCLtRdXm4KYJ9zX/3k9dXzy55Ri9kmiupLfM3eSLxmTQ03iNgr7i5zkJWpl0HWLBEiLLoRMHrm60chAYMAbTuK5uSKzRVkAAR5LB3Y0tbkwzz0zUF3PKC1a0cbkoeENTQrYz3lHbdOFj9R6cv23fr1x+9+3d9sgUxXK2u0qwgn+BMJJMoDSQhVUqaN3rFzHZKUgFInB3Ej4rbXQlCaIggeo1ZXy/by8pFSF/KW4b3NlO7JO/q/t/fDd9x6cK7UhkAlCnzZn46T2gME5Y1o9ApOKFXUWjT1WkeFXLIMoYuuulXVXkW1og2g+mM4bXpVR0mt0Hf7UAmQpBzntrDVfMSmEf2ixWHaNp3dTttJRrZSDwxHtysTOC0gjF4nqp+EAfFB/f4LeXN7UwdB18RsR0cCSjZ5/sztrD+Q1A83LUfQXJZ9R6yd82TnPY+sOS1rYZnm4lxWnLo4o4SuEj77bPkFbyC6ermpQPlSDnwjT1+fWycqIxEVBPYYXE2J/rUo8FqUggju0FbEmUor5JJzpBGjyX3F5qHcuDfuuADMVAZTBzN1ANZAPxEgQIIkQFZQaUtVhaUhI7YH0w+118HutRtb5KlFdmQnwMrVYBDU827Hz3ECRhs9rL9+eefr6+89DVzXzGxHU2SnyIISR2wBYSAXGsGjbVAgcMNNMGQD7CAej/bee7miAtIlWQBgS2DEt3C2H5J9QTNkx5qlMXnLy00JqrddT33Ffv6ynFOFscgRHh93LNxQtr3b3/k7z5lbuQqKyZW/vMsmq3xysnHlx2kY3B4x1LqtCLFCNbE0mlarNo3LhDUym1STxhojDgOSsTCYtVqLYF1DA6wgY0L+pZQSFbCJsvgJGNS4Kv//4b3fXqiTwPV2ap6TQ9ReAJW2qZIgZUSAaeu0rdEuKSw7JzGsuPXM3zQPjeqY08W10pCqaumLGgxrmwMGFNJYKmsB/CPm3CevT15STsltxiIAqj1en3SRCoBvzhPUYeTUDQt3bojbn+b2RxEuQhkXZY5h7U/w1KpBqsSgfCtwaJYKgaisCNaKqCBrPdnG5KIZIVW8fovBdvXgjp+/e/e7q0wD09uZeU6ZbQEBQrbJrTrle0AlDU3IDbdJ2zh3TiGKs52QkCRO8kFRLXG4ZMWo0DAIynoBzYrlBxUWYLnT224KphQg+dTl0sebpy8qR6kw2RbdQmCP52fbanUBK4UBdRhQi7f+y9wh3j3CMIx34TuiymTjHhVpvFbo0X1Qf/7u3R9uULelQEoWLTDSQ8i+AO1QELEn23YT5qSRXnNKE4LY5MBnCmoJAbhwCKTrqF76zKFdjvOH4/YpzwVTZEoBsi88x9UP24+eXw6LDeOW5m4e+6WmRLht+BXpQ2ciJlKR2FBU09CWxi35+hv5srpZBL6QFmkSQj6JAdbW5QKQHXWAw4o9A4dYwxMAiufaEOhKouSkLyCdfHWoWFf4gpWZWPS2lVWgALXPXS5/KA9ewHFVGAtEFNUBTyQLFbCJonq9QNBk5Wr9/Cv93tisgaC3U/OcMtuRSQyg6mpPMCWAgJiHGZ9Bsj0qAnYkkwNQXknaVkJJlZGAgj6QMedXlpRTbPLpuAB09XIjUID0I9ezn9z99EXlVK0wEgxRVAP2xEHYiIrULa8XRht2W3/++34+/n5GJ7faINU1LOb2vdsqqgSovq2E5QLXKAVAjIOUFLHIs4hSbbUrLsChAv1FIVABwuf4QdJTJatRra2fsYDe9vJ5CO9dgOT9Of3R672Xmcunb/lkm1KiwFDtSYKwgUoU1WrGVKFX8xUZ/Fvry/8+7ylQgkzX5FAC4q4pEL9ll0i3EbanKJe2UpI2ZNkaJynFSRSwL86VFAfJsBkQ9yXagapC2Xkr6lLK9kwg4A3m6Kcud179HDee+X56preYbotuIbAnB3tVvF4ohYYs3qzf//zuX2t1Cbg0qTRmP3PHpUrlWhJKVRX2VHEmW1HCmgJK6R0K5YULCWiLqJhNr0msS8pCqHyg/es1kbxOYB7AORywspagemHd/yn3tTdfbzyXg6iMBSI+CbgGIoTqdYO6RX9TbG5GLtSff3r3RFnbINXbwTe1z2ROSkfQlKPwt/X95YILQMiKI5oCMkvifUulPqCBQ0ajGxZCsfQ8ccUgGtGbzhlIB3pC4OLw2slbJt+PlbUCRW13/6eedek95c4LOXOyMoFpFbDiySkxabxuGLdo1vnbm19/3wzelwUgkOnq7HRAlQAYP3FILAxy6QDFhhaggAmXCaBLiiW6Up1YXDl24OqN6xOkYGJEAMrbXQj9OrcTFVDfgEIak7e83ERQgPCunHhfrr4qV55VdllwBoZJyMomx4giGa8DDp1NY52RC/z/t80/U9qH9oCyRvdaAvkC8M77RWjwhSPYlaGElwuKAVfQogPdY6Eyow4mAGQ1arDhzSUgx/fpQBxbe7gpZGWsYup48un4MHR1sy1TSlA9c3v3J3Lpx2LqYOjZg3lwHlBGqMAqzieIeA3UYTDVXv7d5P+/Mrwra8BApquZbfm+cA4IwHtyyknEqX8Nb7J4Q4uiCkQVImzrIKfTKA4BcxwBgVb0JYUCaOJScBdI6jyP4PIpV5QcT+dfs7xl0li5qUAB2R9ftP1iTfpI9N2p+jY4CzIOLuiqNSlAhyF0Mn9vBv81gzdZAOWhPVBZ5V5Vxo4NIKUU0rTSW/caG5CuJGaVpOYQBm/FO4PJtTAdQVxms4FMABBFKCUnJTmvkMyR8FUZPBGJwGT/RKAPqIJ67KQxecu0XKMEtk3lz0XXzw5TP1A39aMCOAsUAxFkdZroUBvGocPyymv4P2fwQubwaoMgSeWx+dt3bjpU8sT5O5LJwDL5LukM8xVGXNLmCR4ljV8IFdcJvEalmLZtNLBSfKuNcrdgU5KURCpJAA9Z+SDCIAFJZTAK8jjqf4Xxn4q+h0P3fmU0OAfFCBFkBZYFiHgBRRhBj5WNGb/C8D8zNaEJEhB03IxMZF061q6Kp5TSETa13RU+/BYAM2XTYwPUqUSFtFgB+IF0AcBfzF+3VSsTcZverVc2U52zYWSPXaUDNKVAihRKkPlwNPxCjP/EMGFQXbtDUDgPFAOklGBlAQOdCJB4ATqMhi5Laxm7wuj/ZnpECwAyHTeRGdmXsoKd1xPrz1NWONNct9ZoMSd5OA+jymLVxhfqKWfxn8TZBEBwlAnQvJc3wwJJSg7Ygbbu2NbC806Wl7dZunu/OYAleiIahXMoQwOdL1r79tzcmFtn2lxSAVMEjvmBdOQfHNkRpUk4HFZ2vXrbX0/67b898zcBQV1fAvtKstRyO4I4bimGEISRtQfrLxLzD1L/k4Ni9WclBMblB0BCuNbOTMuBTiRpVg9Wvb0vrdjW3N7w5LkFy0RxzoguKfd+H0trBJrwGdtCA93Nxt/p5u1unbO1pFsN08MjVpDcCfEgiRvHODtRxyTa46CLT3vy5v75eH8+PW+wZxBQ1wWWXgMGJDuGOGDwACRECGXVktUn4jzxaZArOAMEU7P6gc4mreqYHoDJB1IsIKCrFFPbHt+tlczIa8flroXEPrBVnNZ6d5rwVyBDA/WVGXy7a5u3fXluLLc0f/iYoQ/7gIjrElET9XEce/bf76/X+/fR/eft9uESKqsLrH2WKSSBMMYdMbgABoaBU+TvwAHUzMfjhHc9gEAZjCFgK5y0p9NeSjqUpGXFtVAcKSfSxxrX8kgokIPVWXkDcR0aPIgOWMBmgLJah4FAo3CEMlxCrO78t2dr821dafv0rC+o62MaHlFBQDjc39uoCBtcUWMCj6Nptjx7f/97xb//nif7dwIFapJoIlwJmfEBm/sSCopjhhstxSA4jJCPlHO1CpHE2KIBVBeEU15ZAKeSwer8ICEnmrGdvt3eEuNiJYxFqElOXnp+zLjMUJhOU8uEJdAEFl+GBgr0bszSN+7q5ly/MFdXDOYRMI0WuHK/DosNdEvYSFRXhZpBVI7i4PY/8M+r/fWk/97YfTiHBFV9CUO4EqJnAakmoxjjmEGVRAAEQgiDKsW6TYkSqiSyhYEY20GxVBQHoO5gjtTVFIH4BMRl295oJHYxpyaRkFecCaNqnVzf44lOSmLHYWCov8Co23OAWL65b8zG52xdms2zt7lQfxKz8IjnmB2BEPfb7QdRTRYrQBlGLYY092Vyd1N/0X+Pe37YBDLUUNUJa/9sybLP5ziYo0CEMY4ZdEkaYXWUyXBp/qtwyFTt6ScE/A2yJzbH41PDhuIQLTtmtdPDO0nADUdhjDhnuBPStIzUubfqZwdB0xsAfM8Bi69Aq9A91/zXbXx+bl7p2rLl+VKDGWZD0nS/bBO4KhSgbjEWRtLtbOY2Wn/uyN+rm9lmbYACakj1JQzJ6XmQpjU25MUTOItTJTkAFMHZ9h7flWCL5wuQA1SdTEAroWnh0z215aSA9fdcFxEbAiFYVEnBo4jOq9YnSuCVFAmjmxQDhvoTRt1pPhDpb7zBV3fzyls/38Zaby2ommMWHiFHdoQA3eeO9QFEdWUoQN5iss3gjlaL+h6za9SvbKY2W1sgBw5SaVxvm38OGWswiC382gsCt3ZgCiDciFMleQAUQm27OttneFv/OMAHMH1CYN3eA7p2gWP6tPi+CoqEEFQx7r42c9otdY6uVLUnKbG44LmMhcevMZOJwCOJroleCSQAX4EMLQi6txt+9bavtnF+NlZbnd96MvjDo41YwXF/OlAAhA1UJKplZSgqYsPwDsbSam9mt++YWnn39GWt77EFusBBAImujveWKdEUnFccqCuZmghh7uBGHClJcwgEyZdWxheTmOq39GYHg9HdpW4gerveBWF1JxRpQlCQNI+1LTMv0RCZd2OcISiI4I/n1EhTS/zTSDLTqHbn+cD+ChRoQNC7PgtfbvOGjYs211ptmlkAYhbtEXNkhKP7iCkVxEZUhIrAlUFDnlTGrWpY1xub+k6r/nAzc71jvrndmutwR6IxfN4yRaZg3SCIg87GWkX3BNGEMEAwhlkSAaAIAsLSkYjaNMWMv63fbk6gkpUjChFTAwUBEr5Itw69P+d1+wqOHdrQj45XOLyLU2bL284K8uEABTq99MJwJIcJfIYMLRh669P/nJXbrV+xeab1JcNJaRItPDRyGDvc+6bgmKkgQOCyoKHYxhSGdzDdbnfr4v6mvtKavK2zK7Ix2e6AEqQgwR2u8UNdcgcPSTgaIFKGgotRnHYAYgxmSRTAgQgOH5jSaA7Tlx0gzKlxTM7ztaLqSBNSQ1MUbu+3NIgicICgqFGj06EHO6gIItom6Sq8mGYVagQijPwVMLQK1aT+RoPPWb90K6dn5VRXFizNTTTRHi18RDbgHj1WgAM55hh0comiOdQtZsJIKDd5946FJvOPthdWZO72LO632iAHgABcmkQ+JwbhvWUKTD2xbdU4gvwMUDCQwXLYwaUkns4uyUXgQrK9dQ6s1izPU4e0Ub76DG/B9AVje9K/H8bIWx4CCbDPUIdDRSfDplDlAtuk0AQGZxVJkSJRAkZEIcIVyNCAoTOv/zmjzXflgvEpK2uzuthgoppDDI8WIWK+p1zBQMw4HCFRVKiGCrOY8rHjnXvZumO5Ictrm4W7raU9WiAHEQSQANN3OMC8H5nnFN4bgPv6YgYPDInED6YcTBkqgIiF4aZTJTkAbNti2LDzKKaO63kzDqA8B/UTHFWKVv0XtN2z2IMtJ+3QBErqSLHyjCymDxvo+TDBlrlm9CUKNcVAC02AwpVQ6fYeoDupc+sGG2/10q2cbrw6Kys3bupPqIkQ7dFGQIyoAAhHCrq74wEuOSLQUKEKjxO0Lg7b37OzZfejefPG9+ql2dlzDrpAIIAEuN42PA8zCO8tU7R4+fJ4yqxpZjHMhaiIwIDxMK5AnEWVFACwJGVPVtGSxQGgAkJlH1PRTAxsT+a4gW29fXf04MQFZMWG4LrSYRM9tcJLBmQbWddMuULTR8ZOFQOtaGS+EjJkaA1q6J7Wu/WG162ca3n9RiuGS40a/VqaDHS00SIgRIxYUXcg3MlAd9GegcYxjjg4MgcCRYUqYkxjVvEujuzv29u298m9ebedV+18slNfA5cAVJAwoXGAKRGft0wB4BYVABCHJ4Atycf7LMVTxLVHCEMch7AYFAfbaknZOqoga2BdR4R1cq4v4a1hevGEtXslsshWYBK3JVf43TtVnqH4GvXHtfvsKRztU+WuTC/bqGTHmpgpLSSI/HO4AgWygaGGzlqdqxavzOiC0ZnGKwaLDedbrK9biyZqhAjQNkJEgGPuiAakiEjusDtAKnFw3G81qCMQBjoolFAF4DGL9nLr4miODu9w38GWnU/svzN7bzvY2QvfZe8LIqIXQMj4HDIgcQhTUdik0ETK2TK9ULuFkBAyXawkCdDVstzg0r9D0qWI7YF13av1dJ7apt3u21WLp68HWK2KqYod50tSRi7jKBlv4QkTjCW/MWM5fmbLaIWZF/qCAQEGw6GagiNgRAkUOFwBQzYoENCpq9fqXGnxYoMzllZufqm5xRYWW1y8QTV9KtWwKoBwBMRDFUeEgnHEHAG4A0AoqLPL/L0MIPNvjyGOAcUBGE79LoeDIgguVCkAD7NYc9LpyR4dzvHBHR6Z7s7xp3fwgYP37njnXfptoIEMAQlCiaoR0I7xOYRAKQAW4e09twTKTOUjgQwHgYnOO5DpOINd0sK8yEpCVgEFfLam3rp5AMyDrcP8HQuW9qRK0OuWqUoI2MBoK66rrLitJy4em5NCk2SMJUwBxjRAYlWmUKGJm6oKqAhGhCd89s9YQzHIUAwqqEm1UufSzZ958+vmVppbNrd8s3O/+YWbnbx+00wzfapyUiUotIICEfGIgSNCFUcEEIEjBi/uQPQ1BzXtby4i2ggI0UZQYjnI/s6nM5ne6ZFTO+j04E53nW7N6Yd7+KHJQQ20Ka+ArDkRhdxmcIh07HKaZAfgDhY43AS+kWxFQeCSSDgF8dJxBlWSAOhqoRx5Wd3t2cLivoP0UHXQ2wRET2iCM4RYXIdPEojtibxEoY7k8Klt5iUbUbN2nV9OykxACUBF8afqU5tDVjCU7qbd5XC1NDdpfqrV//3Tv9m1N7M43fl/vfl689OdqzeZflOnmqq5upq6UlMVlZyKSqRSKvjfuwOuhCkWynEcrw1y6NJrg8bXtNd4zUkXfs9P5vzYxbFzO3S+u2c733Srs2PtVJ6VoVXIEP0NRFSNaAkPrNsAhwwo55GkrcAuAfIcZ8sJwNUmfnKkXM14Jpa5Ay8dZ9AlEWIexXRCgmztF8x3oJ7sZT8DhdZJzxDMkhJOh6iKPlkD0sEeURVoRbXghH1qxyVAaEoxFEkCfCUAeKo+MKIlPNp14C75FYr2diBIENY9N0REI6KuJgxHOIdHyFhruDLLodKhM7Oum6YQ1t16WgnPWLc/8Dk8sCQLUEIqPJIxDIxKAIwdg1uvOabQWF5KESdlsCpCDOwgmi5S0iIelqyYA4cta9Sr78Q9oHVrwQgIJSLxuM4/O6zz2EhxXwkrylVtQO5kff6EvWQnNgHcVJYkIALTJCgw0NJRDYARQEsYsG4f+BwGLHwscuNpKSVVB600PACstf2Bz+DwwCLMIVA6ASGS1AbIGieA5Abh9i6pylKKgs0IbuKkhHEFCqSzGK4AUk2EhpiCsiEraPGdtWexrijMFwRF4FqyLQ5ko1BFcRLfW0vGRQAoY5KCK++SR3GTZMomwMOJGssNhYQEQ6enRcYUHuxfxwOcQpbiSYJMKmqCX97OPbEeXOIOZYOtQs2AJqwyjD6AgFgwDAZC4aVdWDKyVkf15iK6aZ3ce/jW0P8anpV3U1ywTJBxAFH7XvsM7D/QFd+s8UW9rGfhSuP1sAW/JFKKyBQQpBRCZmxsxLMpYA5EGC3GKWpSJOZnmtHkBGCLCpMT2daC7QYbVlAYxD0ECSFZnJKstFJBFgz7KOQACEiQ+/lpVdVqz67u2HkDowcQlYUODRY6ZyhjJKInhITAS3mQzpb4yfqcXpldAqCwSYyk6QRSHAxCOpsYorRnxetCNkgZrGkHjM9TWWBjKPg5dhnA2s1xz8HYvNaEVqS4AoKell7SAQgw0smSnLRGefZ+aN3AIT7TrNTeu25DkT7IF4KH156otJ8VJCSH9geBtrgFiuVYUbRUerJeE4VgJ8ZL/EolQZMfUNPimSSCkrHmFGA+AYFoTPKzVA0B2PWDs5c2HAQIQnfBCBaiOAUR6TiExXBpdh3lIVQHxOSO2gifv7/sywtSNF8AWk16y/s5BsVq+4TFt7yIjdQbE/VSOMGujyfAkPyYqdoQyThZjPMOBtY0TGCR0m6DBb9qdok50wnI+LL+sF4K0lHpBoVIxyEMqrViS5QAIFGx9G7Wz0dVudOifnmjBwfMDOiEMkMHAwkCWPO1bWcGp1pOrwIAbpdtAuRICpakBKE0Rj2K8rEDFzdJuPvBkhAYm1fGIyVgEgzVECsejxXHwYY9qUkIjDW+4puoOAZIH8BLp0tqIiQaYEHKyyraz29F+QrnIhIeO4BCSWncDe6yU8VeqrX0vlimiWR7H2bEuN40GzHXJPvJkdRUBqDaAxY4R4cNa0IJBQoFmzRfTAYAFojGZD+vXQKw/gDhtXB6ApirVKF3vtnzD+ClowxVQkgIB5WbtKyoNJ/VRvxtOxOC2RwB0J2vo4ISLO+rMtc9YNmra39aNGDtuwiYqE+oJgHAkHTwSqoskqVMkpVYd8SRsLR0AIYRZAcrx44mQCgQGIoUhB1DFTsnABvnrAKwCfQQchO7oSsFoiSUQkDIdIRhlQQVQgXEkZuMfdHnfqXEEBAEwArIjDM5QALp2s2Ja2LqZABFICg4c+WdACBjp9xPMh0gWZYzMsvI0OA2VGB3gAvMLwABADE4wLcYeK9ESWjS5KoAHcaShSAg7HSLqlglVblRZtbuT5BOBIQDoEvqJW7jLIHb/HVzrQjpD7TaaadtAyHtshwOGGCX8EkfqVRKemOSZuzhLFTkBUCNRUpxMQyLEKo2tc5TRs+bNQWdLQkB0YWrSFeU7lkIsXR+CKgdsRFZ3aP8dOhTQDgAVoDshPFeCVIHkMko/rVeDYpSF3eMkcRPAyzVS4r8VJQ98qYJipRT+tQXpXTBsIEbusXI+k7KQkoRfBAlIdOWPHXFCoMLQNJz32RpzURKAloTByWFow/gp7vKhBclpMfNWvVWZGsG0JymbQBd0pbBA2yDwno/We7DOVhU5iO/78F1jgtCrAMYyV6YXOU0IStk2ZQ4Fs3l1iBhxjp0PoFvaVLbkI1Sblc0t+RwiLBx/x9xbUy6+58lsfyXRwGhW7iM7pxLdxGi6UwGzeEiEcnpTwOHUBFXUuJxnRInOjq7kEUE19ZBIRrgcr+Jvfwr4rfcFgAq1uOovUtI7lhb6KVrtGcC7J/PYff4e/2RIcoOoqXI20LdHBdyI9RT6S99wuoMY/iAYDMWHm1yMM8pTTSdYlAwAQDQ+/I/pLrTmRytSdATUG4iEVsXR4B4cyYkHMuni+hgzoW96uNaYTkvUSCVmiOhGes6dDIXkESjAxA4NyYlZorzjuPEun/8SaFi6ELE5QptHksTxRGCma5AnCVWEgFQCJf0P1HqHABHdCLrAB3IKjpAyAWcshKxQZEPi8uWREh4MQzN1fGWvZeWkMWhMa1xwhg87//b4QW+CBE25s71KEVFwDph0JUKHicSC1Pc0mu+CH5y8JZyqJQ+lhwmkY46EBCSYElnluQAMISfKk4drAMcGNCOZX1CWAeIvw6fzG9KT4OnhGXMk39FA0DEQRU8fZTxJCsBcHZFB3VZUQgdU+fXho1NoTl1CjvE7fDXL3TQgVjBJxmmvpMkI4aIS6cUAkIS8HRmSRrgfXFG3lIBAcHpUBgoForHhWEX1OHEWklklQUYEceKhDHXACLOquasc0vYybPz7LWvngeQ5niJscJxXUX46yQqNpfAIdanNqw8PdgwMz1QBkMkYEkfQEBIHFKShWJyvCO+rFWA3v8ZG+dRFYHgAIs/n2KRWCY2cKO8vo7FBBPm1uISY7sXQS9AsLCDBDj1GLI/XQIJvGPHYGQHAGQTvZ53bDubz77YvKvi00U7fEDQbfcsvQkjYhyFIDhCBBcGVZIEeGv+pRfcYVEf5EGIPO9MVRDB7ubzXOGxA5ut2Vi9xICOwF6Lw6pmFbZ0Yc4WszjG62RVxJxDfsaTESeGEJUwTA6Ofk1IUaqqx7PQQLVdhu1hOpXu1YkDxEiMkgr0tv3TbUiO2/LBFT1Kahzw8wu7imB9l+4T6LutXMvgMLKtWC6mVyTMoYYUAA5u1lS3r59a0U4Kus8BwIZbEXUQLQ15W9KV0dMoZAfOkJIiiKgl4fkwUUmp4QdDiI4pBEcgXayk9+lfXMY94kB5VLiuj/L3CRK9NL/YCrCa/8oNANyXpa/twYqWtpSaONQLz/DmBHXkRLZPY1IiIOmKDW3INeUgCpGA0zbMYK88UNS4MOmHV67Go0PwkHBDiTsokAUkIALpzJLewH8WKSZIxzRFWLUx4MFByPxxMReNhTfOTB395PCdBH1B1SUoQ+g9a/CIbs37OmRw4EQ3DMw9iR3qJqlEw2CHV7F0fjDneHpAqRFOStOT4giOaDpV0rsoKqZ8pL6FxwNyZUiigqCIsnWQJt5Tm35c1GKcsRTHVTY2Cm1QiCZr9gxT5DKATGENaBrFsbHFligPm2to0BU3eETTb5G3FYbqbKmbUgNQOYwThguXQhAQgXSKr970UANkWMVNFn/vh6WOhohSR38rLID4XT02uyg067JyEPq0GEB06tloyTqPBpFodgzh2wKACA4hIsNKVTl0Cs37JEiZfta1iGorpBXOu0+NYB0gIR3orfw3i7P1w2lEPQVcESiBSMhdlEcGShUJ/CggbC7tNMXM3icVZvm2XrIAZFCckB2Qh5w2SToRohO9yFAOjJg114E9q1so1wiumeZz1VArNFqidEdrPJBACEEJkOjTgxBAb+YDRLI2Y0mJurUtfa/VHhn29G/FUH2jPv1OB/7JFNuhyt0U2qQwPB/2OvTCfAZYCtB6li+cbIbBWgHpRIh9Yghr0xOagi25GgyyIkBz4Hn+xGbpUtnBIUJNb6IlaDdVh1EKTECZLBosku4tfKSu1cdmCbblcAXXRQW2k8hxUFM2h8Dvd6KEg4+6bUDmoLih6hrwlGWpJA/bIEiyixTqltsLnfvko3myESxNdLQHuaEmoSdHeRlXIeNSaebf7HbKhQg/VKDoBc5LShaCCQF6f2UlYlnalu31ss4EYp31sL74nfWi3EBBDMcZmCOgRS0J0cFooVS4LhBLL0cRWuIUl6KVc1XSFSQASfH5Cwla4azO5q42zwGQ91QULEaYci+EyUrFSR7B0eFRAIVhaAXSB5Dp3uV/81duqDI8YatDaRYiEX6LJ7IXeNeE6hCOUJWA8bg97Ctgxfh7uu98p7ASNseH/q1oviFYEcvYEWedeXzMy9KRm11okHBLcOsAzUEcVszf7o2vI4JBodz4ZPgwuXQlkU8QoBFEujf6AXIPoMcNtAuvCGBsU8H2KZweYE07Ysae+HMvbFD4AKY2r5G2bnVt54dVYbDSM97oY/yFPPjdM/EmDkKyOUnBHQhTQLklz3O1QRDhmt2SniRAReHn3LgudKJIIOrF0A5L1y/F4h7g3X9ELC+PD0K7SLhOk/l4ehDG3zQnbh/YsTESMaKMqxFAleiq8pFSaKZ2SwAGs04YqjPc7eec8ZSRqCKHzYqwsTERwJhYVISDurwy4BkKU2TMPQpNWjHCQYAA5cLgT1dp2AHefUEBWYnqSnGwJA/z6V1RyA6x3lb23JuIaBz+pEoEe3+ppclytERypfE65+BZbfu8J17CkoAsTvwOxsZkhghl7FgnrOVaHER1jNrB3xVQVjK0Qy8x1iSQPAB9ygNU1bdDaAdGFEYVobVdBymgKUsYtKEE+GnKkYkhBBZ3UGU0KSsLYmMcLAsL07ZNClKfaALRCeaJY7mZwRhEpet5QLKuK1gxNetspioHoUATkDukO8dcsilAwDfEY7XIAppROInv/Fy2thVSU0qxInqZwtERzW9FsAsxGn4L3sFd0bK1ZSskKLCAifQyRVdhplNCAvfQwA5u1fGZoYYxpla48VqBI/DYQGtDuF+6QIK+Icoj5rv0Wmqboqk3L/HHAXRqEDJWRM9c6gGBWpM4KDQLDeSbubfUfbZkpW4dAJRDNHiM1aCbnbYOpbwmMarYUeK2gca1SEmx6UBR6VQXdBZ3EF0hIPbE3+KRAawt9ZJyc3CgAAFy75vj8Wn8eg+b47Wdn/itqJOsLPweM9wbQzi14JoyfBawRGhjCuFwyRstUSqQUQFaxBlKcE7EcDFQHoIB2OTkpLOxQkux+Svnod061/Db5/jY/LrhKyAMFqqOAcdA+N4V5or33ZF27W69QCQS5OOyTs2YPgoQEAPIRJALAD7C4S4BENwZVoZmatvJSkUw4g0/3OYzRXHKmdgW5hI4JoOuRsRCS2d1Rmh5gVCh5HT/HjrpRHFiCTAQ43L3vk0efOzA+RFq2wI2ip8ajl64MHqNznCaYpLOA3ev/ZupXbKQQORYg1zkO2lXPGVgDlUwYJFDiI4M0UT2BHBV2VLeVJF60wremcuHgOcGkhShfKLoQfqp8Y3zT1RyzF8w2mJvJ9XY7tAbm/X2Fr0LelPBh7e+69do9iCSGEAUHC+FIxRwTSAmAbaPZNAPaC+kxoZELbmqTHmitrMTUETp5GadgzGKNF0fQ161meAb5/HcCkO+lcCI04Ov7tJL+hNpciTJ8+elIy4pYl1tUleWfu8ZtkRCqg2K34UzeYLDlCCSECS4IHR0uN/JkgByQU2ulgIiBJNJzATndT3QI4gO/XCyAFlJoBEEqAvqt9A/O81hT8FCN5yQIN8y/jL4DY0ck3cLcM1n6ErkWZxtdu7gyrsAspcSw4aQRF6wtLUWQDcISTNsopGkk8Ngs4PJOMgTpVPs6HS5iUtIzXYFfhVKGE7pBD/vxEanzykPtitiW5go8EfWQ5t70tvg9aepBHuFbrYiWjEmD64q1IFwAXRTIGL/p1IkRob4a/tekpiCyWEdhLGiyUjpWeGol2dcHQQl5cKAI1a2d/oqlEO7AloR+/30OLkNtfUvlmNFZ8+TXPAWvr9r52hw3YrY9MT+NoJEJBHpnFsQE3QDhIYsCojY8HSyWrgAL3HGbE5f783tCfDK/s6vIuEVsd9E0wdRrPiMTYSO9bE9n35/s4yNmmoSGIm9Qx645ojBovzBkzrwit+AeCDY2dHNQYjQ2CZK7PvuDYMgiHQF9Eq1CPRVqWX4hbLWOn76rqfjm+0hik04Igw/WxE7KpZJKkKhoW7sbJERfkDYhpSIhGjOtp1btuvDg3WL7Xmd0sQSCRO9DygmSsQBhMI+jz3Lk+lIVj64AJwteF4lJXnw8H01hcBMUfpJeWwvhYN7OWqTGOAGYyvG4Rbe5Mf4M8+CdDhGhlIupopGB4Q7QhBszPQ2deS+0znMV01YeVVAyXBQeXm/8aIwNf1TAcLi6IAnhxmBvHPAk+jMAg+gNWghNdI3XUbnR0eO0RBSNxodhBEYmFfRfScJKVKsnHDpvN+GWf2o4D/57JDbSegUJ2LvwICWsN7BgWVR5OG64WTQiSm5ihw+c2SAcAwdENddp5QaUZ7xe5V8Zz52aq5i0tvRS80c9tXm13UnEQPBWA3v8K8JBM2pQV0RzQmHz8boK1M4RBsILJW3U3UFEY9vz+Lm2wSUE9hc/IkfnB6o0VCVomXM1IswejaMUVdUl7WhREJYPobBcdsotfQK5wJzYbk+n1Z53Uo7nDglRFxgxP2BkBycx6HHlkhAKzwxMpCNRclI+LkZHJrdULvhPwwUQnyMAwBvOFVEFfstM9Tjm/couUepmUNnAC2+qe9gmQfvE5b2+U53+TRFuFAOFQk4FgofAzcPFX21E1iHHhdqfU6+kY8yHSxO8rgP0o+wormub9Uzz7JaCA2x0xwoko84R8Ths9GOfRwa7oL/N/jDN2zx6zsXlLZzFqjKGIHx6AEhOmy7nbR20Ztzk8PKsCFgzD2OJYOGhRz4fn/AjkOlOQjtkbWlVkwNBs/OsU3UJJRyCD1ycOC5IVpHA0IXlG95Wbl/ag+pgdOFSJisOXLyhAyQbuwkK+3KmxMehkwONEJQhCEiP/G/Lyq/LUjNiujTb7TgQJ96cuLZ6S4ftCBEU4q2BItB4EDD+CaDDyGiX3D+/+qe3uyL8RUt8YBCbFEFEj83fi01aNMBbDDMcLxUUX7b0Zvc4pvbe6jjr+gshdLqMEACt4hPH0sU29fpyS9gsjOeHTr+vj0c+A9G8Yv5L//3//HTf/fTf/fTf/fTf/f/fbsCAA==;" vertex="1" parent="1">
          <mxGeometry x="50" y="200" width="110" height="110" as="geometry" />
        </mxCell>
        <mxCell id="jSzEfoAAytOfIy6DPPDP-7" style="edgeStyle=orthogonalEdgeStyle;rounded=0;orthogonalLoop=1;jettySize=auto;html=1;exitX=1;exitY=0.5;exitDx=0;exitDy=0;" edge="1" parent="1" source="jSzEfoAAytOfIy6DPPDP-2" target="jSzEfoAAytOfIy6DPPDP-5">
          <mxGeometry relative="1" as="geometry" />
        </mxCell>
        <mxCell id="jSzEfoAAytOfIy6DPPDP-2" value="" style="strokeColor=#dddddd;shadow=1;strokeWidth=1;rounded=1;absoluteArcSize=1;arcSize=2;" vertex="1" parent="1">
          <mxGeometry x="305" y="225" width="120" height="60" as="geometry" />
        </mxCell>
        <mxCell id="jSzEfoAAytOfIy6DPPDP-3" value="Cloud&#xa;Storage" style="editableCssRules=.*;html=1;fontColor=#999999;shape=image;verticalLabelPosition=middle;verticalAlign=middle;labelPosition=right;align=left;spacingLeft=20;part=1;points=[];imageAspect=0;image=data:image/svg+xml,PHN2ZyB4bWxucz0iaHR0cDovL3d3dy53My5vcmcvMjAwMC9zdmciIHhtbG5zOnY9Imh0dHBzOi8vdmVjdGEuaW8vbmFubyIgd2lkdGg9IjIwIiBoZWlnaHQ9IjE2IiB2aWV3Qm94PSIwIDAgMjAgMTYiPiYjeGE7CTxzdHlsZSB0eXBlPSJ0ZXh0L2NzcyI+JiN4YTsJLnN0MHtmaWxsOiM0Mjg1ZjQ7fSYjeGE7CS5zdDF7ZmlsbDojNjY5ZGY2O30mI3hhOwkuc3Qye2ZpbGw6I2FlY2JmYTt9JiN4YTsJLnN0M3tmaWxsOiNmZmY7fSYjeGE7CTwvc3R5bGU+JiN4YTsJPHBhdGggY2xhc3M9InN0MiIgZD0iTTAgMGgyMHY3SDB6Ii8+JiN4YTsJPHBhdGggY2xhc3M9InN0MSIgZD0iTTE4IDBoMnY3aC0yeiIvPiYjeGE7CTxwYXRoIGNsYXNzPSJzdDAiIGQ9Ik0xOCA3bDItN2gtMnoiLz4mI3hhOwk8cGF0aCBjbGFzcz0ic3QxIiBkPSJNMCAwaDJ2N0gweiIvPiYjeGE7CTxnIGNsYXNzPSJzdDMiPiYjeGE7CQk8cGF0aCBkPSJNNCAzaDZ2MUg0eiIvPiYjeGE7CQk8cmVjdCB4PSIxMyIgeT0iMiIgd2lkdGg9IjMiIGhlaWdodD0iMyIgcng9IjEuNSIvPiYjeGE7CTwvZz4mI3hhOwk8cGF0aCBjbGFzcz0ic3QyIiBkPSJNMCA5aDIwdjdIMHoiLz4mI3hhOwk8cGF0aCBjbGFzcz0ic3QxIiBkPSJNMTggOWgydjdoLTJ6Ii8+JiN4YTsJPHBhdGggY2xhc3M9InN0MCIgZD0iTTE4IDE2bDItN2gtMnoiLz4mI3hhOwk8cGF0aCBjbGFzcz0ic3QxIiBkPSJNMCA5aDJ2N0gweiIvPiYjeGE7CTxnIGNsYXNzPSJzdDMiPiYjeGE7CQk8cGF0aCBkPSJNNCAxMmg2djFINHoiLz4mI3hhOwkJPHJlY3QgeD0iMTMiIHk9IjExIiB3aWR0aD0iMyIgaGVpZ2h0PSIzIiByeD0iMS41Ii8+JiN4YTsJPC9nPiYjeGE7PC9zdmc+;" vertex="1" parent="jSzEfoAAytOfIy6DPPDP-2">
          <mxGeometry width="30" height="24" relative="1" as="geometry">
            <mxPoint x="15" y="18" as="offset" />
          </mxGeometry>
        </mxCell>
        <mxCell id="jSzEfoAAytOfIy6DPPDP-10" style="edgeStyle=orthogonalEdgeStyle;rounded=0;orthogonalLoop=1;jettySize=auto;html=1;exitX=0.5;exitY=1;exitDx=0;exitDy=0;" edge="1" parent="1" source="jSzEfoAAytOfIy6DPPDP-5" target="jSzEfoAAytOfIy6DPPDP-8">
          <mxGeometry relative="1" as="geometry" />
        </mxCell>
        <mxCell id="jSzEfoAAytOfIy6DPPDP-5" value="" style="strokeColor=#dddddd;shadow=1;strokeWidth=1;rounded=1;absoluteArcSize=1;arcSize=2;" vertex="1" parent="1">
          <mxGeometry x="560" y="225" width="170" height="60" as="geometry" />
        </mxCell>
        <mxCell id="jSzEfoAAytOfIy6DPPDP-6" value="&lt;font color=&quot;#000000&quot;&gt;Name&lt;/font&gt;&lt;br&gt;Cloud Data Fusion" style="editableCssRules=.*;html=1;fontColor=#999999;shape=image;verticalLabelPosition=middle;verticalAlign=middle;labelPosition=right;align=left;spacingLeft=20;part=1;points=[];imageAspect=0;image=data:image/svg+xml,PHN2ZyB4bWxucz0iaHR0cDovL3d3dy53My5vcmcvMjAwMC9zdmciIHhtbG5zOnY9Imh0dHBzOi8vdmVjdGEuaW8vbmFubyIgd2lkdGg9IjM3Ny4wNDk2OTgzMjc3ODkyNiIgaGVpZ2h0PSIzNzcuMjkxNTcwNzE1Nzg5NzYiIHZpZXdCb3g9IjAuMTMxMDAwNTE4Nzk4ODI4MTIgLTAuMTIxMDAwMDA2Nzk0OTI5NSA5OS43NjEwMDE1ODY5MTQwNiA5OS44MjQ5OTY5NDgyNDIxOSI+JiN4YTs8c3R5bGUgdHlwZT0idGV4dC9jc3MiPiYjeGE7CS5zdDB7ZmlsbDojNjY5ZGY2O30mI3hhOwkuc3Qxe2ZpbGw6IzQyODVmNDt9JiN4YTsJLnN0MntmaWxsOiNhZWNiZmE7fSYjeGE7PC9zdHlsZT4mI3hhOwk8cGF0aCBjbGFzcz0ic3QwIiBkPSJNODAuNTkzIDE5LjE4djIwLjE5OWgxOS4yOTlWOS41M2MwLTIuNTM3LS45NzktNC44NDYtMi41OC02LjU2OHptLTkuOTA4IDYxLjIyNUgxOS40MzFMMy40NSA5Ny4zMzdjMS42OTUgMS40NzQgMy45MDggMi4zNjcgNi4zMzEgMi4zNjdoNzAuNTU1YzIuODczIDAgNS40NTMtMS4yNTYgNy4yMjEtMy4yNDh6Ii8+JiN4YTsJPHBhdGggY2xhc3M9InN0MSIgZD0iTTg3LjU3MyA5Ni40MzdjMS41MDEtMS43MDEgMi40MTMtMy45MzUgMi40MTMtNi4zODJWNjAuMjA0SDcwLjY4NXYyMC4yMDF6Ii8+JiN4YTsJPHBhdGggY2xhc3M9InN0MiIgZD0iTTE5LjQzMSA4MC40MDVWMjkuMzRoMjAuNTc4VjEwLjA0SDkuNzgxYy01LjMzIDAtOS42NSA0LjMyMS05LjY1IDkuNjV2NzAuMzY1Yy4wMDEgMi45MDYgMS4yODYgNS41MTMgMy4zMiA3LjI4MXptNzcuODgtNzcuNDQzQzk1LjU1IDEuMDY2IDkzLjAzNi0uMTIgOTAuMjQ0LS4xMjFINTkuOTUxVjE5LjE4aDIwLjY0M3oiLz4mI3hhOzwvc3ZnPg==;" vertex="1" parent="jSzEfoAAytOfIy6DPPDP-5">
          <mxGeometry width="30" height="30" relative="1" as="geometry">
            <mxPoint x="15" y="15" as="offset" />
          </mxGeometry>
        </mxCell>
        <mxCell id="jSzEfoAAytOfIy6DPPDP-13" style="edgeStyle=orthogonalEdgeStyle;rounded=0;orthogonalLoop=1;jettySize=auto;html=1;exitX=0.5;exitY=1;exitDx=0;exitDy=0;entryX=0;entryY=0.25;entryDx=0;entryDy=0;" edge="1" parent="1" source="jSzEfoAAytOfIy6DPPDP-8" target="jSzEfoAAytOfIy6DPPDP-11">
          <mxGeometry relative="1" as="geometry" />
        </mxCell>
        <mxCell id="jSzEfoAAytOfIy6DPPDP-8" value="" style="strokeColor=#dddddd;shadow=1;strokeWidth=1;rounded=1;absoluteArcSize=1;arcSize=2;" vertex="1" parent="1">
          <mxGeometry x="580" y="400" width="130" height="60" as="geometry" />
        </mxCell>
        <mxCell id="jSzEfoAAytOfIy6DPPDP-9" value="BigQuery" style="editableCssRules=.*;html=1;fontColor=#999999;shape=image;verticalLabelPosition=middle;verticalAlign=middle;labelPosition=right;align=left;spacingLeft=20;part=1;points=[];imageAspect=0;image=data:image/svg+xml,PHN2ZyB4bWxucz0iaHR0cDovL3d3dy53My5vcmcvMjAwMC9zdmciIHhtbG5zOnY9Imh0dHBzOi8vdmVjdGEuaW8vbmFubyIgd2lkdGg9IjIwLjAwMTA0NTIyNzA1MDc4IiBoZWlnaHQ9IjIwLjAwMTA0NTIyNzA1MDc4IiBmaWxsLXJ1bGU9ImV2ZW5vZGQiIHZpZXdCb3g9IjAgMCAyMC4wMDEwNDUyMjcwNTA3OCAyMC4wMDEwNDUyMjcwNTA3OCI+JiN4YTsJPHN0eWxlIHR5cGU9InRleHQvY3NzIj4mI3hhOwkuc3Qwe2ZpbGw6I2FlY2JmYTt9JiN4YTsJLnN0MXtmaWxsOiM2NjlkZjY7fSYjeGE7CS5zdDJ7ZmlsbDojNDI4NWY0O30mI3hhOwk8L3N0eWxlPiYjeGE7CTxwYXRoIGNsYXNzPSJzdDAiIGQ9Ik00LjczIDguODN2Mi42M2E0LjkxIDQuOTEgMCAwIDAgMS43MSAxLjc0VjguODN6Ii8+JiN4YTsJPHBhdGggY2xhc3M9InN0MSIgZD0iTTcuODkgNi40MXY3LjUzQTcuNjIgNy42MiAwIDAgMCA5IDE0YTggOCAwIDAgMCAxIDBWNi40MXoiLz4mI3hhOwk8cGF0aCBjbGFzcz0ic3QwIiBkPSJNMTEuNjQgOS44NnYzLjI5YTUgNSAwIDAgMCAxLjctMS44MlY5Ljg2eiIvPiYjeGE7CTxwYXRoIGNsYXNzPSJzdDIiIGQ9Ik0xNS43NCAxNC4zMmwtMS40MiAxLjQyYS40Mi40MiAwIDAgMCAwIC42bDMuNTQgMy41NGEuNDIuNDIgMCAwIDAgLjU5IDBsMS40My0xLjQzYS40Mi40MiAwIDAgMCAwLS41OWwtMy41NC0zLjU0YS40Mi40MiAwIDAgMC0uNiAwIi8+JiN4YTsJPHBhdGggY2xhc3M9InN0MSIgZD0iTTkgMGE5IDkgMCAxIDAgMCAxOEE5IDkgMCAxIDAgOSAwbTAgMTUuNjlhNi42OCA2LjY4IDAgMCAxIC4wMDctMTMuMzYgNi42OCA2LjY4IDAgMCAxIDQuNzI3IDExLjQwM0E2LjY4IDYuNjggMCAwIDEgOSAxNS42OSIvPiYjeGE7PC9zdmc+;" vertex="1" parent="jSzEfoAAytOfIy6DPPDP-8">
          <mxGeometry width="30" height="30" relative="1" as="geometry">
            <mxPoint x="15" y="15" as="offset" />
          </mxGeometry>
        </mxCell>
        <mxCell id="jSzEfoAAytOfIy6DPPDP-11" value="Looker" style="sketch=0;html=1;verticalAlign=top;labelPosition=center;verticalLabelPosition=bottom;align=center;spacingTop=-6;fontSize=11;fontStyle=1;fontColor=#999999;shape=image;aspect=fixed;imageAspect=0;image=data:image/svg+xml,PHN2ZyB4bWxucz0iaHR0cDovL3d3dy53My5vcmcvMjAwMC9zdmciIGlkPSJzdmc4OTgwMSIgdmVyc2lvbj0iMS4xIiB2aWV3Qm94PSIwIDAgMjA4LjA1NjU1IDMzNC42MTMxNiIgaGVpZ2h0PSIzMzQuNjEzMTZtbSIgd2lkdGg9IjIwOC4wNTY1NW1tIj4mI3hhOyAgJiN4YTsgIDxkZWZzIGlkPSJkZWZzODk3OTgiLz4mI3hhOyAgPGcgdHJhbnNmb3JtPSJ0cmFuc2xhdGUoLTQuMjQ2MjUyNCwxNS42NzE5MTEpIiBpZD0ibGF5ZXIxIj4mI3hhOyAgICA8cGF0aCBpZD0icGF0aDkxODAyIiB0cmFuc2Zvcm09InNjYWxlKDAuMjY0NTgzMzMpIiBkPSJtIDQwOS4yMjI2Niw0MTkuMDk5NjEgYyAtMzYuNjA4MTEsMCAtNzIuMDc2NjcsNS4wNzUzIC0xMDUuNzUzOTEsMTQuNTMxMjUgbCA0OS4wMzUxNiwxMjAuMDQxMDIgYyAxOC4yNjE3MiwtMy45Mzg5OSAzNy4yMjE5NiwtNi4wNjgzNiA1Ni43MTg3NSwtNi4wNjgzNiAxNDYuOTM1MTQsMCAyNjQuNjc3NzMsMTE3LjczNDc3IDI2NC42Nzc3MywyNjQuNjY5OTIgMCwxNDYuOTM1MTQgLTExNy43NDI1OSwyNjQuNjY5OTYgLTI2NC42Nzc3MywyNjQuNjY5OTYgLTE0Ni45MzUxNiwwIC0yNjQuNjY5OTEsLTExNy43MzQ4MiAtMjY0LjY2OTkzLC0yNjQuNjY5OTYgMCwtOTkuMTg3NjMgNTMuNjg5ODMsLTE4NS4wMDU5NiAxMzMuNzU1ODYsLTIzMC4zNDc2NiBMIDIyOS42MjY5NSw0NjIuNzUgQyAxMDMuMDI0Nyw1MjguMjI0NzQgMTYuMDQ4ODI3LDY2MC41MDUyMyAxNi4wNDg4MjgsODEyLjI3MzQ0IGMgMi4zZS01LDIxNi4zODM3NiAxNzYuNzkwMDYyLDM5My4xNzM4NiAzOTMuMTczODMyLDM5My4xNzM4NiAyMTYuMzgzNzMsMCAzOTMuMTgxNjQsLTE3Ni43OTAxIDM5My4xODE2NCwtMzkzLjE3Mzg2IDNlLTUsLTIxNi4zODM3OCAtMTc2Ljc5Nzg3LC0zOTMuMTczODMgLTM5My4xODE2NCwtMzkzLjE3MzgzIHoiIHN0eWxlPSJjb2xvcjojMDAwMDAwO29wYWNpdHk6MTtmaWxsOiM1OTg2ZjI7ZmlsbC1vcGFjaXR5OjE7c3Ryb2tlLXdpZHRoOjMuNzc5NTM7c3Ryb2tlLWxpbmVqb2luOnJvdW5kOy1pbmtzY2FwZS1zdHJva2U6bm9uZSIvPiYjeGE7ICAgIDxwYXRoIGQ9Im0gMTg5Ljk0MzM2LDg2LjI1IGMgLTk1LjEzMDMzMSwwIC0xNzMuMTc5Njg4LDc4LjA1NTIyIC0xNzMuMTc5Njg4LDE3My4xODU1NSAtNmUtNiw5NS4xMzAzMyA3OC4wNDkzNTMsMTczLjE3OTY4IDE3My4xNzk2ODgsMTczLjE3OTY4IDkuMDE2MTgsMCAxNy44NzU4LC0wLjcwODMyIDI2LjUzMzIsLTIuMDU4NTkgbCAtMzQuODI4MTIsLTg1LjI2NTYyIGMgLTQ0LjE1NzMsLTQuMDg2NjkgLTc3Ljk1NTA4LC00MC41MDcwNSAtNzcuOTU1MDgsLTg1Ljg1NTQ3IDAsLTQ4LjE1MDM5IDM4LjA5OTYyLC04Ni4yNTU4NiA4Ni4yNSwtODYuMjU1ODYgMTMuMTU5NzcsMCAyNS41NTg4OCwyLjg2MjQ2IDM2LjY0NDUzLDcuOTgyNDIgbCA2NC41NTQ2OSwtNjEuOTE5OTIgQyAyNjIuNjA4MzcsOTguNTMzOTEgMjI3LjYyOTI5LDg2LjI1IDE4OS45NDMzNiw4Ni4yNSBaIG0gMTM4Ljg4ODY3LDcwLjE2MjExIC02My40Mjc3Myw2MC44MzU5NCBjIDYuODc2MzgsMTIuNDI2NzggMTAuNzg5MDYsMjYuNzg4MTUgMTAuNzg5MDYsNDIuMTg3NSAwLDIxLjc2NzEyIC03LjgwNDE1LDQxLjQ2NTQgLTIwLjc4NTE2LDU2LjUzMzIgbCAzNC41MjM0NCw4NC41MTk1MyBjIDQ0LjE3Mzg3LC0zMS40ODc1MSA3My4xOTE0MSwtODMuMDc4OTIgNzMuMTkxNDEsLTE0MS4wNTI3MyAwLC0zOC40ODM1NSAtMTIuNzgyLC03NC4xNjUzMiAtMzQuMjkxMDIsLTEwMy4wMjM0NCB6IiB0cmFuc2Zvcm09InNjYWxlKDAuMjY0NTgzMzMpIiBzdHlsZT0iY29sb3I6IzAwMDAwMDtvcGFjaXR5OjE7ZmlsbDojNmY5OGY0O2ZpbGwtb3BhY2l0eToxO3N0cm9rZS13aWR0aDozLjc3OTUzO3N0cm9rZS1saW5lam9pbjpyb3VuZDstaW5rc2NhcGUtc3Ryb2tlOm5vbmUiIGlkPSJwYXRoOTE3OTgiLz4mI3hhOyAgICA8cGF0aCBpZD0icGF0aDg5OTI4IiB0cmFuc2Zvcm09InNjYWxlKDAuMjY0NTgzMzMpIiBkPSJtIDQwNi4xMzY3MiwtNTkuMjMyNDIyIGMgLTU4LjgxNTQ3LDhlLTYgLTEwNy4xMDM1Miw0OC4yODgwNDUgLTEwNy4xMDM1MiwxMDcuMTAzNTE2IDAsMTguNDk0NDUxIDQuNzgxMDEsMzUuOTQ1MDE3IDEzLjE1NjI1LDUxLjE4MzU5NCBsIDQ0LjMxMjUsLTQyLjUwMzkwNyBjIC0wLjQ3NTY3LC0yLjgyMDc3NSAtMC43NzUzOSwtNS43MDc1NjQgLTAuNzc1MzksLTguNjc5Njg3IDAsLTI4LjE3NjM4IDIyLjIzMzc4LC01MC40MTAxNTI1IDUwLjQxMDE2LC01MC40MTAxNTY1IDI4LjE3NjM4LC00ZS02IDUwLjQxMDE1LDIyLjIzMzc3MDUgNTAuNDEwMTYsNTAuNDEwMTU2NSAwLDI4LjE3NjM4MSAtMjIuMjMzNzgsNTAuNDEyMTEzIC01MC40MTAxNiw1MC40MTIxMDkgLTUuMDY4NjksLTEwZS03IC05LjkzNDE3LC0wLjc0NTYzMSAtMTQuNTIzNDQsLTIuMDg5ODQ0IGwgLTQzLjM2MTMzLDQxLjU5MTgwMSBjIDE2LjczMjIzLDEwLjg0Nzk1IDM2LjYxMTIzLDE3LjE4OTQ1IDU3Ljg4NDc3LDE3LjE4OTQ1IDU4LjgxNTQ5LDEwZS02IDEwNy4xMDM1MSwtNDguMjg4MDQgMTA3LjEwMzUxLC0xMDcuMTAzNTE2IDAsLTU4LjgxNTQ4MyAtNDguMjg4MDIsLTEwNy4xMDM1MjMgLTEwNy4xMDM1MSwtMTA3LjEwMzUxNiB6IiBzdHlsZT0iY29sb3I6IzAwMDAwMDtvcGFjaXR5OjE7ZmlsbDojZDZlM2ZiO2ZpbGwtb3BhY2l0eToxO3N0cm9rZS13aWR0aDozLjc3OTUzO3N0cm9rZS1saW5lam9pbjpyb3VuZDstaW5rc2NhcGUtc3Ryb2tlOm5vbmUiLz4mI3hhOyAgPC9nPiYjeGE7PC9zdmc+;" vertex="1" parent="1">
          <mxGeometry x="620" y="518.5" width="26" height="42" as="geometry" />
        </mxCell>
        <mxCell id="jSzEfoAAytOfIy6DPPDP-12" value="" style="sketch=0;outlineConnect=0;fontColor=#232F3E;gradientColor=none;fillColor=#8C4FFF;strokeColor=none;dashed=0;verticalLabelPosition=bottom;verticalAlign=top;align=center;html=1;fontSize=12;fontStyle=0;aspect=fixed;pointerEvents=1;shape=mxgraph.aws4.opensearch_dashboards;" vertex="1" parent="1">
          <mxGeometry x="680" y="510" width="78" height="59" as="geometry" />
        </mxCell>
        <mxCell id="jSzEfoAAytOfIy6DPPDP-14" value="Extract Data" style="rounded=0;whiteSpace=wrap;html=1;" vertex="1" parent="1">
          <mxGeometry x="170" y="270" width="110" height="40" as="geometry" />
        </mxCell>
        <mxCell id="jSzEfoAAytOfIy6DPPDP-15" value="Transform and Load Data" style="rounded=0;whiteSpace=wrap;html=1;" vertex="1" parent="1">
          <mxGeometry x="648" y="320" width="110" height="40" as="geometry" />
        </mxCell>
      </root>
    </mxGraphModel>
  </diagram>
</mxfile>
